<mxfile host="app.diagrams.net" modified="2023-11-15T12:48:25.627Z" agent="Mozilla/5.0 (Windows NT 10.0; Win64; x64) AppleWebKit/537.36 (KHTML, like Gecko) Chrome/119.0.0.0 Safari/537.36 Edg/119.0.0.0" etag="8B-fnx7E6AgY4s8HibFb" version="22.1.1" type="device" pages="3">
  <diagram id="4IDIp2fGBqd-xNtoJn5A" name="Stacks">
    <mxGraphModel dx="1226" dy="712" grid="1" gridSize="10" guides="1" tooltips="1" connect="1" arrows="1" fold="1" page="1" pageScale="1" pageWidth="1169" pageHeight="827" math="0" shadow="0">
      <root>
        <mxCell id="0" />
        <mxCell id="1" parent="0" />
        <mxCell id="hjfe02iyS3ICCaawMEXU-1" value="&lt;font style=&quot;&quot;&gt;CI&lt;br&gt;&lt;span style=&quot;font-weight: normal;&quot;&gt;&lt;font style=&quot;font-size: 28px;&quot;&gt;(Continuous Integration)&lt;br&gt;&lt;br&gt;&lt;br&gt;&lt;br&gt;&lt;br&gt;&lt;br&gt;&lt;br&gt;&lt;br&gt;&lt;br&gt;&lt;br&gt;&lt;br&gt;&lt;/font&gt;&lt;/span&gt;&lt;/font&gt;" style="text;html=1;align=center;verticalAlign=middle;whiteSpace=wrap;rounded=0;fontSize=36;labelBorderColor=none;fontStyle=1;labelPosition=center;verticalLabelPosition=middle;horizontal=1;movable=1;resizable=1;rotatable=1;deletable=1;editable=1;locked=0;connectable=1;strokeWidth=3;glass=0;strokeColor=#82b366;sketch=1;curveFitting=1;jiggle=2;fillColor=#d5e8d4;gradientDirection=east;fillStyle=solid;gradientColor=#FFFFFF;" parent="1" vertex="1">
          <mxGeometry x="40" y="220" width="540" height="540" as="geometry" />
        </mxCell>
        <mxCell id="hjfe02iyS3ICCaawMEXU-3" value="CD&lt;br style=&quot;border-color: var(--border-color);&quot;&gt;&lt;font style=&quot;border-color: var(--border-color); font-size: 28px; font-weight: normal;&quot;&gt;(Continuous Deployment)&lt;br&gt;&lt;br&gt;&lt;br&gt;&lt;br&gt;&lt;br&gt;&lt;br&gt;&lt;br&gt;&lt;br&gt;&lt;br&gt;&lt;br&gt;&lt;br&gt;&lt;/font&gt;" style="text;html=1;align=center;verticalAlign=middle;whiteSpace=wrap;rounded=0;fontSize=36;labelBorderColor=none;fontStyle=1;movable=1;resizable=1;rotatable=1;deletable=1;editable=1;locked=0;connectable=1;strokeWidth=3;glass=0;strokeColor=#6c8ebf;sketch=1;curveFitting=1;jiggle=2;labelBackgroundColor=none;fillColor=#dae8fc;fillStyle=solid;gradientDirection=west;gradientColor=#FFFFFF;" parent="1" vertex="1">
          <mxGeometry x="590" y="220" width="540" height="540" as="geometry" />
        </mxCell>
        <mxCell id="hjfe02iyS3ICCaawMEXU-7" value="Kubernetes" style="image;aspect=fixed;html=1;points=[];align=center;fontSize=24;image=img/lib/mscae/Kubernetes.svg;fontStyle=1;sketch=1;curveFitting=1;jiggle=2;strokeColor=default;perimeterSpacing=10;fontColor=#999999;" parent="1" vertex="1">
          <mxGeometry x="972.5" y="422" width="100" height="96" as="geometry" />
        </mxCell>
        <mxCell id="hjfe02iyS3ICCaawMEXU-13" value="" style="edgeStyle=orthogonalEdgeStyle;rounded=0;orthogonalLoop=1;jettySize=auto;html=1;sketch=1;curveFitting=1;jiggle=2;strokeColor=default;" parent="1" source="E20xWH16p2ZdOygHHQUp-1" target="hjfe02iyS3ICCaawMEXU-7" edge="1">
          <mxGeometry relative="1" as="geometry" />
        </mxCell>
        <mxCell id="E20xWH16p2ZdOygHHQUp-1" value="Argo CD" style="shape=image;verticalLabelPosition=bottom;labelBackgroundColor=default;verticalAlign=top;aspect=fixed;imageAspect=0;image=https://res.cloudinary.com/djproto/image/upload/v1652883033/dj/technologies/logo/tech-logo.png;fontStyle=1;fontSize=24;sketch=1;curveFitting=1;jiggle=2;strokeColor=default;perimeterSpacing=5;" parent="1" vertex="1">
          <mxGeometry x="753.5" y="420" width="100" height="100" as="geometry" />
        </mxCell>
        <mxCell id="hjfe02iyS3ICCaawMEXU-10" value="" style="edgeStyle=orthogonalEdgeStyle;rounded=0;orthogonalLoop=1;jettySize=auto;html=1;sketch=1;curveFitting=1;jiggle=2;strokeColor=default;" parent="1" source="E20xWH16p2ZdOygHHQUp-2" target="E20xWH16p2ZdOygHHQUp-4" edge="1">
          <mxGeometry relative="1" as="geometry" />
        </mxCell>
        <mxCell id="E20xWH16p2ZdOygHHQUp-2" value="GitHub" style="shape=image;verticalLabelPosition=bottom;labelBackgroundColor=default;verticalAlign=top;aspect=fixed;imageAspect=0;image=https://cdn-icons-png.flaticon.com/512/25/25231.png;fontStyle=1;fontSize=24;sketch=1;curveFitting=1;jiggle=2;strokeColor=default;perimeterSpacing=10;" parent="1" vertex="1">
          <mxGeometry x="97.5" y="420" width="100" height="100" as="geometry" />
        </mxCell>
        <mxCell id="hjfe02iyS3ICCaawMEXU-11" value="" style="edgeStyle=orthogonalEdgeStyle;rounded=0;orthogonalLoop=1;jettySize=auto;html=1;sketch=1;curveFitting=1;jiggle=2;strokeColor=default;" parent="1" source="E20xWH16p2ZdOygHHQUp-4" target="hjfe02iyS3ICCaawMEXU-5" edge="1">
          <mxGeometry relative="1" as="geometry" />
        </mxCell>
        <mxCell id="E20xWH16p2ZdOygHHQUp-4" value="GitHub Actions" style="shape=image;verticalLabelPosition=bottom;labelBackgroundColor=default;verticalAlign=top;aspect=fixed;imageAspect=0;image=data:image/png,iVBORw0KGgoAAAANSUhEUgAAAMgAAADICAYAAACtWK6eAAAnO0lEQVR4nOyde2wb173nj1yie/4QuqPCuBnsFST21N24aMqk67QxYHl52ExSp3WbtLERX5tFlNuUcXtTOMXm2srednmIJltVm6DOxt04vO7GQug0XicbZ6+zVeoJeLjSRR3UQl3GbVysMyW1vthJ63s1CYSLg65QLUY8tGWFnHNmOEMOqfkAgRFxHoff4W/O6/eIgQ4DUbIfInwjAOAmRSMbAQBx/l8//3c1lwEAFgDgEgDgoqWTiwCA8wCANyw9d7kDXyGih+nrxE0VLbsFIrwNIqwBAG4GAPhlqBUAALV0MsUM+iozSgs+XTdijdI2A1G07CaIcBoivAMAMNiGWzIAwJSlkwIz6CvMKC224Z4RPUagBgJRMgYRvkfRyEO8p+gUJjPoYUsnzzCjZHawHRFdRiAGYhuGopE9EOHvAAA2BHEPjzBuKD+IDCVCBt8NRNGyn1M0chAAsNHva/uIxQz6uKWTJ5hRYp1uTER48c1AIEqqaoY+BQDY4dc128AFSyd7LT1X6nRDIsLJB/y4iJop3q1o5GcAgH/jx/XayHqI8ChEeP3ifKW4OF+NJvIR19BSDwJREioa+SFEeK9P7bHstzp/s1f4nsfKpdoYAGBQ0YjK90hu8HFF7JyZxzuYUXrbp+tF9ACeDYQPqf6uxdUp+8d/ytLJFN/ou+D2AoqWXQ8A2AIR1iDC21pcFLDnJrvMfOq1Fq4R0UN4MhCIkterGap7fHvbw5iTfH/iNb8nyYqWvZHvt4zaQygv7WMGfdDMp57xs10R3YlrA1EzRfttfdLDj295iZUZ9AlLz11ye1+38OHfHojwmJdehRn0ITOfejKY1kV0C64MhBvHFPeTkmWR7z081om9B74ncy9E+FH7K7g5NzKSCGkD4cOqGZc9xxlLJ/dbeu7X3prnHxAlFUUj34MIP+jmvMhI1jZSy7x8Qj7j4g1s9xr//vKJ0a8vzE6+01oT/WFxvsoWZid/CgCg3EnyQzLnxQbi2yDC5xdmJ98KvpURYUNoIPZYXs3Q0y52xk1LJ7dfPnHf8cX56p9ab6K/MKNUZQZ9rn/TaEJ2bhIbiH8eAPA/mVEKhbFHtA+hgazfefSp2ED8S5LXO2fm8daF2cnftt604Ficr/4zM+jx2ED8w7GB+GckTvkgRHgbM+ik3RO1oYkRIcFxDqJmindDhF+UvNaMmcd3dFsMhpop/juI8OOSh79YGevbGXCTIkLEumYfQJQchAgfkbxOVxqHjZlPPWFPxCUP36FminsCblJEiGg6xBo8UPmxpG+VPay6tRuNo87C7OQbEGEYG4iPiI6NDcT/LTPos/YwrT2ti+gkDYdY3GV9SuJ808zjT7nd34AoqSoa+RpEeDuf/Cv2tfiy8Iv2/KATEYDx8aWfAAB2SRx6pDLW9/U2NCmiw7yvB4EoGVu/8+j/kNjvWLR0crvbCbmaKe5TNHIyNhDfxl1VIP+o3zYWiPBX+jeN7gYA/IYZpd+5+jYtwgz6Wv+m0S8BAP5McKjds56MVrV6n/fNQRSN7JFZ0mUG/Y6l595wczM1U/whRPigxE78BkUjenx86VmIkl78qTxhDxMtnezi8eyOKBqRndhHdDHX9CDcLeO/AQA+LDjvzOUTo193s8/BV4v+g8v23dS/afQvIcK/X5id/JXLcz3BjNIfIMIsNhC/XXAoAgBMMaP0D+1oV0RnuKYHgQjfI7F5Zg+t7nczR7DnHNwXygvrIcJH4+NLRUXLtiW+3dLJkzzXliOKRsba0Z6IznFND6Jm6H8FAPwrpxOYQf/L5RP3Tbq5yfqdRw/EBuKf9dpIThwinIEIg8X5ys+D3KXn1/4Nd5l3wjbY55hRsoJqS0RnudKDKFp2k0TwE7N08pjbm/DVKj+Adk+kZuibipa9xadrNoTHqZ8SHBaDCD8QZDsiOssVA4EIp0UH1+I5PLms3+DhHCc2Kho5o2aKT0OUVHy+9hUsnRDRMTK6RXQvKw1ElI1kkRn0CY/3EaUWPcsjDV0BEd6rZuhbaqZ4t8d2OWLpuVkAwIzgsEFFy24J4v4RnWfZQPgDFoXPngwqEtDSySFLJ/bw7oyH01WI8Ivx8aW/gyjZKNl1y20THSPxconoUpYNhCc7cMTSSSHIhlh67ldmHm/lflFe3Fa223MTNVPcB1HSt6z1zKCviNrj4xwrImTUDUQTHLfADBp4pg9mlBbNfOpJM48/bvdYHi7RDxE+qGboz/migx9tYhJt2aBoWd97r4jOsw6iZL/E6tWpdqboZEbpUmWs78vMoDt4HRC33Mwn8f+Jf7+WsHQiY6zRPKQHWceL1zgOSXjeqrZj5lMvmXn8SWbQQx4m8TGI8MN82PWFVtrBDPq66BiIcCez10cEhD3EukniOFc+V37CjJJl5lPfsnQyIrO73YA4RPhUfHzpBERJV1lNVrYBAHDO6RiIsIyOEV3GOl72zAnLS8ZDv7H03Bs113o6JuNM2IAdvDfxOhQ6K/g8zNnsIzyyrkkdwJV03Djq8En8D/gkXvdwifUQ4SlFy37C7YmWTkS9l+rHfCciXHSVgdRhRqlSGeu7jRk0zRNcu6Ff0chRD0vBF0UHQIQ9DeEiwss6UWwGz7IeSsx86piZxx8DABx1eerNEOE7XZ5TlTimHbUXI9qITA8S6tLK9gS6MtZ3n6UT7Ka3UzQiE1q7EpnNy3/h8poRIadpVpMVdEUyBkvPlfgk/lHJJWFhgoaVMIPK7MdEQ6weQ8ZAugZmlJiZT33X0skNEkvCLhNZR2Wk1yI9ZSCgFr3YzwOdRMuu0Q8+QojMSo5vjn9Bo2aKX4AIH5KYVwG3q3OKlpXpcbpiOBohT4xPwp0yh4R+ZQai5CCvsHuX7DnMoG73UWT2OP7R5TUjQs46XjizKbxgZiiBKBlTM8V9aoa+5cY4ePCXbFrVOjIviig2vceIcW9Zp2whoXTjVrTsLYq2HMzk2kmwVvHKdVGfj0ocE3hpuYj2EuM7xNjhGL/jyVtiRaWovR7nRzOWTv7a/X2xaNK/YOm5UO8ZRbhnnaUTkQvFIC+13HHUTPEeezjFy6h5MY4jPAu9a2dHCW9doStKRPcRk3Qh3wIAeKUN7WkIRMm4mqFPAwCEocFNuGjpZK+l54RxHU3ub+u0WXCYF1f8iJCzTibWQyIkNxD4JPxv+CTci3EwZtBHzTz+pFfjqLUD3yLhsyZyh4/oQtbxcbOjQ6JMUge/UbTsFjVD3+QpS6GHS1BLJzeZ+dR3Ww0Xlvz+pVbuERFO6jvpoj2BDYqWvbEN7bF7jfXx8aVnFY3MeAxCuswMmq6M9aUsPedLrUSIsMix0bL0nGPEYUR3smwglk6Em2btyCCoZor38uGUKCduM+xJ+MfMfOqYX23iKU5FSbM7ErMfETzLBsIM+qoojBUiPApR0stQRwhEeGN8fGkaInxUonBPI85bOhmpjPV93e9E0opG9oqOsXQiyuEb0aVwA1muLyh6C67nxXV8ByI85tb9nGNPwsfMPP6Upef+3v92LSd5EA2vGE8uF9GDXPHmlcmcaP+QPWYtDGKHecrM44+b+dQPgnJFVzRyQGKB4GQ3FzCNcOaKgfC3oChz+wZFI/d6uA/1cE4zLjGD7qiM9d3BjFJg4cC86I/M8MqtT1dEF3GlgM7ifPVPEOH+2EDcye0ExAbin2EG/fHifNXN0uk/+zDJX2QG/c+XT4zeY+m5X7Z4LSGDBypPSfh5nTfzKdduKxHdwzUBU5ZOnpHIOaUqGvmem5tYeu41j2l66py1dLLZzKe+3Y5qToqWTcqspDGDRoU8e5xrSrAtzlcXIMLrYwNxR7cKuxexh03MKMlk+liGGfR0/6bRtGRcRR3LnoRfPjH6wMLsZFuKZUKU7F+/8+jPeO12Jy7a7QqyFFxE5+lb/Qd77M33IkQ/kEu1JAklaQ9W7lP1smS60xfNPLZ7jLa6kMfHl56V7D1GzXzKVa3GiO7jA6v/wHuRmETRzQ/1bxpNMIMel32LLs5X7R7hx7GB+D/FBuI32NdocNiMpZOMmU99f3G++p70N/EBNVP8WmwgLlOq+uylH3zkr9rQpIgO874eBNTe9FDN0F/KuHowgx4y86lvebm5omXtnuR6vpRq90Szlp7zUgOxZdRMMQkR1mXc6O35kKXnOpbQO6J9NDQQwCeqikaklmeZQR828ymv9Qs7jqJlN/HvKpwftfJCiOg+3jfEqmNPwPmE/TOii8QG4rdDhK2F2cmue6ty4zgFAPiwxOH2xHzn4nz1j21oWkQIaGogYHnOUCn2bxrdLpNkLTYQ3wYRhguzk57jLtqNPazq3zT6M0njWLR0sm1hdlJ65S6i+2k6xKoDUfKjaoaelVjVqvOCmcdfD7v7hT0hhwgflg3dZQZ90MynfhR8yyLChGMPAmorT/MQ4XOxgfguyUyMN/RvGv0SAOB/MaP0B3+a6R8QJfsHD1Se4atVUpklmUGPmPnUd4NvXUTYEBqIzcLs5NsQ4d/HBuKy5Y7/DCL8lxBhtjhf+UVYNtMULZvkm4CO7jSrmLp8YnRPWL5DRHuRMhBQM5JZeyJuzzUkT4nZk/f+TaNfAQD8xs2uu99AlFQHD1SegggfdDFUtJkx8/jOdlb4jQgXwjnIamqF+pd/aG45aenkUUvPzXo41xO2YSgaOcC9ct0Ge83wFEGhnktFBItrAwGtGQngO+WHmEFfCerNzLMu7uXBTl6iIKfMPN4ZGUeEJwMBNSO5m4fIei1cucB7lZPMoK+34qULUTIGEb4FIryNJ1gQxZA3xZ6QWzr5RlQPJAK0YiCg9qa+UdHISZ/y957jbu3neZZCe86ywAx6qf5j5SUI+nki6Y9ChDfyjIebWzDUOovMoA9FS7kRK2nJQADPlatm6N8CAHb406SOcNHSya4g5kfcqLdAhDfz/L4beGKK1ckpLvGIzovMoOeZQc8wg76xloZ5YdSqZQOpo2aKe/i8JBR5fGVhBj1k6eQRP8VVtKzds9l63NVi8m/G52wvMIO+1I5gsXYTdq18MxDAk76pGfp9AMD9fl43IOzh3IN+euUqWvZORSMPe8zQIsL+ARQsnRz0ULohdHSLVr4aSB0+N3kcANCRnL4CLtby9foX7KRo2c8pGhmXDATzA/vh5yw913UZ5btNq0AMpA5fbh0DAGwPQa1De6z6uKWTY36tUPHSb0/z79dulhNzWzoJLO2Rn3SrVoEaSB1Fy8Yhwg/wzCbtrHnI+FLykVayuzdCzRTv4c6Obnbmg+Ccmcc7mFF6u8PtaEo3a9UWA1mJomW3QIR3QIS3t7Jf4YA9OZuydHKKb0b6urIBUTKmaOSHvIhPWFhgBt1l5lOvdrohK+kFrdpuICuxexYAwBY+WfMyJl3geybneX2OUpBZ1iFK9qsZeqKFQj5BssgjO5/sdENAD2nVUQOpI5NJhBmUMIOe56WW7V7iUjtrAvIH/tMWV11s471g6eTCqpos/RDhQb72v1kmQK0ZfLOzo0bSS1p1jYHwEmrPtK9VV6lVuqKnXbrJ29gTQt3SSYEZ9DXZFEl8b+BuPmdzXSOlk0bSa1p1jYHYk+3KWN+X29Ska4iPLz0HAHCTOnWRLy8+1upSrKJlb1U08h2XPzh7CHFXJ+YkvaaVVERdSNgGUbLtqyBqprjP5QOnlk5uqIz13efHPoWl516vjPWl7Imliyz5MYjwCxAlZWq7+0YvatVNBgI9Zpb3jKJlb4QIy+bfXXZ29LP020rMfOq4mcefAgDIFuux5wEveixX4Zpe1aqbDKRenySQKlfvv9fyEuVRyQ3OBWZQLehxvz0ur4z1fZEZ9FHJU25SNPI3QbYJ9LhWXWUgPLN8W1J+Khp5QHLp2bJ0MmLmU22rclur3EsfkjnWfqkoWjaI/aYr9LJW3WYg9pf4DkTJQHfj7bkOLz8tgjGDbrf03K+CbE8j7Dew5NsRui1X4YZe16rrDMR+YakZ+myQY2tFI/tk3CKYQfea+ZTvtRFl4amIZMbZuxQt+4kg2tDrWnWjgdhoikayQVzYnuPIlF4DABTCUP7AzOP7ZFZsFI1IDTPcsBa06lYDWR5q8WVFv697p8TurGXm8bf9vrcX7MkoM+jDEoem/V4mXwtada2BgNoDOui3kSgaEQZ71dxe5AsHuaW2G13cFx9f+ml8fOmt+PjSCUXLbml2vJlPHZcolGq/7e/2s51rQauuNhBw1Uj+1o85CUTJ9RK7sCav5RgI3I/pNA9f3sbdJ3YoGqFqpvhAs/MsnQgnoYpGRDXf3bRzTWjV9QYCakZyv5qhv1C07I0tXudW0Vo+M+iRoPJ5rXDya/TDi9k/BEXLNlzB4/EuFwS3GLHv4U9b14ZWPWEgnJsUjZxVM8WnIUp68vBUNCL04WEGDWSyKekBCwEATYdJzKAF0W0gwrd4b+VV1opWvWQggL859qoZ+rv4+NJzvJyzGxyr+9biTvyPA3fpHt50os0M+pL4Xlj0HWVZE1p1Ok48KOy3R1rRiP3fZe5GfYZ3q29zD9JGOKadYQZtpdZ744a6j51oOjSw9NwFRSOm08oST7TnB2tCq24xEMoMeg4i7GUtf31t86f1CSozlgsJOaJo2Rv4Pc+LAro8PPBLzKCvCI6xXwR3OXy+Iz6+tCR5P8/0iFbxbjEQYOZT31YzRQsiTDrYjKaepzyDy5GVb1ZFI02rbXl44AuWTnaIJr3MoBcgchurFAi9oJXaVXMQM5/KMYNu5yG3naDhW07RshsUjegNhh277Ae7euXIywNnBt0mk+SOGVQ2DiJoekGrwa4yEFAzklfNPP6kC19/37D0XKXR37mbdLPl05GVD97rA3fhxxSKXL69olXXGQiouQxc4r7+biLHgkS0orP84BUtqwb8wLuBrtKqKw2kDo8c+xj39w/cUBQt2ywxt0y2vhFFI7/r9ANvF72iVVcbCKj1JszMp5408/gj9sQMAHBS8iF4odlDn5E8XzYaspUH7ketFj/oBa2srjeQOswoLVp67qXKWN+XzTwesPTlZd3DPL+SXwbTMLDfzOPHeL0KP2jpbahoxHXqm4DoBa3MrlnmdQMzSgvMKB239NxxcLVE2wa+KfTnzXyIeFx1U2qbbLn3pYex50RmHmM1Q2kricx8GiqIHvpZSyeHWrj+MmtEq4vdkheLVsb6Um1ox+8E3a5eGeu7rdmHECWvb+HBt/zAeX2WPzgdwwz6uJlP/bXXe9RZK1r1zBDLJ0R5fR29YZlR+q39dvQwhPBlkgkR/pzoGGbQM63cYwVrQqvIQFZg6aTloCMPD963FRhFIzJJ23xZ6VkrWkUGci2viQ5QNCJM5e/iwfv4wJfT1Ygqep239JxfE+Q1oVVkICuw9NwFXk7BiZtl3OglHrxp5vHNfq3d8x1qUQDTST/uBdaQVpGBrIIZ1HF1BtQElkqxueLBr/ZsvWD/3f7cc0OvaU/2epmcuMygx/y434rr9bxW0SrWKhQtO8h3cUVvmAfNfOpHLq57M98beNvSc0JXcDfEx5eKEvHhM5Wxvq1+3nctaBUZSOP2yKTwX7B0srnTJZnVTHEfT1rgiKWTuyw9J4qPcE2vaxUNsRpg6cvDAtHue7+ikRf9SoLgBTVTTEpmVD8XhHGANaBVZCAN4PljRUH9NhsbxTC0A0XLfgIifEomo7qlL5fiDoRe1yoykCaYefyIZGDWSLsfvJopblE0MuMQV7GSU5aeEy7JtkIvaxUZSBOYUTJl0+bzB/+LoBJEr0TNFO+FCOuSNcctM4+/EXSbelmryEAc4AmXZfcONioaOaNmioHUL4Eoud6eEEOEj8q6gjOD7mVGqS0BZb2qVWQgAsw8/qpEFr46/RDhQ/HxpV94yMnVEIiSUM0U96kZ+r/d1P9jBj3E89C2jV7UKlrmlaAFz9Nl13Jm0JcaZetwQtGyGyDC9hDhfg/3nTLz+IvMKAUVONaUXtMqMhBJeKoaXXKytxoGAJhhBl3O78WT112u54LiOWTtB3s9RPhmiLAmSszmwIyZx3e4/ZH5SS9pFRmIC/iDP9lioE+QdNw46vSKVtEcxAWWnnuD+wvJjrPbScHM41QYjAP0kFaRgbiEO9V92sWKTdDUa45/tRNzDid6QavIQDxgv3kqY31fZgYd7WCWR1BziyA3B11zvBW6XavIQFrAzKcmzTz+OADgaICphhph1Txk8ac7UVbZC92qVWQgLcKMklkZ67vPfjtxn6QgH/5lZlBi5vFHzHzqR2EbUonoRq2iVSyfUbTsIF+Tt7/PBh8uaT9YaunkKN8jCKSkWSfoBq0iAwkQRctuBAB8jpcru0ky66H9kM8DAM5YOqHMoK8HWSU2LIRVq8hA2ghEyX6IcJyn5bxuhZ+QPXl9FwBQaZYVfa0RFq16MrNiWOEZH893uh3dQFi0iibpEREORAYSEeFAZCAREQ5EBhIR4UBkIBERDkQGEhHhQLTM20bCsrbfDQwlkv1DCWetZgrRPkhX42V3WNHImtxJH0nXtNqaltdqa/qqVtMFQufK9PW5crSTHmoC9C86wgz6Si/5Yo2ks4NDCXzvcMJfraYL5Mhcmb4yV+4dX6ynAABOtSQuVsb6PtbGJrlG0bI3Khp5GACwK8Ce2WQGPWzp5ElmlDoZW9ESI+nsjVvTwWtVLdPDMwXy5FzZu1Yf8LdNnknw4PtmfIgZ9PuL89U/tbFNUkCUVAcPVJ6CCB/iQ4MgFz76YwNx3L9pdC9EeGFxvvLLMGrSjKFEUv3mZOWp4UR7tFKui+PEbaN7hxJ44d13Kr989x33WoXCQCDC9rBkh8Mh6xbnKyeYUfp9G5slRM0U71U0cgoAsLnNK4IwNhD/fP+m0S/Z429mlN5p4709sXuieO/WdGe0Uq6Lfz5xW02rubI7rcKyzCtTHGVLG9ohBUTJ/vj40ss8c59MWsuguEnRyFk1U9zXwTY4MpRI9j8ytfTycKLzWm1Nk7O7J9xpFQoDYQY9z/MhNYWvBHUcnhjtFwCAuzrdFk4MInywlmozGapVyaFE8vo9E+HSajiBDz4ytfTcUEJOq5AYyHI4pKg88XaIklJ5VoNC0bK38KyBogL0nSCtZujpTtbgWMlIOnvLnonwarVngp62ezfRgaFYxQK18XwWIkycjrF0ssPScy+1r1VXCThbYH1DrCcyK9rGsTXdmlbVMqVz5atazRRqWo2kr2o1lMA3Dyda0+rYfnzHXDnkmRXB1R+gqBfpyH5Ir+WbDRI+rPKk1XSBHJor05ecfrCNGElnN/D9FE9aHduPvzhXDnFu3jrx8aX/AwAYdDrG0slN7Ux1Yw9Z+JzDzVDBNoyHLT1X8uH+UNHIA7x3lZ7k8ozl32r1/m6whyx8zuFKq+kCeXim0LpWQ4kkHEmTB4YT7rSqlumh5/c31ipUBqJmit+DCH9HcJheGeu7rU1Nso32ZReTzAVm0DE3FV1lgSi5Xs3QH7pM67+rnSUQHplyp1W1TMee3++/VkOJ5Po9E+60qpbpruf3v1+rUEzS6zCD/lgiV5KmZopfaEd71EzxXhcP/IKlk81BGAeoLWRcrqXMXM5QKOVCARE+DFHSsUf2i90T7rSaLpDNQRiHzVy5dPn72/q+Wi3LazWcwIeHEu/XKlQ9CJB/Y18y8/iTQbpbQJRU1Qx9S7KrbuvEWM0Ut/CilDJtO1UZ6/tikO0ZSiTVPRPyWokmxn6ye6K4ZTghr9X3t12rVSh20ldxASK8V3DMh/o3jcaDXNEaPFB5iu/6imj7qtHC7KQ9V5uCCNtDiA8KDv/XfLf97aDa881Jea3aaRw2b56uaTWckNdqrnxVq1ANscDVssIy2cB3BbWDrGjZGyXHrxc6taRq68QMul0mfaeikfGg2jGSlteq3cZRZ6aQ+1W1LKfV1vS1WoWxB7GZhQhnRJ6esYG4BhH+zcLs5Ft+3lzN0Me5M50TC5ZObl+YnfwHP+/thoXZySpE+L3YQHyb4FAVAHCOGSUZlx5X7JmQ02q6QG5/83TntHrz9GR1KIHfU66T02quXNMqdD0IqL0dLzKDyrz1YhDhF9RM8W6/7s1LfO0SHccMOmbpuV/7dV+v8HT+VHQcd8X3lZG0nFbVMh2bKXReq+f3y2nFXfGXCaWBgNp+x2O2JUscWjeSr/lxX4jwvRIxCmeDWq3ygqWTvRLDhxEe4egbQwk5rYJarfLCdEFOKx7hGF4DYUZp0dKJPbaVGbPaRnJEzRSfatVfi0cCOmLp/r+NW8HSc7/l5QQcgQjv8fO+PBLQkelCuLSaKchpNZSoaRVaAwG1B/9rZlDRitYVIMIPqhn6c0XLbvJyP/6GFYV+nvVjh9xveI/r+GaECPvmVcvfsEKt/Ngh95vpglir4URNq1AbCKiNsY8xgz7q4pSbFI2cUTPFpyFKuvXL+ZzoAEsnh1xesy3Y8zYAgC447AZFy/pVdVao1XQhnFrNFOS0Gkln1dAbCKgZyXeZQY+4OMUecu1VM/R3aqb4Q9mxt0TMCWMG7Yg3sQyWToRDB78Cz3j2ESfYXDm8Wk0X5LTqCgMBtYf/DQDACy5PgxDhhxSNvBUfX5pWM8V9AmMRLVfOhKXMciOYQV8THQMRltnQk0GoVSf2PGSZK4u1GkrgzaGKQHPCnrRXxvr+Qs0UTftH7+ESIxBh+z+7p7hc212mF5lBTbuT4sc45mJiBhUuEQLuVTqUwEm+pm7OlWnJbQqaoURS5deAAIDZmUJOWCuD58865/TjhQi7WskaSWfXc11Wxnb8uUirallOq07B82c5ajWcwBu7xkDqmPnUt9VM8QLPIuK1/etrEYrY/sFIn8SDnRzhwUIvrnLbvzRdIDtmCrk3ZO6ze6J4gLtsX1mR25omp47tx38h8Va+IHi7S+Wf4v5VzwIARBtrDeHBTmFHqFXXDLFWYuZTz1j68hi43Wk6Hf2Z7B/V1jSZahDTMmj/3f5cdIPdE8U9wwk8vtI4ONv3TNCfiM63dHJBcIiwDTyuo+jVODiB+X75xXRBrFVXGgiordr8vZnHn+J1t9uFY1rLkTT5KwevUYV/7gjvOZqxfSSdFYWXil4aQq9W3s5WNxW7IV2qUKuuNRBQG3NbvO72iOSue0vUY8ibMZxwngCLPueZNkRDIE97PG4YTuCRVq9RjyHvdrraQOrw3uTTPJjoYgebIpofOH7O46JFbhA9k5u3G+gJAwF8lcvMpyYrY30fs3RyFwBgSsa92Q08+0hTqmU61crnHKfVHzZXpqKd6ZbT/lTLdKbVa/DsI2FHqFXPGMhKLD33SmWs7w5LJx9hBn2I75r68eZd7/ThTIH82P6n2cf8c0e471LDnqZapmSuXDKdzocIi0JsL4naMFMgP+IrPK3gqFUYGEqItepJA6lj6blLZj71ZGWs7zYzjwcsnWDuaHiU/5ArLg3neqcP7SHSsf34jmqZHlzxI1+w/58HCwl7tJlC7lfTheU5lb6iB7xYLdP08/tTPxCdL7HP4Whg/HssHNuPU7wX9oqjVmFgOCHWKnQx6Z0kPr70/5z2VphBD5r51Lfb2yp3xMeX/q9gKffFyljfTtnr8Y1CZeVwda5MrT0T9A9OWtkvhef3h1urR6bEWnXdRmHAnBfsQjuVaOg43I3GcZ9DZrNzJXw1qtGKlKNWPONhaOHeyI5aVcv0XE8PsTwgyux4g6Jl/aiEFAgQYWFkJTOo6DvKItRqJB1erYYSYq3myvRMZCArsHQi9B/iEYehhGc5cYIxg0q5u4iYLoi14hGHoYRnOXGCzZXpG5GBrIAZ9HWJoKP7O51lvhGKlr1VYvfbN2/kubJYq+EEvn8oET6tRtJyWs2VSwuRgayAe8OK3oyqopEH2tQkaRSNiFK22j2k23CBpnBvWKFWI+nwabU1LdZqulDTKjKQVVg6Efp2QYQJRMnQrPOrmeI9AIC2B3tNF8RaDScwGUqER6vdE3Ja1YO9IgNZBf8RifYKFJ5IuuPYhgoRflzi0ILfqVr5j0ioFU8k3XFsQx1OyGlVr4wbGcgqmFGy37SHJQ5N8+TWHUXNLMdsCBNUWzo56Pe958olVi3LacWTW3cUHt8i1Gq6cFWryEAaYOnkSfsf0XEQ4cNqptix4qJqpvg9AMB2iUNfCCrJ3UxBTqvhBD68e6JzWu2ekNdqZZK7sKYe7SiL81UGEV6IDcQ/Lzg0FhuIfwUAMNXuUsxqprgPIvwfJQ5llk52MqP0T0G04913qmwogReU68RaKdfVtHJbirlVdk8U9w0n5LSaLpCdc+WrWkU9SBMsnTwjGWOiKBqZUTPFZBuatQwvNCQ1ZGIGHecpgQJjpiCv1dY0mdk90T6t7J5jOCGnVbVMx3lKoCtEPUgTFuerfwIAnOE1AkUvkg/GBuJpiPB7C7OTvmzENcKekA8eqByPDcTvlzzl3OUTo1/l3yUw3n2nphWvESjUSrkunh5K4PfePB2cVvaE/JuTlePKdfJavfrE6Ff5d7lCZCAO2MMmyezpNuvs43hurTPMKP2jn21RM8V7FI38dwDAzZKnLJh5/Fm/29EMe9gkmT3dZp19HM+tdWau7G8bd08U79madqfVsf34s43aEXnzShAfX3rOTb07vsNcsHTyWKvDG0XL3so3AeXTrwCwyAx6l5lPvdrKvb3wyJQ3raYL5LHVwxu3jKSzt/JNQFdaVcv0ruf3N9YqMhAJIErG1Aw97VJ4wB++bumkwAz6Gt+pF6Jo2Y0Q4bu5b5Xr5AnMoA/xsghtZyiRjO2Z8K7VdIEU5sr0Nb5TL2Qknd04lMB3c98q11pVy/QhXhahIZGBSMLLQf/UfiYtXOYcL/Z5YVVGjX6I8CAPdtrsodb3FTppHHV42iBftOKpea7RaiiBB3mwU0taiYwDRAbiDm4kJ1rMFxUU9rDq4U4bRx1uJKHVqlqmD4uMA0STdHcszlf/yAx6PDYQ/3BsIP6ZTrdnBQvMoDvMfOq5TjekzrvvVP84V6bH/+V18Q8r14VLq2qZ7nh+v5xWUQ/iETVTvAcifFiyvHCQnDPzeEeQVWxbZfdE8Z7hRDi0OrYf71hZxVZEZCAtAFFyUM3QpyVdGPyG1TYByWPMECeD6DRDieTgnonOaVXbBCSPySTOWEk0xGqBxfnqe5ae+wnfULyhlQmjS16wdLLz8on7Xg56E9Av3n2n+t5MoabVcKK9Wk0XyM5Xn7jv5dWbgDJEPYiPKFr2Tl5NtuXUnQ1gfG/lYBiq67bKSDp7J68mG5hW0wVysNXqupGBBADfx9jDawKKkk07YT/oGUsnLzCDvuR3PEcY4PsYe3hNwJa1mi6QF+bK9KV6PEerRAYSMLwm4BaI8Ga+z7GBDy9WT1gv8eCjCjPoOWbQM8ygb4S5opXfjKRrWg0l8Ga+zyHUqlqm5+bK9Mxcmb4RREWr/x8AAP//mC6b1mgHT/IAAAAASUVORK5CYII=;fontStyle=1;fontSize=24;sketch=1;curveFitting=1;jiggle=2;strokeColor=default;perimeterSpacing=5;fontColor=#999999;" parent="1" vertex="1">
          <mxGeometry x="316.5" y="420" width="100" height="100" as="geometry" />
        </mxCell>
        <mxCell id="hjfe02iyS3ICCaawMEXU-2" value="" style="edgeStyle=orthogonalEdgeStyle;rounded=0;orthogonalLoop=1;jettySize=auto;html=1;sketch=1;curveFitting=1;jiggle=2;strokeColor=#82b366;fillColor=#d5e8d4;strokeWidth=3;" parent="1" source="E20xWH16p2ZdOygHHQUp-5" target="hjfe02iyS3ICCaawMEXU-1" edge="1">
          <mxGeometry relative="1" as="geometry" />
        </mxCell>
        <mxCell id="hjfe02iyS3ICCaawMEXU-4" value="" style="edgeStyle=orthogonalEdgeStyle;rounded=0;orthogonalLoop=1;jettySize=auto;html=1;sketch=1;curveFitting=1;jiggle=2;strokeColor=#6c8ebf;fillColor=#dae8fc;strokeWidth=3;" parent="1" source="E20xWH16p2ZdOygHHQUp-5" target="hjfe02iyS3ICCaawMEXU-3" edge="1">
          <mxGeometry relative="1" as="geometry" />
        </mxCell>
        <mxCell id="E20xWH16p2ZdOygHHQUp-5" value="&lt;font style=&quot;font-size: 36px;&quot;&gt;Continuous Delivery&lt;/font&gt;" style="text;html=1;align=center;verticalAlign=middle;whiteSpace=wrap;rounded=0;fontSize=36;labelBorderColor=none;fontStyle=1;sketch=1;curveFitting=1;jiggle=2;strokeColor=#d79b00;strokeWidth=3;fillColor=#ffe6cc;fillStyle=solid;gradientColor=#FFFFFF;" parent="1" vertex="1">
          <mxGeometry x="346" y="40" width="478" height="100" as="geometry" />
        </mxCell>
        <mxCell id="hjfe02iyS3ICCaawMEXU-14" value="" style="edgeStyle=orthogonalEdgeStyle;rounded=0;orthogonalLoop=1;jettySize=auto;html=1;sketch=1;curveFitting=1;jiggle=2;strokeColor=default;" parent="1" source="hjfe02iyS3ICCaawMEXU-5" target="E20xWH16p2ZdOygHHQUp-1" edge="1">
          <mxGeometry relative="1" as="geometry" />
        </mxCell>
        <mxCell id="hjfe02iyS3ICCaawMEXU-5" value="Docker Hub" style="shape=image;verticalLabelPosition=bottom;labelBackgroundColor=default;verticalAlign=top;aspect=fixed;imageAspect=0;image=data:image/png,iVBORw0KGgoAAAANSUhEUgAAAOEAAADhCAMAAAAJbSJIAAAAbFBMVEX///8kl+0AjuwVk+yIwPQlmO0AkezL4fl8uvP4/f/l8fwble0LkuxutPKRxPSu0vfN5fqhzPZir/Hr9v0Aies2nu6/3Pnk8PzD3/lIpO/b7PtfrfFUqfC11/hxtvKbx/Xy+f7V5/oAheqnz/aG6m7HAAAGE0lEQVR4nO2dfX+qIBSAE5S0Q7YyWy9W7vb9v+NV2+5aHpyYBHTP8+eYL88P5cABaTIhCIIgCIIgCIIgCIIgCIIgCIIgCMIdstUcJbF9Y6PxzjjK6xjOWIBChv5Ahv5Dhv5Dhv5Dhv5Dhv5Dhv5Dhv5Dhv7z+obva4HBXscwmb6h2L4vgvCT7RRjWzcZe7Rouq+KEvywqW0bhARvFNdZVRYztL0MJ8q2VDjYliZ4YGO1YcixIp5OvIqHZEiGZNiD7chKd9g3nK4PRmveumESAOcm46h1w1N1EWhirCFsG26vJxKFsSfVsmH1jH6eNcoM2DWXsGv4fQmAvQG9iW3DH6cRHyYELRuebq8AwkgtWjXMxI+DQc5ezTC9uwBEBlpUq4Yc7s9dvJbhRrSOF+OHfpuGc+T8bPQG1aJhgp4+Gt1wja4xbAxjgRWJ2nCMtYlv7Ye0QqZjG55ijFNZlS3QovhYFWX4YbGO4Rmtw+vj8xoU9y3pFYht39ho4IJVe/oqlThDX8Pgsyl7BbYqQwj0T7bkEQKcqqJEYEVR86SEgBVdowV62DVarAKsTC7ubmohFYaB0J+kW0rAmNeGDC36jIdY0Wc8xIoCaAzRw8S94X2n9OYx1e/YLPHQ3dThqBH/aog2Ia06jJWGQf4ahvi/fV/df8OD2lBoZxd9M6z+t9xPj4vl+XxeXjYfvw+MfTOEPKinLqWsu7pSCMby+Nip6Zth0C6qRPNU/Xo6aYiNDrvhbKXKVTlp2BEtlHBVDsBJQ/ymfoMHGw3DuVVDJEvTBxAF0uY4afg+zBBPyDlpOIGOxrQLrGPupmFHt60TrNfqpqF6+NSJOHpjmCkykt3g42M3DTt7NUrkxSNDZR6jA8BTso4aTvJ+VreIJSborOGAoK9I+p/XDGG9qg3/YEXsT5PVxw9rVl/ihzUr2Qv8MOz90X4TmeEFVKOj2zdtutIesdhpRkTQT1FZZBoK3YgPwsQ8vwmy6fkQCO3BE7DvBFXoLvEhF0zwAb3uW8G9YvrSAaC1OKG3IL+Z/z4O69I6DY9u30H1jIC3sJ/TpkNyPE4j8rtB79ChpZuAyFsjwt3LGAKXbIVMYuT+G0ItJ1g0P5ZYRI1s398jgJRCyigvwsv2XdVnsH2TjwDVgOf3RTm27/IR+k0d+vyU9lvW5rEhnmdqMSD94QiKPFMLf+Nh3+VQhe0bHUzfRRhzX+uQ912W6G3PWyhD/B2pp3XIVz0FJxdP65D1rcKh88e2aXLw/fjw07D3W9j6nMgTdNZ3J8iaIvfRWt69s323A9D7zsLDgAigIzi5+JcwRdcfqMG/t3EZ2GkJqiZ2HYbpfiDr2wixd5f7H6Ff4QL0dyrwrN82YHa+9MoQ+ndIv/EpkQG8HGA4bAGuHYatINn7Ey/029Er/uRMh64g8WYeWDvWf7H3pDUV/ZLcGH50a/onn9osfRhfQP7AVh8+BH2QD322vXK/rWGP7crr/iCR6Y1627jec3t8pxbHBxhySH/7DqcDxijbCblcibqJGQXuViJ/JBDesHV1hDGW4MDvbswznqByOye7jChYDaIc7J3KcTdlc28kLA6jCk4+XHtOxejbQIVuPafMwBZJTq2n1Zxi6sdMOqPIAzP7zG5ceRXNbYecOtE/BROv4Bf624iMDxdGP47cWVcURWlScJJYblDhgbRoT8rIpqLYPeHTSIuKoPjCfHTF3M67CKx41l6WiZXmRkbonkCGWD09LnJ2fqJfRfrc3g2IuHyuYJ24eV57A+xg6NcOOsmKJz2p3I5fzfkZ1cjZ3JZfxftOGHaUMrS82fGCG4wbXEQX+79rlYSmqlGyuSO/1JnF+vtS/AoXu0tp2+ybTH9vkS5Asjy12LqglMt8nIoELmRxcXNnlbeTeFSSSxbEm9K2SQebOR8qWdUdy0/d2986QTJNc6G5ZUwlJ/gh3fizyX+5TQtggv/iCVDvXMxEvjpv3K+6NrPtMi4i/rULM/zbNYdLKeu/8mg3Dy/Tvf2I/hDlbL89XpZpveXR/HSK4zA8XxbH7ccs89yMIAiCIAiCIAiCIAiCIAiCIAiCIP5D/gKorpkSaxqInQAAAABJRU5ErkJggg==;fontSize=24;fontStyle=1;sketch=1;curveFitting=1;jiggle=2;strokeColor=default;perimeterSpacing=10;fontColor=#4B95E6;" parent="1" vertex="1">
          <mxGeometry x="535.5" y="420" width="100" height="100" as="geometry" />
        </mxCell>
        <mxCell id="ItDB2ArHug9DWcv7hAFn-1" value="&lt;font face=&quot;Tahoma&quot; style=&quot;font-size: 36px;&quot;&gt;&lt;i style=&quot;&quot;&gt;Stacks&lt;/i&gt;&lt;/font&gt;" style="text;html=1;align=center;verticalAlign=middle;whiteSpace=wrap;rounded=1;fontSize=36;labelBorderColor=none;fontStyle=1;gradientDirection=radial;glass=1;shadow=0;strokeWidth=3;sketch=1;curveFitting=1;jiggle=2;fillStyle=hachure;fillColor=#fff2cc;strokeColor=#d6b656;" parent="1" vertex="1">
          <mxGeometry x="394.3" y="620" width="382.4" height="80" as="geometry" />
        </mxCell>
      </root>
    </mxGraphModel>
  </diagram>
  <diagram name="Architecture" id="r5XwFDg-SgLXtiL2edFf">
    <mxGraphModel dx="1303" dy="756" grid="1" gridSize="10" guides="1" tooltips="1" connect="1" arrows="1" fold="1" page="1" pageScale="1" pageWidth="1169" pageHeight="827" math="0" shadow="0">
      <root>
        <mxCell id="0" />
        <mxCell id="1" parent="0" />
        <mxCell id="BZeSTdEQzQxEG6EipwHJ-25" value="" style="shadow=0;strokeWidth=2;rounded=0;absoluteArcSize=1;arcSize=2;movable=1;resizable=1;rotatable=1;deletable=1;editable=1;locked=0;connectable=1;fillColor=#dae8fc;strokeColor=#6c8ebf;glass=1;gradientColor=#D4E1F5;sketch=1;curveFitting=1;jiggle=2;" parent="1" vertex="1">
          <mxGeometry x="620" y="140" width="520" height="580" as="geometry" />
        </mxCell>
        <mxCell id="BZeSTdEQzQxEG6EipwHJ-1" value="" style="image;sketch=0;aspect=fixed;html=1;points=[];align=center;fontSize=12;image=img/lib/mscae/Kubernetes.svg;" parent="1" vertex="1">
          <mxGeometry x="713.5" y="176" width="50" height="48" as="geometry" />
        </mxCell>
        <mxCell id="BZeSTdEQzQxEG6EipwHJ-3" value="" style="editableCssRules=.*;html=1;shape=image;verticalLabelPosition=bottom;labelBackgroundColor=#ffffff;verticalAlign=top;aspect=fixed;imageAspect=0;image=data:image/svg+xml,PHN2ZyB4bWxucz0iaHR0cDovL3d3dy53My5vcmcvMjAwMC9zdmciIHhtbG5zOnhsaW5rPSJodHRwOi8vd3d3LnczLm9yZy8xOTk5L3hsaW5rIiB4bWxuczp2PSJodHRwczovL3ZlY3RhLmlvL25hbm8iIHdpZHRoPSI3MTguNjM1MDcwODAwNzgxMiIgaGVpZ2h0PSIxMDYuNjUwMDAxNTI1ODc4OSIgdmlld0JveD0iMTAgMTAgNzE4LjYzNTA3MDgwMDc4MTIgMTA2LjY1MDAwMTUyNTg3ODkiPiYjeGE7CTxzdHlsZSB0eXBlPSJ0ZXh0L2NzcyI+JiN4YTsJLnN0MHtmaWxsOiMzMjZkZTU7fSYjeGE7CTwvc3R5bGU+JiN4YTsJPGcgY2xhc3M9InN0MCIgZmlsbD0iIzMyNmRlNSI+JiN4YTsJCTxwYXRoIGQ9Ik0zMC4xMTUgNjkuNGw2LjA3NS02Ljc1IDYuMjEtNi44ODUgNS41MzUtNi42MTUgNC41OS01LjRINzYuNDJMNjIuMzggNTkuNTQ1Yy00LjUgNC45NS05LjQ1IDEwLjA4LTE0Ljg1IDE1LjM5IDIuNyAyLjQzIDUuNDkgNS4zNTUgOC4zNyA4Ljc3NWExOTEuODYgMTkxLjg2IDAgMCAxIDguMzcgMTAuMzk1YzIuNyAzLjYgNS4xNzUgNy4yIDcuNDI1IDEwLjhzNC4xNCA2Ljg4NSA1LjY3IDkuODU1SDU0LjI4Yy0xLjQ0LTIuMzQtMy4xMDUtNC45MDUtNC45OTUtNy42OTUtMS44LTIuODgtMy43MzUtNS43MTUtNS44MDUtOC41MDVhOTguMDcgOTguMDcgMCAwIDAtNi42MTUtOC4yMzVjLTIuMjUtMi42MS00LjUtNC44MTUtNi43NS02LjYxNXYzMS4wNUgxMFYxMy4yNEwzMC4xMTUgMTB2NTkuNG0xMTcuMjI5IDQyLjkzYy0zLjQyLjk5LTcuODMgMS44OS0xMy4yMyAyLjctNS40LjktMTEuMDcgMS4zNS0xNy4wMSAxLjM1LTYuMDMgMC0xMS4wNy0uODEtMTUuMTItMi40My0zLjk2LTEuNjItNy4xMS0zLjg3LTkuNDUtNi43NS0yLjM0LTIuOTctNC4wMDUtNi40OC00Ljk5NS0xMC41M3MtMS40ODUtOC41MDUtMS40ODUtMTMuMzY1VjQzLjc1aDIwLjExNXYzNy4xMjVjMCA2LjQ4Ljg1NSAxMS4xNiAyLjU2NSAxNC4wNHM0LjkwNSA0LjMyIDkuNTg1IDQuMzJhODIuOTUgODIuOTUgMCAwIDAgNC41OS0uMTM1bDQuMzItLjU0VjQzLjc1aDIwLjExNXY2OC41OG02NC41MDktMzMuNjE1YzAtMTIuOTYtNC43Ny0xOS40NC0xNC4zMS0xOS40NC0yLjA3IDAtNC4xNC4yNy02LjIxLjgxLTEuOTguNTQtMy42IDEuMjE1LTQuODYgMi4wMjV2MzYuNTg1Yy45OS4xOCAyLjI1LjM2IDMuNzguNTRhODUuNDQgODUuNDQgMCAwIDAgNC45OTUuMTM1YzUuNDkgMCA5LjYzLTEuODkgMTIuNDItNS42N3M0LjE4NS04Ljc3NSA0LjE4NS0xNC45ODVtMjAuNTIuNTRjMCA1LjY3LS44NTUgMTAuOC0yLjU2NSAxNS4zOS0xLjYyIDQuNTktNC4wMDUgOC41MDUtNy4xNTUgMTEuNzQ1cy03LjAyIDUuNzYtMTEuNjEgNy41NmMtNC41OSAxLjcxLTkuODEgMi41NjUtMTUuNjYgMi41NjUtMi40MyAwLTQuOTk1LS4xMzUtNy42OTUtLjQwNWExMTUuMzkgMTE1LjM5IDAgMCAxLTcuODMtLjgxYy0yLjUyLS4zNi00Ljk1LS43NjUtNy4yOS0xLjIxNS0yLjM0LS41NC00LjQxLTEuMDgtNi4yMS0xLjYyVjEzLjI0TDE4Ni40NzMgMTB2MzUuMzdjMi4yNS0uOTkgNC41OS0xLjc1NSA3LjAyLTIuMjk1czUuMDQtLjgxIDcuODMtLjgxYzUuMDQgMCA5LjQ5NS45IDEzLjM2NSAyLjcgMy44NyAxLjcxIDcuMTEgNC4xODUgOS43MiA3LjQyNXM0LjU5IDcuMTU1IDUuOTQgMTEuNzQ1YzEuMzUgNC41IDIuMDI1IDkuNTQgMi4wMjUgMTUuMTIiLz4mI3hhOwkJPHVzZSB4bGluazpocmVmPSIjQiIvPiYjeGE7CQk8cGF0aCBkPSJNMzY5LjQ2NSA2MS41N2wtNi4zNDUtMS4zNWMtMi40My0uNTQtNS4wNC0uODEtNy44My0uODEtMS4yNiAwLTIuNzkuMTM1LTQuNTkuNDA1LTEuNzEuMTgtMy4wMTUuNDA1LTMuOTE1LjY3NXY1NC4yN0gzMjYuNjdWNDcuNTNjMy42LTEuMjYgNy44My0yLjQzIDEyLjY5LTMuNTEgNC45NS0xLjE3IDEwLjQ0LTEuNzU1IDE2LjQ3LTEuNzU1IDEuMDggMCAyLjM4NS4wOSAzLjkxNS4yN2EzOS45IDM5LjkgMCAwIDEgNC41OS41NCA0MC45MiA0MC45MiAwIDAgMSA0LjU5LjgxYzEuNTMuMjcgMi44MzUuNjMgMy45MTUgMS4wOGwtMy4zNzUgMTYuNjA1bTE0LjE1OC0xNS4zOWMzLjQyLS45OSA3LjgzLTEuODkgMTMuMjMtMi43IDUuNC0uOSAxMS4wNy0xLjM1IDE3LjAxLTEuMzUgNi4wMyAwIDExLjAyNS44MSAxNC45ODUgMi40MyA0LjA1IDEuNTMgNy4yNDUgMy43MzUgOS41ODUgNi42MTVzNC4wMDUgNi4zIDQuOTk1IDEwLjI2IDEuNDg1IDguMzcgMS40ODUgMTMuMjN2NDAuMDk1aC0yMC4xMTVWNzcuMDk1YzAtNi40OC0uODU1LTExLjA3LTIuNTY1LTEzLjc3cy00LjkwNS00LjA1LTkuNTg1LTQuMDVhNDEuNjYgNDEuNjYgMCAwIDAtNC41OS4yNyA1MC43NyA1MC43NyAwIDAgMC00LjMyLjQwNXY1NC44MWgtMjAuMTE1VjQ2LjE4bTc2LjI1NCAzMy42MTVjMC02LjMuOTQ1LTExLjc5IDIuODM1LTE2LjQ3IDEuOTgtNC43NyA0LjU0NS04LjczIDcuNjk1LTExLjg4czYuNzUtNS41MzUgMTAuOC03LjE1NWM0LjE0LTEuNjIgOC4zNy0yLjQzIDEyLjY5LTIuNDMgMTAuMDggMCAxOC4wNDUgMy4xMDUgMjMuODk1IDkuMzE1IDUuODUgNi4xMiA4Ljc3NSAxNS4xNjUgOC43NzUgMjcuMTM1IDAgMS4xNy0uMDQ1IDIuNDc1LS4xMzUgMy45MTVsLS4yNyAzLjY0NWgtNDUuNjNjLjQ1IDQuMTQgMi4zODUgNy40MjUgNS44MDUgOS44NTVzOC4wMSAzLjY0NSAxMy43NyAzLjY0NWMzLjY5IDAgNy4yOS0uMzE1IDEwLjgtLjk0NSAzLjYtLjcyIDYuNTI1LTEuNTc1IDguNzc1LTIuNTY1bDIuNyAxNi4zMzVjLTEuMDguNTQtMi41MiAxLjA4LTQuMzIgMS42MnMtMy44MjUuOTktNi4wNzUgMS4zNWMtMi4xNi40NS00LjUuODEtNy4wMiAxLjA4cy01LjA0LjQwNS03LjU2LjQwNWMtNi4zOSAwLTExLjk3LS45NDUtMTYuNzQtMi44MzUtNC42OC0xLjg5LTguNTk1LTQuNDU1LTExLjc0NS03LjY5NS0zLjA2LTMuMzMtNS4zNTUtNy4yNDUtNi44ODUtMTEuNzQ1LTEuNDQtNC41LTIuMTYtOS4zNi0yLjE2LTE0LjU4bTQ3LjI1LTcuNjk1YTE4Ljg2IDE4Ljg2IDAgMCAwLS45NDUtNC45OTVjLS40NS0xLjYyLTEuMjE1LTMuMDYtMi4yOTUtNC4zMi0uOTktMS4yNi0yLjI5NS0yLjI5NS0zLjkxNS0zLjEwNS0xLjUzLS44MS0zLjQ2NS0xLjIxNS01LjgwNS0xLjIxNS0yLjI1IDAtNC4xODUuNDA1LTUuODA1IDEuMjE1LTEuNjIuNzItMi45NyAxLjcxLTQuMDUgMi45N3MtMS45MzUgMi43NDUtMi41NjUgNC40NTVhMzEuMTEgMzEuMTEgMCAwIDAtMS4yMTUgNC45OTVoMjYuNTk1bTM0LjI4OC00Ni4wMzVsMjAuMTE1LTMuMjRWNDMuNzVoMjQuMTY1djE2Ljc0SDU2MS41M3YyNC45NzVjMCA0LjIzLjcyIDcuNjA1IDIuMTYgMTAuMTI1IDEuNTMgMi41MiA0LjU0NSAzLjc4IDkuMDQ1IDMuNzggMi4xNiAwIDQuMzY1LS4xOCA2LjYxNS0uNTQgMi4zNC0uNDUgNC40NTUtMS4wMzUgNi4zNDUtMS43NTVsMi44MzUgMTUuNjZjLTIuNDMuOTktNS4xMyAxLjg0NS04LjEgMi41NjVzLTYuNjE1IDEuMDgtMTAuOTM1IDEuMDhjLTUuNDkgMC0xMC4wMzUtLjcyLTEzLjYzNS0yLjE2LTMuNi0xLjUzLTYuNDgtMy42LTguNjQtNi4yMS0yLjE2LTIuNy0zLjY5LTUuOTQtNC41OS05LjcyLS44MS0zLjc4LTEuMjE1LTcuOTY1LTEuMjE1LTEyLjU1NXYtNTkuNjciLz4mI3hhOwkJPHVzZSB4bGluazpocmVmPSIjQiIgeD0iMzUxLjQ3NSIvPiYjeGE7CQk8cGF0aCBkPSJNNjk4LjUzIDEwMC4zMTVjMy42OSAwIDYuMy0uMzYgNy44My0xLjA4czIuMjk1LTIuMTE1IDIuMjk1LTQuMTg1YzAtMS42Mi0uOTktMy4wMTUtMi45Ny00LjE4NS0xLjk4LTEuMjYtNC45OTUtMi42NTUtOS4wNDUtNC4xODVMNjg4IDgzLjAzNWMtMi41Mi0xLjI2LTQuNjgtMi43NDUtNi40OC00LjQ1NS0xLjgtMS44LTMuMTk1LTMuOTE1LTQuMTg1LTYuMzQ1cy0xLjQ4NS01LjM1NS0xLjQ4NS04Ljc3NWMwLTYuNjYgMi40NzUtMTEuOTI1IDcuNDI1LTE1Ljc5NXMxMS43NDUtNS44MDUgMjAuMzg1LTUuODA1YzQuMzIgMCA4LjQ2LjQwNSAxMi40MiAxLjIxNSAzLjk2LjcyIDcuMTEgMS41MyA5LjQ1IDIuNDNsLTMuNTEgMTUuNjZjLTIuMzQtLjgxLTQuOTA1LTEuNTMtNy42OTUtMi4xNi0yLjctLjYzLTUuNzYtLjk0NS05LjE4LS45NDUtNi4zIDAtOS40NSAxLjc1NS05LjQ1IDUuMjY1IDAgLjgxLjEzNSAxLjUzLjQwNSAyLjE2cy44MSAxLjI2IDEuNjIgMS44OWMuODEuNTQgMS44OSAxLjE3IDMuMjQgMS44OSAxLjQ0LjYzIDMuMjQgMS4zNSA1LjQgMi4xNiA0LjQxIDEuNjIgOC4wNTUgMy4yNCAxMC45MzUgNC44NiAyLjg4IDEuNTMgNS4xMyAzLjI0IDYuNzUgNS4xMyAxLjcxIDEuOCAyLjg4IDMuODI1IDMuNTEgNi4wNzUuNzIgMi4yNSAxLjA4IDQuODYgMS4wOCA3LjgzIDAgNy4wMi0yLjY1NSAxMi4zMy03Ljk2NSAxNS45My01LjIyIDMuNi0xMi42NDUgNS40LTIyLjI3NSA1LjQtNi4zIDAtMTEuNTY1LS41NC0xNS43OTUtMS42Mi00LjE0LTEuMDgtNy4wMi0xLjk4LTguNjQtMi43bDMuMzc1LTE2LjMzNWE3MS4yIDcxLjIgMCAwIDAgMTAuNTMgMy4yNCA1NC4yOCA1NC4yOCAwIDAgMCAxMC42NjUgMS4wOCIvPiYjeGE7CTwvZz4mI3hhOwk8ZGVmcz4mI3hhOwkJPHBhdGggaWQ9IkIiIGQ9Ik0yNDQuNDU3IDc5Ljc5NWMwLTYuMy45NDUtMTEuNzkgMi44MzUtMTYuNDcgMS45OC00Ljc3IDQuNTQ1LTguNzMgNy42OTUtMTEuODhzNi43NS01LjUzNSAxMC44LTcuMTU1YzQuMTQtMS42MiA4LjM3LTIuNDMgMTIuNjktMi40MyAxMC4wOCAwIDE4LjA0NSAzLjEwNSAyMy44OTUgOS4zMTUgNS44NSA2LjEyIDguNzc1IDE1LjE2NSA4Ljc3NSAyNy4xMzUgMCAxLjE3LS4wNDUgMi40NzUtLjEzNSAzLjkxNWwtLjI3IDMuNjQ1aC00NS42M2MuNDUgNC4xNCAyLjM4NSA3LjQyNSA1LjgwNSA5Ljg1NXM4LjAxIDMuNjQ1IDEzLjc3IDMuNjQ1YzMuNjkgMCA3LjI5LS4zMTUgMTAuOC0uOTQ1IDMuNi0uNzIgNi41MjUtMS41NzUgOC43NzUtMi41NjVsMi43IDE2LjMzNWMtMS4wOC41NC0yLjUyIDEuMDgtNC4zMiAxLjYycy0zLjgyNS45OS02LjA3NSAxLjM1Yy0yLjE2LjQ1LTQuNS44MS03LjAyIDEuMDhzLTUuMDQuNDA1LTcuNTYuNDA1Yy02LjM5IDAtMTEuOTctLjk0NS0xNi43NC0yLjgzNS00LjY4LTEuODktOC41OTUtNC40NTUtMTEuNzQ1LTcuNjk1LTMuMDYtMy4zMy01LjM1NS03LjI0NS02Ljg4NS0xMS43NDUtMS40NC00LjUtMi4xNi05LjM2LTIuMTYtMTQuNThtNDcuMjUtNy42OTVhMTguODYgMTguODYgMCAwIDAtLjk0NS00Ljk5NWMtLjQ1LTEuNjItMS4yMTUtMy4wNi0yLjI5NS00LjMyLS45OS0xLjI2LTIuMjk1LTIuMjk1LTMuOTE1LTMuMTA1LTEuNTMtLjgxLTMuNDY1LTEuMjE1LTUuODA1LTEuMjE1LTIuMjUgMC00LjE4NS40MDUtNS44MDUgMS4yMTUtMS42Mi43Mi0yLjk3IDEuNzEtNC4wNSAyLjk3cy0xLjkzNSAyLjc0NS0yLjU2NSA0LjQ1NWMtLjU0IDEuNjItLjk0NSAzLjI4NS0xLjIxNSA0Ljk5NWgyNi41OTUiLz4mI3hhOwk8L2RlZnM+JiN4YTs8L3N2Zz4=;fontColor=default;" parent="1" vertex="1">
          <mxGeometry x="773.5" y="180" width="270" height="40" as="geometry" />
        </mxCell>
        <mxCell id="BZeSTdEQzQxEG6EipwHJ-6" value="Website" style="image;aspect=fixed;html=1;points=[];align=center;fontSize=16;image=img/lib/azure2/app_services/App_Service_Domains.svg;fontStyle=1" parent="1" vertex="1">
          <mxGeometry x="465.58" y="740" width="65" height="52" as="geometry" />
        </mxCell>
        <mxCell id="gJc1-Rh_6Kr2WOo-X1c_-2" value="" style="edgeStyle=orthogonalEdgeStyle;rounded=0;orthogonalLoop=1;jettySize=auto;html=1;sketch=1;curveFitting=1;jiggle=2;" parent="1" source="BZeSTdEQzQxEG6EipwHJ-10" target="BZeSTdEQzQxEG6EipwHJ-16" edge="1">
          <mxGeometry relative="1" as="geometry" />
        </mxCell>
        <mxCell id="P-mQC5gGKKPYpPwHG2zG-11" value="&lt;b&gt;&lt;font size=&quot;1&quot; color=&quot;#ffffff&quot; style=&quot;background-color: rgb(0, 0, 0);&quot;&gt;&lt;i style=&quot;font-size: 14px;&quot;&gt;Push&lt;/i&gt;&lt;/font&gt;&lt;/b&gt;" style="edgeLabel;html=1;align=center;verticalAlign=middle;resizable=0;points=[];" parent="gJc1-Rh_6Kr2WOo-X1c_-2" vertex="1" connectable="0">
          <mxGeometry x="-0.2789" relative="1" as="geometry">
            <mxPoint as="offset" />
          </mxGeometry>
        </mxCell>
        <mxCell id="gJc1-Rh_6Kr2WOo-X1c_-1" value="" style="edgeStyle=orthogonalEdgeStyle;rounded=0;orthogonalLoop=1;jettySize=auto;html=1;sketch=1;curveFitting=1;jiggle=2;" parent="1" source="BZeSTdEQzQxEG6EipwHJ-12" target="BZeSTdEQzQxEG6EipwHJ-10" edge="1">
          <mxGeometry relative="1" as="geometry" />
        </mxCell>
        <mxCell id="P-mQC5gGKKPYpPwHG2zG-10" value="&lt;b&gt;&lt;font size=&quot;1&quot; color=&quot;#ffffff&quot; style=&quot;background-color: rgb(0, 0, 0);&quot;&gt;&lt;i style=&quot;font-size: 14px;&quot;&gt;Commit&lt;/i&gt;&lt;/font&gt;&lt;/b&gt;" style="edgeLabel;html=1;align=center;verticalAlign=middle;resizable=0;points=[];" parent="gJc1-Rh_6Kr2WOo-X1c_-1" vertex="1" connectable="0">
          <mxGeometry x="-0.3909" y="1" relative="1" as="geometry">
            <mxPoint as="offset" />
          </mxGeometry>
        </mxCell>
        <mxCell id="D46rz5uaiEFK8HeDNgyF-1" value="" style="edgeStyle=orthogonalEdgeStyle;rounded=0;orthogonalLoop=1;jettySize=auto;html=1;sketch=1;curveFitting=1;jiggle=2;" parent="1" source="BZeSTdEQzQxEG6EipwHJ-15" target="BZeSTdEQzQxEG6EipwHJ-25" edge="1">
          <mxGeometry relative="1" as="geometry" />
        </mxCell>
        <mxCell id="P-mQC5gGKKPYpPwHG2zG-15" value="&lt;b&gt;&lt;font size=&quot;1&quot; color=&quot;#ffffff&quot; style=&quot;background-color: rgb(0, 0, 0);&quot;&gt;&lt;i style=&quot;font-size: 14px;&quot;&gt;Deploy&lt;/i&gt;&lt;/font&gt;&lt;/b&gt;" style="edgeLabel;html=1;align=center;verticalAlign=middle;resizable=0;points=[];" parent="D46rz5uaiEFK8HeDNgyF-1" vertex="1" connectable="0">
          <mxGeometry x="-0.1143" y="1" relative="1" as="geometry">
            <mxPoint as="offset" />
          </mxGeometry>
        </mxCell>
        <mxCell id="gJc1-Rh_6Kr2WOo-X1c_-3" value="" style="edgeStyle=orthogonalEdgeStyle;rounded=0;orthogonalLoop=1;jettySize=auto;html=1;sketch=1;curveFitting=1;jiggle=2;" parent="1" source="BZeSTdEQzQxEG6EipwHJ-16" target="BZeSTdEQzQxEG6EipwHJ-41" edge="1">
          <mxGeometry relative="1" as="geometry" />
        </mxCell>
        <mxCell id="P-mQC5gGKKPYpPwHG2zG-9" value="&lt;font size=&quot;1&quot; color=&quot;#ffffff&quot; style=&quot;&quot;&gt;&lt;b style=&quot;background-color: rgb(0, 0, 0);&quot;&gt;&lt;i style=&quot;font-size: 14px;&quot;&gt;Trigger&lt;/i&gt;&lt;/b&gt;&lt;/font&gt;" style="edgeLabel;html=1;align=center;verticalAlign=middle;resizable=0;points=[];" parent="gJc1-Rh_6Kr2WOo-X1c_-3" vertex="1" connectable="0">
          <mxGeometry x="-0.2985" y="1" relative="1" as="geometry">
            <mxPoint as="offset" />
          </mxGeometry>
        </mxCell>
        <mxCell id="BZeSTdEQzQxEG6EipwHJ-16" value="GitHub" style="shape=image;verticalLabelPosition=bottom;labelBackgroundColor=default;verticalAlign=top;aspect=fixed;imageAspect=0;image=https://cdn-icons-png.flaticon.com/512/25/25231.png;fontStyle=1;fontSize=16;perimeterSpacing=0;" parent="1" vertex="1">
          <mxGeometry x="60" y="377" width="50" height="50" as="geometry" />
        </mxCell>
        <mxCell id="BZeSTdEQzQxEG6EipwHJ-32" value="" style="edgeStyle=orthogonalEdgeStyle;rounded=0;orthogonalLoop=1;jettySize=auto;html=1;entryX=0.5;entryY=0;entryDx=0;entryDy=0;" parent="1" source="BZeSTdEQzQxEG6EipwHJ-18" target="BZeSTdEQzQxEG6EipwHJ-21" edge="1">
          <mxGeometry relative="1" as="geometry" />
        </mxCell>
        <mxCell id="D46rz5uaiEFK8HeDNgyF-6" value="" style="edgeStyle=orthogonalEdgeStyle;rounded=0;orthogonalLoop=1;jettySize=auto;html=1;" parent="1" source="BZeSTdEQzQxEG6EipwHJ-18" target="BZeSTdEQzQxEG6EipwHJ-33" edge="1">
          <mxGeometry relative="1" as="geometry" />
        </mxCell>
        <mxCell id="BZeSTdEQzQxEG6EipwHJ-18" value="Service" style="sketch=0;html=1;dashed=0;whitespace=wrap;fillColor=#2875E2;strokeColor=#ffffff;points=[[0.005,0.63,0],[0.1,0.2,0],[0.9,0.2,0],[0.5,0,0],[0.995,0.63,0],[0.72,0.99,0],[0.5,1,0],[0.28,0.99,0]];verticalLabelPosition=bottom;align=center;verticalAlign=top;shape=mxgraph.kubernetes.icon;prIcon=svc;aspect=fixed;fontSize=16;labelBackgroundColor=default;fontStyle=1" parent="1" vertex="1">
          <mxGeometry x="853.5" y="376" width="50" height="48" as="geometry" />
        </mxCell>
        <mxCell id="BZeSTdEQzQxEG6EipwHJ-31" value="" style="edgeStyle=orthogonalEdgeStyle;rounded=0;orthogonalLoop=1;jettySize=auto;html=1;" parent="1" source="BZeSTdEQzQxEG6EipwHJ-27" target="BZeSTdEQzQxEG6EipwHJ-18" edge="1">
          <mxGeometry relative="1" as="geometry" />
        </mxCell>
        <mxCell id="BZeSTdEQzQxEG6EipwHJ-27" value="Ingress" style="sketch=0;html=1;dashed=0;whitespace=wrap;fillColor=#2875E2;strokeColor=#ffffff;points=[[0.005,0.63,0],[0.1,0.2,0],[0.9,0.2,0],[0.5,0,0],[0.995,0.63,0],[0.72,0.99,0],[0.5,1,0],[0.28,0.99,0]];verticalLabelPosition=bottom;align=center;verticalAlign=top;shape=mxgraph.kubernetes.icon;prIcon=ing;fontSize=16;labelBackgroundColor=default;fontStyle=1" parent="1" vertex="1">
          <mxGeometry x="853.5" y="266" width="50" height="48" as="geometry" />
        </mxCell>
        <mxCell id="BZeSTdEQzQxEG6EipwHJ-33" value="Endpoint" style="sketch=0;html=1;dashed=0;whitespace=wrap;fillColor=#2875E2;strokeColor=#ffffff;points=[[0.005,0.63,0],[0.1,0.2,0],[0.9,0.2,0],[0.5,0,0],[0.995,0.63,0],[0.72,0.99,0],[0.5,1,0],[0.28,0.99,0]];verticalLabelPosition=bottom;align=center;verticalAlign=top;shape=mxgraph.kubernetes.icon;prIcon=ep;fontStyle=1;fontSize=16;labelBackgroundColor=default;" parent="1" vertex="1">
          <mxGeometry x="993.5" y="376" width="50" height="48" as="geometry" />
        </mxCell>
        <mxCell id="gJc1-Rh_6Kr2WOo-X1c_-7" value="" style="edgeStyle=orthogonalEdgeStyle;rounded=0;orthogonalLoop=1;jettySize=auto;html=1;entryX=0.008;entryY=0.577;entryDx=0;entryDy=0;entryPerimeter=0;sketch=1;curveFitting=1;jiggle=2;" parent="1" source="BZeSTdEQzQxEG6EipwHJ-41" target="Qv39Ewv7rEPjo-xS1umV-3" edge="1">
          <mxGeometry relative="1" as="geometry">
            <mxPoint x="100" y="180" as="targetPoint" />
            <Array as="points">
              <mxPoint x="85" y="190" />
            </Array>
          </mxGeometry>
        </mxCell>
        <mxCell id="P-mQC5gGKKPYpPwHG2zG-8" value="&lt;font size=&quot;1&quot; color=&quot;#ffffff&quot; style=&quot;&quot;&gt;&lt;b style=&quot;background-color: rgb(0, 0, 0);&quot;&gt;&lt;i style=&quot;font-size: 14px;&quot;&gt;Push&lt;/i&gt;&lt;/b&gt;&lt;/font&gt;" style="edgeLabel;html=1;align=center;verticalAlign=middle;resizable=0;points=[];" parent="gJc1-Rh_6Kr2WOo-X1c_-7" vertex="1" connectable="0">
          <mxGeometry x="0.1524" relative="1" as="geometry">
            <mxPoint as="offset" />
          </mxGeometry>
        </mxCell>
        <mxCell id="BZeSTdEQzQxEG6EipwHJ-41" value="GitHub Actions" style="shape=image;verticalLabelPosition=bottom;labelBackgroundColor=default;verticalAlign=top;aspect=fixed;imageAspect=0;image=data:image/png,iVBORw0KGgoAAAANSUhEUgAAAMgAAADICAYAAACtWK6eAAAnO0lEQVR4nOyde2wb173nj1yie/4QuqPCuBnsFST21N24aMqk67QxYHl52ExSp3WbtLERX5tFlNuUcXtTOMXm2srednmIJltVm6DOxt04vO7GQug0XicbZ6+zVeoJeLjSRR3UQl3GbVysMyW1vthJ63s1CYSLg65QLUY8tGWFnHNmOEMOqfkAgRFxHoff4W/O6/eIgQ4DUbIfInwjAOAmRSMbAQBx/l8//3c1lwEAFgDgEgDgoqWTiwCA8wCANyw9d7kDXyGih+nrxE0VLbsFIrwNIqwBAG4GAPhlqBUAALV0MsUM+iozSgs+XTdijdI2A1G07CaIcBoivAMAMNiGWzIAwJSlkwIz6CvMKC224Z4RPUagBgJRMgYRvkfRyEO8p+gUJjPoYUsnzzCjZHawHRFdRiAGYhuGopE9EOHvAAA2BHEPjzBuKD+IDCVCBt8NRNGyn1M0chAAsNHva/uIxQz6uKWTJ5hRYp1uTER48c1AIEqqaoY+BQDY4dc128AFSyd7LT1X6nRDIsLJB/y4iJop3q1o5GcAgH/jx/XayHqI8ChEeP3ifKW4OF+NJvIR19BSDwJREioa+SFEeK9P7bHstzp/s1f4nsfKpdoYAGBQ0YjK90hu8HFF7JyZxzuYUXrbp+tF9ACeDYQPqf6uxdUp+8d/ytLJFN/ou+D2AoqWXQ8A2AIR1iDC21pcFLDnJrvMfOq1Fq4R0UN4MhCIkterGap7fHvbw5iTfH/iNb8nyYqWvZHvt4zaQygv7WMGfdDMp57xs10R3YlrA1EzRfttfdLDj295iZUZ9AlLz11ye1+38OHfHojwmJdehRn0ITOfejKY1kV0C64MhBvHFPeTkmWR7z081om9B74ncy9E+FH7K7g5NzKSCGkD4cOqGZc9xxlLJ/dbeu7X3prnHxAlFUUj34MIP+jmvMhI1jZSy7x8Qj7j4g1s9xr//vKJ0a8vzE6+01oT/WFxvsoWZid/CgCg3EnyQzLnxQbi2yDC5xdmJ98KvpURYUNoIPZYXs3Q0y52xk1LJ7dfPnHf8cX56p9ab6K/MKNUZQZ9rn/TaEJ2bhIbiH8eAPA/mVEKhbFHtA+hgazfefSp2ED8S5LXO2fm8daF2cnftt604Ficr/4zM+jx2ED8w7GB+GckTvkgRHgbM+ik3RO1oYkRIcFxDqJmindDhF+UvNaMmcd3dFsMhpop/juI8OOSh79YGevbGXCTIkLEumYfQJQchAgfkbxOVxqHjZlPPWFPxCUP36FminsCblJEiGg6xBo8UPmxpG+VPay6tRuNo87C7OQbEGEYG4iPiI6NDcT/LTPos/YwrT2ti+gkDYdY3GV9SuJ808zjT7nd34AoqSoa+RpEeDuf/Cv2tfiy8Iv2/KATEYDx8aWfAAB2SRx6pDLW9/U2NCmiw7yvB4EoGVu/8+j/kNjvWLR0crvbCbmaKe5TNHIyNhDfxl1VIP+o3zYWiPBX+jeN7gYA/IYZpd+5+jYtwgz6Wv+m0S8BAP5McKjds56MVrV6n/fNQRSN7JFZ0mUG/Y6l595wczM1U/whRPigxE78BkUjenx86VmIkl78qTxhDxMtnezi8eyOKBqRndhHdDHX9CDcLeO/AQA+LDjvzOUTo193s8/BV4v+g8v23dS/afQvIcK/X5id/JXLcz3BjNIfIMIsNhC/XXAoAgBMMaP0D+1oV0RnuKYHgQjfI7F5Zg+t7nczR7DnHNwXygvrIcJH4+NLRUXLtiW+3dLJkzzXliOKRsba0Z6IznFND6Jm6H8FAPwrpxOYQf/L5RP3Tbq5yfqdRw/EBuKf9dpIThwinIEIg8X5ys+D3KXn1/4Nd5l3wjbY55hRsoJqS0RnudKDKFp2k0TwE7N08pjbm/DVKj+Adk+kZuibipa9xadrNoTHqZ8SHBaDCD8QZDsiOssVA4EIp0UH1+I5PLms3+DhHCc2Kho5o2aKT0OUVHy+9hUsnRDRMTK6RXQvKw1ElI1kkRn0CY/3EaUWPcsjDV0BEd6rZuhbaqZ4t8d2OWLpuVkAwIzgsEFFy24J4v4RnWfZQPgDFoXPngwqEtDSySFLJ/bw7oyH01WI8Ivx8aW/gyjZKNl1y20THSPxconoUpYNhCc7cMTSSSHIhlh67ldmHm/lflFe3Fa223MTNVPcB1HSt6z1zKCviNrj4xwrImTUDUQTHLfADBp4pg9mlBbNfOpJM48/bvdYHi7RDxE+qGboz/migx9tYhJt2aBoWd97r4jOsw6iZL/E6tWpdqboZEbpUmWs78vMoDt4HRC33Mwn8f+Jf7+WsHQiY6zRPKQHWceL1zgOSXjeqrZj5lMvmXn8SWbQQx4m8TGI8MN82PWFVtrBDPq66BiIcCez10cEhD3EukniOFc+V37CjJJl5lPfsnQyIrO73YA4RPhUfHzpBERJV1lNVrYBAHDO6RiIsIyOEV3GOl72zAnLS8ZDv7H03Bs113o6JuNM2IAdvDfxOhQ6K/g8zNnsIzyyrkkdwJV03Djq8En8D/gkXvdwifUQ4SlFy37C7YmWTkS9l+rHfCciXHSVgdRhRqlSGeu7jRk0zRNcu6Ff0chRD0vBF0UHQIQ9DeEiwss6UWwGz7IeSsx86piZxx8DABx1eerNEOE7XZ5TlTimHbUXI9qITA8S6tLK9gS6MtZ3n6UT7Ka3UzQiE1q7EpnNy3/h8poRIadpVpMVdEUyBkvPlfgk/lHJJWFhgoaVMIPK7MdEQ6weQ8ZAugZmlJiZT33X0skNEkvCLhNZR2Wk1yI9ZSCgFr3YzwOdRMuu0Q8+QojMSo5vjn9Bo2aKX4AIH5KYVwG3q3OKlpXpcbpiOBohT4xPwp0yh4R+ZQai5CCvsHuX7DnMoG73UWT2OP7R5TUjQs46XjizKbxgZiiBKBlTM8V9aoa+5cY4ePCXbFrVOjIviig2vceIcW9Zp2whoXTjVrTsLYq2HMzk2kmwVvHKdVGfj0ocE3hpuYj2EuM7xNjhGL/jyVtiRaWovR7nRzOWTv7a/X2xaNK/YOm5UO8ZRbhnnaUTkQvFIC+13HHUTPEeezjFy6h5MY4jPAu9a2dHCW9doStKRPcRk3Qh3wIAeKUN7WkIRMm4mqFPAwCEocFNuGjpZK+l54RxHU3ub+u0WXCYF1f8iJCzTibWQyIkNxD4JPxv+CTci3EwZtBHzTz+pFfjqLUD3yLhsyZyh4/oQtbxcbOjQ6JMUge/UbTsFjVD3+QpS6GHS1BLJzeZ+dR3Ww0Xlvz+pVbuERFO6jvpoj2BDYqWvbEN7bF7jfXx8aVnFY3MeAxCuswMmq6M9aUsPedLrUSIsMix0bL0nGPEYUR3smwglk6Em2btyCCoZor38uGUKCduM+xJ+MfMfOqYX23iKU5FSbM7ErMfETzLBsIM+qoojBUiPApR0stQRwhEeGN8fGkaInxUonBPI85bOhmpjPV93e9E0opG9oqOsXQiyuEb0aVwA1muLyh6C67nxXV8ByI85tb9nGNPwsfMPP6Upef+3v92LSd5EA2vGE8uF9GDXPHmlcmcaP+QPWYtDGKHecrM44+b+dQPgnJFVzRyQGKB4GQ3FzCNcOaKgfC3oChz+wZFI/d6uA/1cE4zLjGD7qiM9d3BjFJg4cC86I/M8MqtT1dEF3GlgM7ifPVPEOH+2EDcye0ExAbin2EG/fHifNXN0uk/+zDJX2QG/c+XT4zeY+m5X7Z4LSGDBypPSfh5nTfzKdduKxHdwzUBU5ZOnpHIOaUqGvmem5tYeu41j2l66py1dLLZzKe+3Y5qToqWTcqspDGDRoU8e5xrSrAtzlcXIMLrYwNxR7cKuxexh03MKMlk+liGGfR0/6bRtGRcRR3LnoRfPjH6wMLsZFuKZUKU7F+/8+jPeO12Jy7a7QqyFFxE5+lb/Qd77M33IkQ/kEu1JAklaQ9W7lP1smS60xfNPLZ7jLa6kMfHl56V7D1GzXzKVa3GiO7jA6v/wHuRmETRzQ/1bxpNMIMel32LLs5X7R7hx7GB+D/FBuI32NdocNiMpZOMmU99f3G++p70N/EBNVP8WmwgLlOq+uylH3zkr9rQpIgO874eBNTe9FDN0F/KuHowgx4y86lvebm5omXtnuR6vpRq90Szlp7zUgOxZdRMMQkR1mXc6O35kKXnOpbQO6J9NDQQwCeqikaklmeZQR828ymv9Qs7jqJlN/HvKpwftfJCiOg+3jfEqmNPwPmE/TOii8QG4rdDhK2F2cmue6ty4zgFAPiwxOH2xHzn4nz1j21oWkQIaGogYHnOUCn2bxrdLpNkLTYQ3wYRhguzk57jLtqNPazq3zT6M0njWLR0sm1hdlJ65S6i+2k6xKoDUfKjaoaelVjVqvOCmcdfD7v7hT0hhwgflg3dZQZ90MynfhR8yyLChGMPAmorT/MQ4XOxgfguyUyMN/RvGv0SAOB/MaP0B3+a6R8QJfsHD1Se4atVUpklmUGPmPnUd4NvXUTYEBqIzcLs5NsQ4d/HBuKy5Y7/DCL8lxBhtjhf+UVYNtMULZvkm4CO7jSrmLp8YnRPWL5DRHuRMhBQM5JZeyJuzzUkT4nZk/f+TaNfAQD8xs2uu99AlFQHD1SegggfdDFUtJkx8/jOdlb4jQgXwjnIamqF+pd/aG45aenkUUvPzXo41xO2YSgaOcC9ct0Ge83wFEGhnktFBItrAwGtGQngO+WHmEFfCerNzLMu7uXBTl6iIKfMPN4ZGUeEJwMBNSO5m4fIei1cucB7lZPMoK+34qULUTIGEb4FIryNJ1gQxZA3xZ6QWzr5RlQPJAK0YiCg9qa+UdHISZ/y957jbu3neZZCe86ywAx6qf5j5SUI+nki6Y9ChDfyjIebWzDUOovMoA9FS7kRK2nJQADPlatm6N8CAHb406SOcNHSya4g5kfcqLdAhDfz/L4beGKK1ckpLvGIzovMoOeZQc8wg76xloZ5YdSqZQOpo2aKe/i8JBR5fGVhBj1k6eQRP8VVtKzds9l63NVi8m/G52wvMIO+1I5gsXYTdq18MxDAk76pGfp9AMD9fl43IOzh3IN+euUqWvZORSMPe8zQIsL+ARQsnRz0ULohdHSLVr4aSB0+N3kcANCRnL4CLtby9foX7KRo2c8pGhmXDATzA/vh5yw913UZ5btNq0AMpA5fbh0DAGwPQa1De6z6uKWTY36tUPHSb0/z79dulhNzWzoJLO2Rn3SrVoEaSB1Fy8Yhwg/wzCbtrHnI+FLykVayuzdCzRTv4c6Obnbmg+Ccmcc7mFF6u8PtaEo3a9UWA1mJomW3QIR3QIS3t7Jf4YA9OZuydHKKb0b6urIBUTKmaOSHvIhPWFhgBt1l5lOvdrohK+kFrdpuICuxexYAwBY+WfMyJl3geybneX2OUpBZ1iFK9qsZeqKFQj5BssgjO5/sdENAD2nVUQOpI5NJhBmUMIOe56WW7V7iUjtrAvIH/tMWV11s471g6eTCqpos/RDhQb72v1kmQK0ZfLOzo0bSS1p1jYHwEmrPtK9VV6lVuqKnXbrJ29gTQt3SSYEZ9DXZFEl8b+BuPmdzXSOlk0bSa1p1jYHYk+3KWN+X29Ska4iPLz0HAHCTOnWRLy8+1upSrKJlb1U08h2XPzh7CHFXJ+YkvaaVVERdSNgGUbLtqyBqprjP5QOnlk5uqIz13efHPoWl516vjPWl7Imliyz5MYjwCxAlZWq7+0YvatVNBgI9Zpb3jKJlb4QIy+bfXXZ29LP020rMfOq4mcefAgDIFuux5wEveixX4Zpe1aqbDKRenySQKlfvv9fyEuVRyQ3OBWZQLehxvz0ur4z1fZEZ9FHJU25SNPI3QbYJ9LhWXWUgPLN8W1J+Khp5QHLp2bJ0MmLmU22rclur3EsfkjnWfqkoWjaI/aYr9LJW3WYg9pf4DkTJQHfj7bkOLz8tgjGDbrf03K+CbE8j7Dew5NsRui1X4YZe16rrDMR+YakZ+myQY2tFI/tk3CKYQfea+ZTvtRFl4amIZMbZuxQt+4kg2tDrWnWjgdhoikayQVzYnuPIlF4DABTCUP7AzOP7ZFZsFI1IDTPcsBa06lYDWR5q8WVFv697p8TurGXm8bf9vrcX7MkoM+jDEoem/V4mXwtada2BgNoDOui3kSgaEQZ71dxe5AsHuaW2G13cFx9f+ml8fOmt+PjSCUXLbml2vJlPHZcolGq/7e/2s51rQauuNhBw1Uj+1o85CUTJ9RK7sCav5RgI3I/pNA9f3sbdJ3YoGqFqpvhAs/MsnQgnoYpGRDXf3bRzTWjV9QYCakZyv5qhv1C07I0tXudW0Vo+M+iRoPJ5rXDya/TDi9k/BEXLNlzB4/EuFwS3GLHv4U9b14ZWPWEgnJsUjZxVM8WnIUp68vBUNCL04WEGDWSyKekBCwEATYdJzKAF0W0gwrd4b+VV1opWvWQggL859qoZ+rv4+NJzvJyzGxyr+9biTvyPA3fpHt50os0M+pL4Xlj0HWVZE1p1Ok48KOy3R1rRiP3fZe5GfYZ3q29zD9JGOKadYQZtpdZ744a6j51oOjSw9NwFRSOm08oST7TnB2tCq24xEMoMeg4i7GUtf31t86f1CSozlgsJOaJo2Rv4Pc+LAro8PPBLzKCvCI6xXwR3OXy+Iz6+tCR5P8/0iFbxbjEQYOZT31YzRQsiTDrYjKaepzyDy5GVb1ZFI02rbXl44AuWTnaIJr3MoBcgchurFAi9oJXaVXMQM5/KMYNu5yG3naDhW07RshsUjegNhh277Ae7euXIywNnBt0mk+SOGVQ2DiJoekGrwa4yEFAzklfNPP6kC19/37D0XKXR37mbdLPl05GVD97rA3fhxxSKXL69olXXGQiouQxc4r7+biLHgkS0orP84BUtqwb8wLuBrtKqKw2kDo8c+xj39w/cUBQt2ywxt0y2vhFFI7/r9ANvF72iVVcbCKj1JszMp5408/gj9sQMAHBS8iF4odlDn5E8XzYaspUH7ketFj/oBa2srjeQOswoLVp67qXKWN+XzTwesPTlZd3DPL+SXwbTMLDfzOPHeL0KP2jpbahoxHXqm4DoBa3MrlnmdQMzSgvMKB239NxxcLVE2wa+KfTnzXyIeFx1U2qbbLn3pYex50RmHmM1Q2kricx8GiqIHvpZSyeHWrj+MmtEq4vdkheLVsb6Um1ox+8E3a5eGeu7rdmHECWvb+HBt/zAeX2WPzgdwwz6uJlP/bXXe9RZK1r1zBDLJ0R5fR29YZlR+q39dvQwhPBlkgkR/pzoGGbQM63cYwVrQqvIQFZg6aTloCMPD963FRhFIzJJ23xZ6VkrWkUGci2viQ5QNCJM5e/iwfv4wJfT1Ygqep239JxfE+Q1oVVkICuw9NwFXk7BiZtl3OglHrxp5vHNfq3d8x1qUQDTST/uBdaQVpGBrIIZ1HF1BtQElkqxueLBr/ZsvWD/3f7cc0OvaU/2epmcuMygx/y434rr9bxW0SrWKhQtO8h3cUVvmAfNfOpHLq57M98beNvSc0JXcDfEx5eKEvHhM5Wxvq1+3nctaBUZSOP2yKTwX7B0srnTJZnVTHEfT1rgiKWTuyw9J4qPcE2vaxUNsRpg6cvDAtHue7+ikRf9SoLgBTVTTEpmVD8XhHGANaBVZCAN4PljRUH9NhsbxTC0A0XLfgIifEomo7qlL5fiDoRe1yoykCaYefyIZGDWSLsfvJopblE0MuMQV7GSU5aeEy7JtkIvaxUZSBOYUTJl0+bzB/+LoBJEr0TNFO+FCOuSNcctM4+/EXSbelmryEAc4AmXZfcONioaOaNmioHUL4Eoud6eEEOEj8q6gjOD7mVGqS0BZb2qVWQgAsw8/qpEFr46/RDhQ/HxpV94yMnVEIiSUM0U96kZ+r/d1P9jBj3E89C2jV7UKlrmlaAFz9Nl13Jm0JcaZetwQtGyGyDC9hDhfg/3nTLz+IvMKAUVONaUXtMqMhBJeKoaXXKytxoGAJhhBl3O78WT112u54LiOWTtB3s9RPhmiLAmSszmwIyZx3e4/ZH5SS9pFRmIC/iDP9lioE+QdNw46vSKVtEcxAWWnnuD+wvJjrPbScHM41QYjAP0kFaRgbiEO9V92sWKTdDUa45/tRNzDid6QavIQDxgv3kqY31fZgYd7WCWR1BziyA3B11zvBW6XavIQFrAzKcmzTz+OADgaICphhph1Txk8ac7UVbZC92qVWQgLcKMklkZ67vPfjtxn6QgH/5lZlBi5vFHzHzqR2EbUonoRq2iVSyfUbTsIF+Tt7/PBh8uaT9YaunkKN8jCKSkWSfoBq0iAwkQRctuBAB8jpcru0ky66H9kM8DAM5YOqHMoK8HWSU2LIRVq8hA2ghEyX6IcJyn5bxuhZ+QPXl9FwBQaZYVfa0RFq16MrNiWOEZH893uh3dQFi0iibpEREORAYSEeFAZCAREQ5EBhIR4UBkIBERDkQGEhHhQLTM20bCsrbfDQwlkv1DCWetZgrRPkhX42V3WNHImtxJH0nXtNqaltdqa/qqVtMFQufK9PW5crSTHmoC9C86wgz6Si/5Yo2ks4NDCXzvcMJfraYL5Mhcmb4yV+4dX6ynAABOtSQuVsb6PtbGJrlG0bI3Khp5GACwK8Ce2WQGPWzp5ElmlDoZW9ESI+nsjVvTwWtVLdPDMwXy5FzZu1Yf8LdNnknw4PtmfIgZ9PuL89U/tbFNUkCUVAcPVJ6CCB/iQ4MgFz76YwNx3L9pdC9EeGFxvvLLMGrSjKFEUv3mZOWp4UR7tFKui+PEbaN7hxJ44d13Kr989x33WoXCQCDC9rBkh8Mh6xbnKyeYUfp9G5slRM0U71U0cgoAsLnNK4IwNhD/fP+m0S/Z429mlN5p4709sXuieO/WdGe0Uq6Lfz5xW02rubI7rcKyzCtTHGVLG9ohBUTJ/vj40ss8c59MWsuguEnRyFk1U9zXwTY4MpRI9j8ytfTycKLzWm1Nk7O7J9xpFQoDYQY9z/MhNYWvBHUcnhjtFwCAuzrdFk4MInywlmozGapVyaFE8vo9E+HSajiBDz4ytfTcUEJOq5AYyHI4pKg88XaIklJ5VoNC0bK38KyBogL0nSCtZujpTtbgWMlIOnvLnonwarVngp62ezfRgaFYxQK18XwWIkycjrF0ssPScy+1r1VXCThbYH1DrCcyK9rGsTXdmlbVMqVz5atazRRqWo2kr2o1lMA3Dyda0+rYfnzHXDnkmRXB1R+gqBfpyH5Ir+WbDRI+rPKk1XSBHJor05ecfrCNGElnN/D9FE9aHduPvzhXDnFu3jrx8aX/AwAYdDrG0slN7Ux1Yw9Z+JzDzVDBNoyHLT1X8uH+UNHIA7x3lZ7k8ozl32r1/m6whyx8zuFKq+kCeXim0LpWQ4kkHEmTB4YT7rSqlumh5/c31ipUBqJmit+DCH9HcJheGeu7rU1Nso32ZReTzAVm0DE3FV1lgSi5Xs3QH7pM67+rnSUQHplyp1W1TMee3++/VkOJ5Po9E+60qpbpruf3v1+rUEzS6zCD/lgiV5KmZopfaEd71EzxXhcP/IKlk81BGAeoLWRcrqXMXM5QKOVCARE+DFHSsUf2i90T7rSaLpDNQRiHzVy5dPn72/q+Wi3LazWcwIeHEu/XKlQ9CJB/Y18y8/iTQbpbQJRU1Qx9S7KrbuvEWM0Ut/CilDJtO1UZ6/tikO0ZSiTVPRPyWokmxn6ye6K4ZTghr9X3t12rVSh20ldxASK8V3DMh/o3jcaDXNEaPFB5iu/6imj7qtHC7KQ9V5uCCNtDiA8KDv/XfLf97aDa881Jea3aaRw2b56uaTWckNdqrnxVq1ANscDVssIy2cB3BbWDrGjZGyXHrxc6taRq68QMul0mfaeikfGg2jGSlteq3cZRZ6aQ+1W1LKfV1vS1WoWxB7GZhQhnRJ6esYG4BhH+zcLs5Ft+3lzN0Me5M50TC5ZObl+YnfwHP+/thoXZySpE+L3YQHyb4FAVAHCOGSUZlx5X7JmQ02q6QG5/83TntHrz9GR1KIHfU66T02quXNMqdD0IqL0dLzKDyrz1YhDhF9RM8W6/7s1LfO0SHccMOmbpuV/7dV+v8HT+VHQcd8X3lZG0nFbVMh2bKXReq+f3y2nFXfGXCaWBgNp+x2O2JUscWjeSr/lxX4jwvRIxCmeDWq3ygqWTvRLDhxEe4egbQwk5rYJarfLCdEFOKx7hGF4DYUZp0dKJPbaVGbPaRnJEzRSfatVfi0cCOmLp/r+NW8HSc7/l5QQcgQjv8fO+PBLQkelCuLSaKchpNZSoaRVaAwG1B/9rZlDRitYVIMIPqhn6c0XLbvJyP/6GFYV+nvVjh9xveI/r+GaECPvmVcvfsEKt/Ngh95vpglir4URNq1AbCKiNsY8xgz7q4pSbFI2cUTPFpyFKuvXL+ZzoAEsnh1xesy3Y8zYAgC447AZFy/pVdVao1XQhnFrNFOS0Gkln1dAbCKgZyXeZQY+4OMUecu1VM/R3aqb4Q9mxt0TMCWMG7Yg3sQyWToRDB78Cz3j2ESfYXDm8Wk0X5LTqCgMBtYf/DQDACy5PgxDhhxSNvBUfX5pWM8V9AmMRLVfOhKXMciOYQV8THQMRltnQk0GoVSf2PGSZK4u1GkrgzaGKQHPCnrRXxvr+Qs0UTftH7+ESIxBh+z+7p7hc212mF5lBTbuT4sc45mJiBhUuEQLuVTqUwEm+pm7OlWnJbQqaoURS5deAAIDZmUJOWCuD58865/TjhQi7WskaSWfXc11Wxnb8uUirallOq07B82c5ajWcwBu7xkDqmPnUt9VM8QLPIuK1/etrEYrY/sFIn8SDnRzhwUIvrnLbvzRdIDtmCrk3ZO6ze6J4gLtsX1mR25omp47tx38h8Va+IHi7S+Wf4v5VzwIARBtrDeHBTmFHqFXXDLFWYuZTz1j68hi43Wk6Hf2Z7B/V1jSZahDTMmj/3f5cdIPdE8U9wwk8vtI4ONv3TNCfiM63dHJBcIiwDTyuo+jVODiB+X75xXRBrFVXGgiordr8vZnHn+J1t9uFY1rLkTT5KwevUYV/7gjvOZqxfSSdFYWXil4aQq9W3s5WNxW7IV2qUKuuNRBQG3NbvO72iOSue0vUY8ibMZxwngCLPueZNkRDIE97PG4YTuCRVq9RjyHvdrraQOrw3uTTPJjoYgebIpofOH7O46JFbhA9k5u3G+gJAwF8lcvMpyYrY30fs3RyFwBgSsa92Q08+0hTqmU61crnHKfVHzZXpqKd6ZbT/lTLdKbVa/DsI2FHqFXPGMhKLD33SmWs7w5LJx9hBn2I75r68eZd7/ThTIH82P6n2cf8c0e471LDnqZapmSuXDKdzocIi0JsL4naMFMgP+IrPK3gqFUYGEqItepJA6lj6blLZj71ZGWs7zYzjwcsnWDuaHiU/5ArLg3neqcP7SHSsf34jmqZHlzxI1+w/58HCwl7tJlC7lfTheU5lb6iB7xYLdP08/tTPxCdL7HP4Whg/HssHNuPU7wX9oqjVmFgOCHWKnQx6Z0kPr70/5z2VphBD5r51Lfb2yp3xMeX/q9gKffFyljfTtnr8Y1CZeVwda5MrT0T9A9OWtkvhef3h1urR6bEWnXdRmHAnBfsQjuVaOg43I3GcZ9DZrNzJXw1qtGKlKNWPONhaOHeyI5aVcv0XE8PsTwgyux4g6Jl/aiEFAgQYWFkJTOo6DvKItRqJB1erYYSYq3myvRMZCArsHQi9B/iEYehhGc5cYIxg0q5u4iYLoi14hGHoYRnOXGCzZXpG5GBrIAZ9HWJoKP7O51lvhGKlr1VYvfbN2/kubJYq+EEvn8oET6tRtJyWs2VSwuRgayAe8OK3oyqopEH2tQkaRSNiFK22j2k23CBpnBvWKFWI+nwabU1LdZqulDTKjKQVVg6Efp2QYQJRMnQrPOrmeI9AIC2B3tNF8RaDScwGUqER6vdE3Ja1YO9IgNZBf8RifYKFJ5IuuPYhgoRflzi0ILfqVr5j0ioFU8k3XFsQx1OyGlVr4wbGcgqmFGy37SHJQ5N8+TWHUXNLMdsCBNUWzo56Pe958olVi3LacWTW3cUHt8i1Gq6cFWryEAaYOnkSfsf0XEQ4cNqptix4qJqpvg9AMB2iUNfCCrJ3UxBTqvhBD68e6JzWu2ekNdqZZK7sKYe7SiL81UGEV6IDcQ/Lzg0FhuIfwUAMNXuUsxqprgPIvwfJQ5llk52MqP0T0G04913qmwogReU68RaKdfVtHJbirlVdk8U9w0n5LSaLpCdc+WrWkU9SBMsnTwjGWOiKBqZUTPFZBuatQwvNCQ1ZGIGHecpgQJjpiCv1dY0mdk90T6t7J5jOCGnVbVMx3lKoCtEPUgTFuerfwIAnOE1AkUvkg/GBuJpiPB7C7OTvmzENcKekA8eqByPDcTvlzzl3OUTo1/l3yUw3n2nphWvESjUSrkunh5K4PfePB2cVvaE/JuTlePKdfJavfrE6Ff5d7lCZCAO2MMmyezpNuvs43hurTPMKP2jn21RM8V7FI38dwDAzZKnLJh5/Fm/29EMe9gkmT3dZp19HM+tdWau7G8bd08U79madqfVsf34s43aEXnzShAfX3rOTb07vsNcsHTyWKvDG0XL3so3AeXTrwCwyAx6l5lPvdrKvb3wyJQ3raYL5LHVwxu3jKSzt/JNQFdaVcv0ruf3N9YqMhAJIErG1Aw97VJ4wB++bumkwAz6Gt+pF6Jo2Y0Q4bu5b5Xr5AnMoA/xsghtZyiRjO2Z8K7VdIEU5sr0Nb5TL2Qknd04lMB3c98q11pVy/QhXhahIZGBSMLLQf/UfiYtXOYcL/Z5YVVGjX6I8CAPdtrsodb3FTppHHV42iBftOKpea7RaiiBB3mwU0taiYwDRAbiDm4kJ1rMFxUU9rDq4U4bRx1uJKHVqlqmD4uMA0STdHcszlf/yAx6PDYQ/3BsIP6ZTrdnBQvMoDvMfOq5TjekzrvvVP84V6bH/+V18Q8r14VLq2qZ7nh+v5xWUQ/iETVTvAcifFiyvHCQnDPzeEeQVWxbZfdE8Z7hRDi0OrYf71hZxVZEZCAtAFFyUM3QpyVdGPyG1TYByWPMECeD6DRDieTgnonOaVXbBCSPySTOWEk0xGqBxfnqe5ae+wnfULyhlQmjS16wdLLz8on7Xg56E9Av3n2n+t5MoabVcKK9Wk0XyM5Xn7jv5dWbgDJEPYiPKFr2Tl5NtuXUnQ1gfG/lYBiq67bKSDp7J68mG5hW0wVysNXqupGBBADfx9jDawKKkk07YT/oGUsnLzCDvuR3PEcY4PsYe3hNwJa1mi6QF+bK9KV6PEerRAYSMLwm4BaI8Ga+z7GBDy9WT1gv8eCjCjPoOWbQM8ygb4S5opXfjKRrWg0l8Ga+zyHUqlqm5+bK9Mxcmb4RREWr/x8AAP//mC6b1mgHT/IAAAAASUVORK5CYII=;fontStyle=1;fontSize=16;fontColor=#999999;" parent="1" vertex="1">
          <mxGeometry x="60" y="240" width="50" height="50" as="geometry" />
        </mxCell>
        <mxCell id="BZeSTdEQzQxEG6EipwHJ-42" value="" style="shape=image;verticalLabelPosition=bottom;labelBackgroundColor=default;verticalAlign=top;aspect=fixed;imageAspect=0;image=data:image/png,iVBORw0KGgoAAAANSUhEUgAAAOEAAADhCAMAAAAJbSJIAAABCFBMVEX///////5CKHTkMiwAn9YAndU/JHI8H3B+a57kLyr///xUtN9UPYAAmdTkMCpAJnM6HG/kKiXjJyItAGg4GW7jHhjb7fbH5/R9wuTjIx1ouuHjGhE0E2z3xLv/+/YxDGqMfqn50sr+8OvzpZr739niDgD+8evY0uHt6fHtgnjnSTjoTkL85eDmOyunm7y4r8jxpaDqcW7vjYLpYV3pXFLtfW/2urDwl47mQDHqYVT3wbbxnZLra1z2xsSXi69tWJHMxtdgS4i0qMbs9/vl4Ouw2u9xXpRPNX3qbWj52NXueGPpWEHrY0zwinfnVEj1s6bymYX0uLWAcZ3PytqPy+ef0+zN6PWXh7EvqYhLAAAUa0lEQVR4nO1cCXfaSBJuSAyWggUSyBNFICxAmEMYL2sum/iKY+cY4x3n+v//ZKsvqSWOoAQ7u+/1997MmMPd/XVVV31VLQ9CEhISEhISEhISEhISEhISEhISEhISEhISEhISEhISEhISEhISEhISEhISEhISEhISEhsg9fsgY9DBHHd0PB60/0UxbA/Ojk8bKp9oG5MFkz4nQ8KgWam3pz3LNE3LCGGRNzofBg+uup3JOJ6PIR7DH7XnmmkauqK9WAJF0Q3TmnwYV5ztsXwmhmAX1R1PddsQuSlAiQB+EN7VLXsyfPC3RPJZGMJvu+OubemMh6Yblml7dq8z/zfGSbdneja2LaevGaYxO94KySdnqMIU/vGJZynB2u3eyfDsofLRbzo0tiCn6Tcg9AxmHdu0GE1FN60hdtf/bYYqUHDbpqnzRZvd9rHbjI0avnQ+jsbTns23w7C7dR/BKOr/KkM4fZWZZyjUePbkw/FHlY61asn40+Zo0DUZScU0x/5vmfEJGYJ/qpWpTc2nm73hCNtO4IbYj4h+m/wbWwt/ywWSBuVoeQP/N3z16Rhi/5x6hJ9i2NP6QgJQU9SL6X9iVoW3K0ODGdLyxrVfpvhkDCG+DBk/y2o3iPHU8EMOB0NdNgm86dS7Ns0ulvfwqzHnSRhiT3PqHvEyzeyNnVCKqeyo+ZVR/dPnHpEypmVN/r4/Hrm+wyZikQVenM6pmyt2x4VT/Qsh5ykYwjKQ2zHx5mtW70wVfhdbzT+9n5g2TguKojEoJEPaxue6W4t9353bxFcVr91EvxBTn8SGSG3TnTdMsF/gnNh2lZlmm4a2VLRhkWPZ9uTsY3hm8UGt0N16YVmVX/DU7TOENTV6FvWsYZM7HU78zYeubeoryIXQLNsauiwE0TU+WHxAB6kJST6BDVHdU8gBxCeH0wZvO4nSA0lKPBMDPFbXRGlq2BZOEYH1nTYd05o0koe8LTNE6tQkCdCuqyiIGM6ZzhIjJQDMevPZfb3y9q3rvn378J9PJx14zwpZgkCYV/i0sEGNDjWj95DQU7fLEHzR75EQas55lob3mm3L4taDk2Z2//PWF1IEherU3PrcsM2g+oD4OQrmReoZ2SPNHqJEAWfLNkQuCXyKVw9yOOZnMNvopt2pf2wuHY7O4jTIYeUcTZHjR2pG66SZKOxtkyFCdVsjIdTl0hO23uD2s+zPI59oMlVdJkxVli1rpyc2/x3F7AanGU6jTSL0JInC2S7DMSFozugmi5EezqV55sfG4Vp0cUl+3eLnVrE/NdmBhqBKAo5iNTZP/ltkiNAAb7HmjXlAR7UPNFsDv79xqSesas0MxJJO5cRjHA2jHkQclxxzxXY3PovbY4gQ8SHF4ycHodHEovy8Gc5vhJ/KJ226/9QHbdxta7cHUBCzTpsaJEHVnTGOij31uVfUTizivJW4Vn96hiolaPJjAxHGVNj63FSgUfCM/j/jD13NtMNuGyRGa3LSrtNEz3OMWjmxqY8bvRGLoMgZknnsyoZW3BZD5qJ6r8EWghpdkyqUySiQIQh7H25IgSaNKzesTSHU0hYUrxzVUY/GHMUeOMS+EI7G5DDgaLZZ+NsGQ7DMGZ7W6Pg0UIKH6sTDdGvMww4uhyINKbxwTQH5/SIkC2LA+vDgM8mGc+mAhRxzykUOzKXRcLMBwW0xRGceJjh3uDO2PbJq84QtC/Or1Q3boMvVaLvNtnq9yaSn458s3kTVdBPObaDYkT+n4VgHx2Tb+UAoehu1N7bDEI04QXZWmHKzIAiqiAYX/56JMg3sZHam7fqpX8PlL/zTrLkP40/zns0bbbrdOWVVJWzNmB1oCGIBRfy6t0le3AZDiOF4T40uJoiLQ2dOxcfkY2DA2tA2mIHMbvu0FtdsBI5/NnvBmsaKPTklwhbHJpojIBGdIaoVqBWNmfNMNqxhVaZ3HNZyaXaoNP3ETAqUB7ZBC2J7Xq+tHgyzbLR79MsgS9kOwbtTGnDsAR+SqCfzfpM0/dsMIYaceYo+adKTg5wJOWuw33yKiknWp9s9Qk9VF3RMMBa5vXE/UYdWvKHDEiSEakrxnjsqCW1QaTwDQzyIa1n42BMX7dES4JQ7qDMji9O9qbt+GGFNTr1H1JBhw9EjyQaNqDwKrXgPZ93wfnoUt8IQ67OPdG+R2tFJjGkQiwLjimVQWeNHVFts9oVlqacTvDGaPWPZFLk03th1bsWZZc9+XmZsiaHKQ0pqTvj0fLr1CN3jrVfsvxvREeiYEERrfq1W48UiHStFs6c6Ir0Lo9dg57vBvGPEU1Knrv5c2GyJYTBc22IEVRp0SNowcQspWAoV1n69Pe32LNrE0Dvz2fg03hJHzhkWpgqjpCKfnHCiZsgXNmqhbpchRDhCkLb98JIMHC/EhhspAM9mkPqM4NoQZI2ugwCANKJGCxB/ahPFRtUqo6gYzdDaz8sQ+bh8w4mY5jEXKzer5/KKAQcioDcPEntcmRqmMcTNGb50lVWE9pAeRuT38J7onT9VAadSFVtXLFbpoAqkSdIA5J/ijtvQYD0KLWy14WYba3Rohtk9ayKW2IMWlDmjyRY1SBqxhglaf9tlCCLS49VFxcIEH1JhTxBVZibN/FBFmLNB/Z+3LkHlYdzueKZFG/jmZNwUOsKkdxFQdMGmilffmODWu4lQPtA0QSyoaxUUXjI1PpCGqWLYveHIjQs3x6+cTT2TxpJJ3QkpklrCxMkfB6mKZ3XdP+elKVbqqugjnBh90uAGBFOMLWw/EDaDSm3JiPgdtXE8JZJNsU9CFlCKQXVht9mrevvP9dqEYX1I/EbX50UqHMAuTti6PR01V46lEsk20PFZ08mVBx+uArLPHrP6/092hINRHUj8mCCv1SGN6HjVs0pq2Uhi2Ic6a9wDjpo5bwgUweeJgkvE7gkZQkzVOyFBZwjKRjFPKtF2tTB49O3awIBEqhsVkSIkk807bL/IcHP+4JRacAZRDQd8wxA1Fv4d1fHxpcXbt26j6UQGgag0A6fWvOPwaufU0syZ+JXVC9icVGwIdLS7BAfnR/3DVvwuAdW4i4GygSygkTYL+ww31PzK+G87RGcwwu1EXlbhVI8bHljN8OudujdshuO3biOrEKdHB8IHF4kY3paziyiUStVi8fYyZsewX9YAD9Xss2CpIGxqD589KAHFuzbL9Iy6IM9hY3CnwB4G3W3korCuRJdFcRHFI2F2lCsJnyRjmE2vQraaiXIMOrs+ENQtV8j7jaFnMgWj4V6botG7Q8XyPrvhBShScWfUHAY7Iz46hK7L4vT5u/CqUm3d5cMPsokYXq1mmE5nirfYTFFLqqmahfMiq1OxMPU/eTjjYRFq653ufHoy704sJlV1e+IGcQc8FXbHPlsW5NB5KTJ7+TrMvDfCMjO5RAzvMmsYptOFu9ZCNG9CNaBPHE4QOQPyiAY4Zad96vPHv9Rmo/5hYhuklJzWwsWeetryTgU6KET39y6oSdChYN5sgnMI25/J59PrUMjFozlqeLo+UYOWKb3hN+zuA5E1KdaioOHPH+i4XNbJNS8zY8XTNG+JSEOPUYbpaj9orF8WBYa7iWxYXk8QfOUxRhFq4HlPRdxDyQ2/4Q2XPlaJJ3G7JCzNnCCCVjzdGy2mQXQROzHYiEsYFg4S2BChYvonyBdvYiuHKihUkUNQ0Dp9QGNZ5ibFv9uBKGT0gnY2GtFyM87wKn5iqpc8GfWrwp5fJ2F4WE0vImrW7O3i4oMgN7OoFEOsGk4F1UVwTQp2Tj2AwNOxfGEVooqWNB8XYwI/iSo6Es4h8N4Y0b1J58tVQLmciVKstpbrKjiEUwsKuzMebMk1W+vw+ugcFEMLCc0LckWIFVpsh6IM0/ETky8essJUDLPwZgKGkRRU6l8C+tdX1ao4F+zZcopoaJG0yE2MUP8xV66WS6VSuVpMX5y3gqIXqQNbU7R1V0sqyi7EhMwV3aUow5vNGYL1xRRUbrH3W/2M4DBwspcyxNeLrNggdWzrR7paCO2fyZaqF33+aB5Cxx7kmNVXS2qqFU2H3F6EvBhmi621pGI2FPcmn28FTfsb4UxA/lnO0O/a81qQNc5LpQUbZKtXl0GWePAUb00zBt0siQkwN/lMlF4JRBuKpiDQCuF0gvuCq6xwK2fMYyK6zC3PO9nqQaDOjz2hAl7EMoZpGskjYbaUiKG4NyIT9CVMI5mFpB98C/Fu/FE1XEI+kxF0RL6cu+FmXHvDuzyuF3CJoaJcODwE2CQMxSTLPIKa5zLCcM3CyLcP+Lfz2XIxm7u6uqsWS3xR2cyXoMZaxzAqvEMj4jMgHBowxOZQI9YHNcSXHDmgmRXnMFzbY5Xbq7R7jQtL1Lq5PM8V2fZlyl9+skdkm86XRBrwSRznWkIigfycxIY50b/PuZgGLZ8WIs3uOoawGz+YBQuF8xs2LkH/okhHyZRuftqOUePCm3tFsQUOLJAvPCZgiCJJtnQUhNLDnOC9YRWzbGEqumYEq7s3ojTF+b+fpuNkc4slygLDXWHOfJh1YOPRpeDA+PXmNoykoHKfvts6PC8Lpl0UpqlU+JwemLtAFpMvH4VKLVh164rOUD742VlWxZiQvwrpghHRpShL+0lM2BLDV/bgCHB+US5GDkS+REWm8Gskx3OGtwVKsI+E5QY/ogs6WPEyDGPxvhL9vnhisreHYaSDrRPFZRLRBok9UloUylhwxYv+AglAr1+JePP1O8/jfToE1HKBdmPrZq5KHR5HQE761QK+Ydbi0X8ULJqvRoV3IoaXy1JQFPkqdlL0am8ngr3X7GF2Go3L57wKQP5p/X587NLHFuELLXqkioGN38WGgsG+4SnEaHKARCP2BXGZryYQbWhFCoqa8JaIipc7L6PY+0o8l/pPIBZQY4qv1fBTew/sDhW2MU+/onKGL+NjvcPfE+Q+jiaCEXOPwhGtJiEYFd7LTVgiURDFF4WXhdMKiQj58iGVj1Dx86edNZM1yFUmnIq8RGEMBRu+xCYUYwIcPdGIoh7Ml1GS9vDyJCuOx5zr3Q6x4c4eBmP4HrywRSoeIq2g6ENtW+iX6iatJEBS56ldqIT9TgbYefUmwFcUE964QxOJreFHmXQihvHezyJBliPh7BBS+4D3lO3eezAPcdI87Tao9NE0gSJp5/A8wD0Z/UUZhqugzizYjLQvIm8IDHOJGK7pB2OUgm4X9ay9fXLNRJcIDFkDEEtzbMOmF7vKpzfXKjvuRebK76kTCAQXGJYOUTRBhsBNlQQMF3o/gvky1epBUDAyz9onT3ftU4aQMGhDuUDTObo34g8qmOQJDjhi2M3YdnGG+yFo2gm9NJ8n8fumuKQgg0SShKEoS9OZAgduQlRz160gSYf7jpP9qx0SKPD7pEqqXpNw65hKnKFFm9t0njL1ePR1LzzS9FyTWCZEPVLNqIvtxTTbzgQMxe5W5uqA4/yaXD0JD8x8JaRefvv27esbkjh2wIQppvroMUQNO07whX4ilOhM2aM3NGgFQXnnFXlbEN7kyKrLjYj3KQFDMUjhCC0iJQC9DkLpDokzO6++k7NDGhclcsDQ20WG2oQ+aklyChQFVNLEUuvOG+LKQkzglSraXYyEJAhtjJY4gCgs42AMhVW9J6s6JK2LAmX4zxKGLygpErNZ/YlYNgy99CvxUsEls49sKa3FcIrrgAQMRdG2smkYehZN08TB9vZVbsP8WhumFmzIDPf9L453ceEdVKqLRiQicnOGovDGv7qaIfcsUMkvaaB4id9m55CU8Mhdcg7n1EuJBxZ+MIZkh76FEp3+cZRwRcQrVVAU1fhJLLWSMPwi2rC4poJjDHe+4wW9ppFmH38/E6YB5NgLT7ZZA0rqSoil75heCJdBq2VBIpevg8okbsR8HsWLr3UQhTfovVUUVS68SdDj2f894q7F9Bia6TGCmk2kKVs9y4fvmGh7HeIb/o4QN7nQwJVJrEmJRVsChtF+8Dob0gzxij6QyNwM8RDCygbkezGGBn3QAvUFTcP0gii8996A44lBpRh2ruJGJKlyc4YHK/rBK2wIDPEr6rI7RC6T0hRCDZWW91bUhFZTSIf5O/Lbqf2F4mnnNYrmvuphuJZWtMAjiWRzhpGO98UaG9KzAyshREhg3XmTChPiAWt0nIgUFfoHMfhCguSUA/rq+2J5+C2qs/PZoDOkxsMpSSSbMxSFd/Z2jQ33aXT4Sk3ymrssV8f5QovZemYHys0w2Z+isY0sRmVpnKHQbsjcCS2fmBHJPm3OUHwQI8iyyyju7wXNBsyQqklEri7JwmgvB7ffRwb+AxlFt7wZezqBFX542cQDvi02Mf6KMbwSGUZLPJIqN2eYy2YCrOn3QTVBG0bvaRPtPY2A70iYpNI2aEQh5A7nk+4UP7aQojf97Bus66q+X2xEvSMnOlhKIXJgIAaFq8wQlZ/AhrkQd0drbMjGZC9YY5GWddSI+TI/OvhDNfwynCMSsPPplhoZSwDh8eMuXEr0whIdhB/l0oepJAwX5llpRP5foVOairQ5M0F0UFPiI0boR5XIeziFtBm35I+HmPWFhcf6ypFlLrRbf5HUpghuqTKFy/jzFfhpql16vAqr49gv4HkZquickshUfyw86XeTo5pirehNjmdliOfbZfG8fNdHYa8bSpfHKgvWxQ2u15LM+MwMUy12NwFmzJ1fsrFb/d0yyfT5oCW5NTw3QxW1LnhWzpTK6avdg8fbXLbMky0muEUXTf0BhhDsDkJVmclmC9lseP9XKF3+ytPq6/DsXornvC4vby5nihdLrh9/d7bnZ4jvxXeLS55pKqevk/2vZzbCn7AhnvVyt1wWSOYzhWruqLV1A6b+FEMsPQ6PLjL4sTbSUy7nHvsrnsn8XfwhG9KL8Nbl0TnGUf/LtrdQmEtCQkJCQkJCQkJCQkJCQkJCQkJCQkJCQkJCQkJCQkJCQkJCQkJCQkJCQkJCQkJCQkJCQkJCQkJCQkJC4v8B/wWH9y3C0vJHRAAAAABJRU5ErkJggg==;clipPath=inset(8.67% 7.78% 7.78% 8.67%);fontStyle=1;fontSize=16;" parent="1" vertex="1">
          <mxGeometry x="1000" y="10" width="120" height="120" as="geometry" />
        </mxCell>
        <mxCell id="BZeSTdEQzQxEG6EipwHJ-21" value="" style="shadow=0;strokeWidth=1;rounded=0;absoluteArcSize=1;arcSize=2;movable=1;resizable=1;rotatable=1;deletable=1;editable=1;locked=0;connectable=1;fillColor=#DAE8FC;strokeColor=#6c8ebf;glass=1;gradientColor=#D4E1F5;sketch=1;curveFitting=1;jiggle=2;" parent="1" vertex="1">
          <mxGeometry x="660" y="482" width="438.25" height="214" as="geometry" />
        </mxCell>
        <mxCell id="BZeSTdEQzQxEG6EipwHJ-20" value="Deployment" style="sketch=0;html=1;dashed=0;whitespace=wrap;fillColor=#2875E2;strokeColor=#ffffff;points=[[0.005,0.63,0],[0.1,0.2,0],[0.9,0.2,0],[0.5,0,0],[0.995,0.63,0],[0.72,0.99,0],[0.5,1,0],[0.28,0.99,0]];verticalLabelPosition=middle;align=left;verticalAlign=middle;shape=mxgraph.kubernetes.icon;prIcon=deploy;aspect=fixed;fontSize=16;labelPosition=right;fontStyle=1;labelBackgroundColor=default;" parent="1" vertex="1">
          <mxGeometry x="630" y="446" width="50" height="48" as="geometry" />
        </mxCell>
        <mxCell id="BZeSTdEQzQxEG6EipwHJ-23" value="" style="shadow=0;strokeWidth=1;rounded=0;absoluteArcSize=1;arcSize=2;movable=1;resizable=1;rotatable=1;deletable=1;editable=1;locked=0;connectable=1;fillColor=#dae8fc;strokeColor=#6c8ebf;glass=1;sketch=1;curveFitting=1;jiggle=2;" parent="1" vertex="1">
          <mxGeometry x="700" y="534" width="360" height="132" as="geometry" />
        </mxCell>
        <mxCell id="BZeSTdEQzQxEG6EipwHJ-19" value="ReplicaSet" style="sketch=0;html=1;dashed=0;whitespace=wrap;fillColor=#2875E2;strokeColor=#ffffff;points=[[0.005,0.63,0],[0.1,0.2,0],[0.9,0.2,0],[0.5,0,0],[0.995,0.63,0],[0.72,0.99,0],[0.5,1,0],[0.28,0.99,0]];verticalLabelPosition=middle;align=left;verticalAlign=middle;shape=mxgraph.kubernetes.icon;prIcon=rs;aspect=fixed;labelPosition=right;fontSize=16;fontStyle=1;labelBackgroundColor=default;" parent="1" vertex="1">
          <mxGeometry x="670" y="498" width="50" height="48" as="geometry" />
        </mxCell>
        <mxCell id="BZeSTdEQzQxEG6EipwHJ-30" value="&lt;font style=&quot;font-size: 16px;&quot;&gt;pod&lt;/font&gt;" style="sketch=0;html=1;dashed=0;whitespace=wrap;fillColor=#2875E2;strokeColor=#ffffff;points=[[0.005,0.63,0],[0.1,0.2,0],[0.9,0.2,0],[0.5,0,0],[0.995,0.63,0],[0.72,0.99,0],[0.5,1,0],[0.28,0.99,0]];verticalLabelPosition=bottom;align=center;verticalAlign=top;shape=mxgraph.kubernetes.icon;prIcon=pod;aspect=fixed;fontSize=16;fontStyle=1;labelBackgroundColor=default;" parent="1" vertex="1">
          <mxGeometry x="943.5" y="566" width="50" height="48" as="geometry" />
        </mxCell>
        <mxCell id="BZeSTdEQzQxEG6EipwHJ-2" value="&lt;font style=&quot;font-size: 16px;&quot;&gt;pod&lt;/font&gt;" style="sketch=0;html=1;dashed=0;whitespace=wrap;fillColor=#2875E2;strokeColor=#ffffff;points=[[0.005,0.63,0],[0.1,0.2,0],[0.9,0.2,0],[0.5,0,0],[0.995,0.63,0],[0.72,0.99,0],[0.5,1,0],[0.28,0.99,0]];verticalLabelPosition=bottom;align=center;verticalAlign=top;shape=mxgraph.kubernetes.icon;prIcon=pod;aspect=fixed;fontSize=16;fontStyle=1;labelBackgroundColor=default;" parent="1" vertex="1">
          <mxGeometry x="763.5" y="566" width="50" height="48" as="geometry" />
        </mxCell>
        <mxCell id="BZeSTdEQzQxEG6EipwHJ-29" value="&lt;font style=&quot;font-size: 16px;&quot;&gt;pod&lt;/font&gt;" style="sketch=0;html=1;dashed=0;whitespace=wrap;fillColor=#2875E2;strokeColor=#ffffff;points=[[0.005,0.63,0],[0.1,0.2,0],[0.9,0.2,0],[0.5,0,0],[0.995,0.63,0],[0.72,0.99,0],[0.5,1,0],[0.28,0.99,0]];verticalLabelPosition=bottom;align=center;verticalAlign=top;shape=mxgraph.kubernetes.icon;prIcon=pod;aspect=fixed;fontSize=16;fontStyle=1;labelBackgroundColor=default;" parent="1" vertex="1">
          <mxGeometry x="853.5" y="566" width="50" height="48" as="geometry" />
        </mxCell>
        <mxCell id="nKFgfXagvvvQuwh54p4n-1" value="&lt;font style=&quot;font-size: 36px;&quot;&gt;Deployment Architecture&lt;/font&gt;" style="text;html=1;align=center;verticalAlign=middle;whiteSpace=wrap;rounded=0;fontSize=36;labelBorderColor=none;fontStyle=1;glass=0;shadow=0;strokeWidth=2;strokeColor=none;fillColor=none;" parent="1" vertex="1">
          <mxGeometry x="346" y="10" width="478" height="100" as="geometry" />
        </mxCell>
        <mxCell id="gJc1-Rh_6Kr2WOo-X1c_-8" value="" style="edgeStyle=orthogonalEdgeStyle;rounded=0;orthogonalLoop=1;jettySize=auto;html=1;sketch=1;curveFitting=1;jiggle=2;" parent="1" source="Qv39Ewv7rEPjo-xS1umV-3" target="mC7L-50lDRy6u6eV8saI-7" edge="1">
          <mxGeometry relative="1" as="geometry" />
        </mxCell>
        <mxCell id="gJc1-Rh_6Kr2WOo-X1c_-16" style="edgeStyle=orthogonalEdgeStyle;rounded=0;orthogonalLoop=1;jettySize=auto;html=1;exitX=1;exitY=0.5;exitDx=0;exitDy=0;entryX=0;entryY=0.5;entryDx=0;entryDy=0;sketch=1;curveFitting=1;jiggle=2;" parent="1" source="tmWXWLN2nS7yruXVPqqC-3" target="tmWXWLN2nS7yruXVPqqC-1" edge="1">
          <mxGeometry relative="1" as="geometry" />
        </mxCell>
        <mxCell id="P-mQC5gGKKPYpPwHG2zG-5" value="&lt;b&gt;&lt;font size=&quot;1&quot; color=&quot;#ffffff&quot; style=&quot;background-color: rgb(0, 0, 0);&quot;&gt;&lt;i style=&quot;font-size: 14px;&quot;&gt;Push&lt;/i&gt;&lt;/font&gt;&lt;/b&gt;" style="edgeLabel;html=1;align=center;verticalAlign=middle;resizable=0;points=[];" parent="gJc1-Rh_6Kr2WOo-X1c_-16" vertex="1" connectable="0">
          <mxGeometry x="0.0143" y="1" relative="1" as="geometry">
            <mxPoint as="offset" />
          </mxGeometry>
        </mxCell>
        <mxCell id="gJc1-Rh_6Kr2WOo-X1c_-9" value="" style="edgeStyle=orthogonalEdgeStyle;rounded=0;orthogonalLoop=1;jettySize=auto;html=1;sketch=1;curveFitting=1;jiggle=2;" parent="1" source="mC7L-50lDRy6u6eV8saI-7" target="tmWXWLN2nS7yruXVPqqC-2" edge="1">
          <mxGeometry relative="1" as="geometry" />
        </mxCell>
        <mxCell id="mC7L-50lDRy6u6eV8saI-7" value="&lt;font style=&quot;&quot;&gt;&lt;font style=&quot;font-size: 16px;&quot;&gt;Build&lt;/font&gt;&lt;br style=&quot;font-size: 14px;&quot;&gt;&lt;/font&gt;&lt;div style=&quot;text-align: left; line-height: 150%; font-size: 12px;&quot;&gt;&lt;span style=&quot;font-weight: normal;&quot;&gt;&lt;font style=&quot;font-size: 12px;&quot;&gt;- Set up Python&lt;/font&gt;&lt;/span&gt;&lt;/div&gt;&lt;font style=&quot;font-size: 12px;&quot;&gt;&lt;div style=&quot;text-align: left; line-height: 150%;&quot;&gt;&lt;span style=&quot;font-weight: normal;&quot;&gt;- Install Dependencies&lt;/span&gt;&lt;/div&gt;&lt;/font&gt;" style="rounded=0;whiteSpace=wrap;html=1;fontSize=14;fontStyle=1;shadow=0;fillColor=#d5e8d4;strokeColor=#82b366;glass=0;strokeWidth=2;sketch=1;curveFitting=1;jiggle=2;spacingTop=0;spacing=2;labelBackgroundColor=none;labelBorderColor=none;perimeterSpacing=2;fillStyle=auto;gradientColor=#FFFFFF;gradientDirection=north;" parent="1" vertex="1">
          <mxGeometry x="180" y="281.5" width="170" height="80" as="geometry" />
        </mxCell>
        <mxCell id="YLSi77d-_Ke5iWAH9jKq-1" style="edgeStyle=orthogonalEdgeStyle;rounded=0;orthogonalLoop=1;jettySize=auto;html=1;exitX=1;exitY=0.5;exitDx=0;exitDy=0;entryX=0.5;entryY=1;entryDx=0;entryDy=0;sketch=1;curveFitting=1;jiggle=2;" edge="1" parent="1" source="mC7L-50lDRy6u6eV8saI-8" target="BZeSTdEQzQxEG6EipwHJ-15">
          <mxGeometry relative="1" as="geometry" />
        </mxCell>
        <mxCell id="YLSi77d-_Ke5iWAH9jKq-2" value="&lt;b&gt;&lt;font color=&quot;#ffffff&quot; style=&quot;font-size: 14px;&quot;&gt;&lt;i style=&quot;background-color: rgb(0, 0, 0);&quot;&gt;Update&lt;/i&gt;&lt;/font&gt;&lt;/b&gt;" style="edgeLabel;html=1;align=center;verticalAlign=middle;resizable=0;points=[];" vertex="1" connectable="0" parent="YLSi77d-_Ke5iWAH9jKq-1">
          <mxGeometry x="0.222" y="6" relative="1" as="geometry">
            <mxPoint as="offset" />
          </mxGeometry>
        </mxCell>
        <mxCell id="mC7L-50lDRy6u6eV8saI-8" value="Update Manifest&lt;br&gt;&lt;font style=&quot;font-weight: normal; font-size: 12px;&quot;&gt;- Update application.yaml&lt;/font&gt;" style="rounded=0;whiteSpace=wrap;html=1;fontSize=16;fontStyle=1;shadow=0;fillColor=#f8cecc;strokeColor=#b85450;glass=0;strokeWidth=2;sketch=1;curveFitting=1;jiggle=2;gradientColor=#FFFFFF;gradientDirection=north;" parent="1" vertex="1">
          <mxGeometry x="180" y="640" width="170" height="80" as="geometry" />
        </mxCell>
        <mxCell id="gJc1-Rh_6Kr2WOo-X1c_-17" value="" style="edgeStyle=orthogonalEdgeStyle;rounded=0;orthogonalLoop=1;jettySize=auto;html=1;sketch=1;curveFitting=1;jiggle=2;startArrow=classic;startFill=1;" parent="1" source="tmWXWLN2nS7yruXVPqqC-1" target="BZeSTdEQzQxEG6EipwHJ-15" edge="1">
          <mxGeometry relative="1" as="geometry" />
        </mxCell>
        <mxCell id="D46rz5uaiEFK8HeDNgyF-7" value="&lt;p style=&quot;line-height: 0%;&quot;&gt;&lt;br&gt;&lt;/p&gt;" style="edgeLabel;html=1;align=center;verticalAlign=middle;resizable=0;points=[];" parent="gJc1-Rh_6Kr2WOo-X1c_-17" vertex="1" connectable="0">
          <mxGeometry x="0.1409" y="5" relative="1" as="geometry">
            <mxPoint as="offset" />
          </mxGeometry>
        </mxCell>
        <mxCell id="P-mQC5gGKKPYpPwHG2zG-3" value="&lt;font size=&quot;1&quot; style=&quot;background-color: rgb(0, 0, 0);&quot; color=&quot;#ffffff&quot;&gt;&lt;b style=&quot;&quot;&gt;&lt;i style=&quot;font-size: 14px;&quot;&gt;Sync&lt;/i&gt;&lt;/b&gt;&lt;/font&gt;" style="edgeLabel;html=1;align=center;verticalAlign=middle;resizable=0;points=[];" parent="gJc1-Rh_6Kr2WOo-X1c_-17" vertex="1" connectable="0">
          <mxGeometry x="0.0835" y="-1" relative="1" as="geometry">
            <mxPoint as="offset" />
          </mxGeometry>
        </mxCell>
        <mxCell id="tmWXWLN2nS7yruXVPqqC-1" value="Docker Hub" style="shape=image;verticalLabelPosition=bottom;labelBackgroundColor=default;verticalAlign=top;aspect=fixed;imageAspect=0;image=data:image/png,iVBORw0KGgoAAAANSUhEUgAAAOEAAADhCAMAAAAJbSJIAAAAbFBMVEX///8kl+0AjuwVk+yIwPQlmO0AkezL4fl8uvP4/f/l8fwble0LkuxutPKRxPSu0vfN5fqhzPZir/Hr9v0Aies2nu6/3Pnk8PzD3/lIpO/b7PtfrfFUqfC11/hxtvKbx/Xy+f7V5/oAheqnz/aG6m7HAAAGE0lEQVR4nO2dfX+qIBSAE5S0Q7YyWy9W7vb9v+NV2+5aHpyYBHTP8+eYL88P5cABaTIhCIIgCIIgCIIgCIIgCIIgCIIgCMIdstUcJbF9Y6PxzjjK6xjOWIBChv5Ahv5Dhv5Dhv5Dhv5Dhv5Dhv5Dhv5Dhv7z+obva4HBXscwmb6h2L4vgvCT7RRjWzcZe7Rouq+KEvywqW0bhARvFNdZVRYztL0MJ8q2VDjYliZ4YGO1YcixIp5OvIqHZEiGZNiD7chKd9g3nK4PRmveumESAOcm46h1w1N1EWhirCFsG26vJxKFsSfVsmH1jH6eNcoM2DWXsGv4fQmAvQG9iW3DH6cRHyYELRuebq8AwkgtWjXMxI+DQc5ezTC9uwBEBlpUq4Yc7s9dvJbhRrSOF+OHfpuGc+T8bPQG1aJhgp4+Gt1wja4xbAxjgRWJ2nCMtYlv7Ye0QqZjG55ijFNZlS3QovhYFWX4YbGO4Rmtw+vj8xoU9y3pFYht39ho4IJVe/oqlThDX8Pgsyl7BbYqQwj0T7bkEQKcqqJEYEVR86SEgBVdowV62DVarAKsTC7ubmohFYaB0J+kW0rAmNeGDC36jIdY0Wc8xIoCaAzRw8S94X2n9OYx1e/YLPHQ3dThqBH/aog2Ia06jJWGQf4ahvi/fV/df8OD2lBoZxd9M6z+t9xPj4vl+XxeXjYfvw+MfTOEPKinLqWsu7pSCMby+Nip6Zth0C6qRPNU/Xo6aYiNDrvhbKXKVTlp2BEtlHBVDsBJQ/ymfoMHGw3DuVVDJEvTBxAF0uY4afg+zBBPyDlpOIGOxrQLrGPupmFHt60TrNfqpqF6+NSJOHpjmCkykt3g42M3DTt7NUrkxSNDZR6jA8BTso4aTvJ+VreIJSborOGAoK9I+p/XDGG9qg3/YEXsT5PVxw9rVl/ihzUr2Qv8MOz90X4TmeEFVKOj2zdtutIesdhpRkTQT1FZZBoK3YgPwsQ8vwmy6fkQCO3BE7DvBFXoLvEhF0zwAb3uW8G9YvrSAaC1OKG3IL+Z/z4O69I6DY9u30H1jIC3sJ/TpkNyPE4j8rtB79ChpZuAyFsjwt3LGAKXbIVMYuT+G0ItJ1g0P5ZYRI1s398jgJRCyigvwsv2XdVnsH2TjwDVgOf3RTm27/IR+k0d+vyU9lvW5rEhnmdqMSD94QiKPFMLf+Nh3+VQhe0bHUzfRRhzX+uQ912W6G3PWyhD/B2pp3XIVz0FJxdP65D1rcKh88e2aXLw/fjw07D3W9j6nMgTdNZ3J8iaIvfRWt69s323A9D7zsLDgAigIzi5+JcwRdcfqMG/t3EZ2GkJqiZ2HYbpfiDr2wixd5f7H6Ff4QL0dyrwrN82YHa+9MoQ+ndIv/EpkQG8HGA4bAGuHYatINn7Ey/029Er/uRMh64g8WYeWDvWf7H3pDUV/ZLcGH50a/onn9osfRhfQP7AVh8+BH2QD322vXK/rWGP7crr/iCR6Y1627jec3t8pxbHBxhySH/7DqcDxijbCblcibqJGQXuViJ/JBDesHV1hDGW4MDvbswznqByOye7jChYDaIc7J3KcTdlc28kLA6jCk4+XHtOxejbQIVuPafMwBZJTq2n1Zxi6sdMOqPIAzP7zG5ceRXNbYecOtE/BROv4Bf624iMDxdGP47cWVcURWlScJJYblDhgbRoT8rIpqLYPeHTSIuKoPjCfHTF3M67CKx41l6WiZXmRkbonkCGWD09LnJ2fqJfRfrc3g2IuHyuYJ24eV57A+xg6NcOOsmKJz2p3I5fzfkZ1cjZ3JZfxftOGHaUMrS82fGCG4wbXEQX+79rlYSmqlGyuSO/1JnF+vtS/AoXu0tp2+ybTH9vkS5Asjy12LqglMt8nIoELmRxcXNnlbeTeFSSSxbEm9K2SQebOR8qWdUdy0/d2986QTJNc6G5ZUwlJ/gh3fizyX+5TQtggv/iCVDvXMxEvjpv3K+6NrPtMi4i/rULM/zbNYdLKeu/8mg3Dy/Tvf2I/hDlbL89XpZpveXR/HSK4zA8XxbH7ccs89yMIAiCIAiCIAiCIAiCIAiCIAiCIP5D/gKorpkSaxqInQAAAABJRU5ErkJggg==;fontSize=16;fontStyle=1;fontColor=#4b95e6;" parent="1" vertex="1">
          <mxGeometry x="468.08" y="159.74" width="60" height="60" as="geometry" />
        </mxCell>
        <mxCell id="gJc1-Rh_6Kr2WOo-X1c_-10" value="" style="edgeStyle=orthogonalEdgeStyle;rounded=0;orthogonalLoop=1;jettySize=auto;html=1;sketch=1;curveFitting=1;jiggle=2;" parent="1" source="tmWXWLN2nS7yruXVPqqC-2" target="tmWXWLN2nS7yruXVPqqC-3" edge="1">
          <mxGeometry relative="1" as="geometry" />
        </mxCell>
        <mxCell id="tmWXWLN2nS7yruXVPqqC-2" value="Test&lt;br&gt;&lt;div style=&quot;text-align: left; line-height: 150%; font-size: 12px;&quot;&gt;&lt;span style=&quot;font-weight: normal; background-color: initial;&quot;&gt;&lt;font style=&quot;font-size: 12px;&quot;&gt;-&amp;nbsp;Lint with flake8&lt;/font&gt;&lt;/span&gt;&lt;/div&gt;&lt;span style=&quot;font-weight: normal; font-size: 12px;&quot;&gt;&lt;div style=&quot;text-align: left; line-height: 150%;&quot;&gt;&lt;span style=&quot;background-color: initial;&quot;&gt;&lt;font style=&quot;font-size: 12px;&quot;&gt;- Test with pytest&lt;/font&gt;&lt;/span&gt;&lt;/div&gt;&lt;/span&gt;" style="rounded=0;whiteSpace=wrap;html=1;fontSize=16;fontStyle=1;shadow=0;fillColor=#fff2cc;strokeColor=#d6b656;glass=0;strokeWidth=2;sketch=1;curveFitting=1;jiggle=2;gradientColor=#FFFFFF;gradientDirection=north;" parent="1" vertex="1">
          <mxGeometry x="180" y="401" width="170" height="80" as="geometry" />
        </mxCell>
        <mxCell id="gJc1-Rh_6Kr2WOo-X1c_-11" value="" style="edgeStyle=orthogonalEdgeStyle;rounded=0;orthogonalLoop=1;jettySize=auto;html=1;sketch=1;curveFitting=1;jiggle=2;" parent="1" source="tmWXWLN2nS7yruXVPqqC-3" target="mC7L-50lDRy6u6eV8saI-8" edge="1">
          <mxGeometry relative="1" as="geometry" />
        </mxCell>
        <mxCell id="tmWXWLN2nS7yruXVPqqC-3" value="&lt;font style=&quot;font-size: 16px;&quot;&gt;Deploy&lt;/font&gt;&lt;br style=&quot;font-size: 14px;&quot;&gt;&lt;div style=&quot;text-align: left; line-height: 150%; font-size: 12px;&quot;&gt;&lt;span style=&quot;font-weight: normal; background-color: initial;&quot;&gt;&lt;font style=&quot;font-size: 12px;&quot;&gt;- Build &amp;amp; Push&amp;nbsp;&lt;/font&gt;&lt;/span&gt;&lt;span style=&quot;background-color: initial; font-weight: normal;&quot;&gt;Docker Image&lt;/span&gt;&lt;/div&gt;" style="rounded=0;whiteSpace=wrap;html=1;fontSize=14;fontStyle=1;shadow=0;fillColor=#dae8fc;strokeColor=#6c8ebf;glass=0;strokeWidth=2;sketch=1;curveFitting=1;jiggle=2;gradientColor=#FFFFFF;gradientDirection=north;" parent="1" vertex="1">
          <mxGeometry x="180" y="521" width="170" height="80" as="geometry" />
        </mxCell>
        <mxCell id="BZeSTdEQzQxEG6EipwHJ-10" value="Code" style="image;aspect=fixed;html=1;points=[];align=center;fontSize=16;image=img/lib/azure2/general/Files.svg;fontStyle=1;labelBackgroundColor=#FFFFFF;" parent="1" vertex="1">
          <mxGeometry x="60" y="511" width="50" height="54.69" as="geometry" />
        </mxCell>
        <mxCell id="gJc1-Rh_6Kr2WOo-X1c_-15" value="" style="group" parent="1" vertex="1" connectable="0">
          <mxGeometry x="240" y="154" width="75" height="71.47000000000003" as="geometry" />
        </mxCell>
        <mxCell id="Qv39Ewv7rEPjo-xS1umV-3" value="&lt;b style=&quot;border-color: var(--border-color);&quot;&gt;&lt;font style=&quot;border-color: var(--border-color); font-size: 16px;&quot;&gt;GitHub Server&lt;/font&gt;&lt;/b&gt;" style="image;aspect=fixed;html=1;points=[];align=center;fontSize=12;image=img/lib/azure2/other/Fiji.svg;" parent="gJc1-Rh_6Kr2WOo-X1c_-15" vertex="1">
          <mxGeometry width="50" height="62.96" as="geometry" />
        </mxCell>
        <mxCell id="rIsiuJnaP-C5yhWFtAA4-3" value="" style="dashed=0;outlineConnect=0;html=1;align=center;labelPosition=center;verticalLabelPosition=bottom;verticalAlign=top;shape=mxgraph.weblogos.github;aspect=fixed;" parent="gJc1-Rh_6Kr2WOo-X1c_-15" vertex="1">
          <mxGeometry x="40" y="36.00000000000003" width="35" height="35.47" as="geometry" />
        </mxCell>
        <mxCell id="D46rz5uaiEFK8HeDNgyF-3" style="edgeStyle=orthogonalEdgeStyle;rounded=0;orthogonalLoop=1;jettySize=auto;html=1;exitX=0.5;exitY=1;exitDx=0;exitDy=0;entryX=1.009;entryY=0.544;entryDx=0;entryDy=0;entryPerimeter=0;sketch=1;curveFitting=1;jiggle=2;" parent="1" source="BZeSTdEQzQxEG6EipwHJ-25" target="BZeSTdEQzQxEG6EipwHJ-6" edge="1">
          <mxGeometry relative="1" as="geometry">
            <mxPoint x="550" y="770" as="targetPoint" />
          </mxGeometry>
        </mxCell>
        <mxCell id="P-mQC5gGKKPYpPwHG2zG-1" value="&lt;p style=&quot;line-height: 0%;&quot;&gt;&lt;font size=&quot;1&quot; color=&quot;#ffffff&quot; style=&quot;&quot;&gt;&lt;b style=&quot;background-color: rgb(0, 0, 0);&quot;&gt;&lt;i style=&quot;font-size: 14px;&quot;&gt;Publish&lt;/i&gt;&lt;/b&gt;&lt;/font&gt;&lt;/p&gt;" style="edgeLabel;html=1;align=center;verticalAlign=middle;resizable=0;points=[];" parent="D46rz5uaiEFK8HeDNgyF-3" vertex="1" connectable="0">
          <mxGeometry x="0.1312" y="1" relative="1" as="geometry">
            <mxPoint as="offset" />
          </mxGeometry>
        </mxCell>
        <mxCell id="D46rz5uaiEFK8HeDNgyF-5" style="edgeStyle=orthogonalEdgeStyle;rounded=0;orthogonalLoop=1;jettySize=auto;html=1;entryX=0.002;entryY=0.554;entryDx=0;entryDy=0;entryPerimeter=0;sketch=1;curveFitting=1;jiggle=2;" parent="1" source="BZeSTdEQzQxEG6EipwHJ-12" target="BZeSTdEQzQxEG6EipwHJ-6" edge="1">
          <mxGeometry relative="1" as="geometry">
            <Array as="points">
              <mxPoint x="85" y="769" />
            </Array>
          </mxGeometry>
        </mxCell>
        <mxCell id="P-mQC5gGKKPYpPwHG2zG-4" value="&lt;font size=&quot;1&quot; color=&quot;#ffffff&quot; style=&quot;&quot;&gt;&lt;b style=&quot;background-color: rgb(0, 0, 0);&quot;&gt;&lt;i style=&quot;font-size: 14px;&quot;&gt;Request&lt;/i&gt;&lt;/b&gt;&lt;/font&gt;" style="edgeLabel;html=1;align=center;verticalAlign=middle;resizable=0;points=[];" parent="D46rz5uaiEFK8HeDNgyF-5" vertex="1" connectable="0">
          <mxGeometry x="0.0684" y="2" relative="1" as="geometry">
            <mxPoint as="offset" />
          </mxGeometry>
        </mxCell>
        <mxCell id="gJc1-Rh_6Kr2WOo-X1c_-13" value="" style="group" parent="1" vertex="1" connectable="0">
          <mxGeometry x="60" y="645.31" width="65" height="59.690000000000055" as="geometry" />
        </mxCell>
        <mxCell id="BZeSTdEQzQxEG6EipwHJ-12" value="Users" style="image;aspect=fixed;html=1;points=[];align=center;fontSize=16;image=img/lib/azure2/identity/Users.svg;fontStyle=1" parent="gJc1-Rh_6Kr2WOo-X1c_-13" vertex="1">
          <mxGeometry width="50" height="54.69" as="geometry" />
        </mxCell>
        <mxCell id="mC7L-50lDRy6u6eV8saI-3" value="Git" style="shape=image;verticalLabelPosition=middle;labelBackgroundColor=default;verticalAlign=middle;aspect=fixed;imageAspect=0;image=https://git-scm.com/images/logos/downloads/Git-Icon-1788C.png;fontSize=14;fontStyle=1;labelPosition=right;align=left;" parent="gJc1-Rh_6Kr2WOo-X1c_-13" vertex="1">
          <mxGeometry x="30" y="24.690000000000055" width="35" height="35" as="geometry" />
        </mxCell>
        <mxCell id="BZeSTdEQzQxEG6EipwHJ-15" value="Argo CD" style="shape=image;verticalLabelPosition=bottom;labelBackgroundColor=default;verticalAlign=top;aspect=fixed;imageAspect=0;image=https://res.cloudinary.com/djproto/image/upload/v1652883033/dj/technologies/logo/tech-logo.png;fontStyle=1;fontSize=16;labelBorderColor=none;" parent="1" vertex="1">
          <mxGeometry x="468.08" y="400" width="60" height="60" as="geometry" />
        </mxCell>
      </root>
    </mxGraphModel>
  </diagram>
  <diagram name="Copy of Architecture" id="xkfg-sCTbUqo6D1BfR-j">
    <mxGraphModel dx="2084" dy="1210" grid="1" gridSize="10" guides="1" tooltips="1" connect="1" arrows="1" fold="1" page="1" pageScale="1" pageWidth="1169" pageHeight="827" math="0" shadow="0">
      <root>
        <mxCell id="72AYrfa2ehSqcX3lbBJk-0" />
        <mxCell id="72AYrfa2ehSqcX3lbBJk-1" parent="72AYrfa2ehSqcX3lbBJk-0" />
        <mxCell id="72AYrfa2ehSqcX3lbBJk-2" value="" style="shadow=1;strokeWidth=1;rounded=1;absoluteArcSize=1;arcSize=2;movable=1;resizable=1;rotatable=1;deletable=1;editable=1;locked=0;connectable=1;" vertex="1" parent="72AYrfa2ehSqcX3lbBJk-1">
          <mxGeometry x="607" y="184" width="543" height="580" as="geometry" />
        </mxCell>
        <mxCell id="72AYrfa2ehSqcX3lbBJk-3" value="" style="image;sketch=0;aspect=fixed;html=1;points=[];align=center;fontSize=12;image=img/lib/mscae/Kubernetes.svg;" vertex="1" parent="72AYrfa2ehSqcX3lbBJk-1">
          <mxGeometry x="713.5" y="220" width="50" height="48" as="geometry" />
        </mxCell>
        <mxCell id="72AYrfa2ehSqcX3lbBJk-4" value="" style="editableCssRules=.*;html=1;shape=image;verticalLabelPosition=bottom;labelBackgroundColor=#ffffff;verticalAlign=top;aspect=fixed;imageAspect=0;image=data:image/svg+xml,PHN2ZyB4bWxucz0iaHR0cDovL3d3dy53My5vcmcvMjAwMC9zdmciIHhtbG5zOnhsaW5rPSJodHRwOi8vd3d3LnczLm9yZy8xOTk5L3hsaW5rIiB4bWxuczp2PSJodHRwczovL3ZlY3RhLmlvL25hbm8iIHdpZHRoPSI3MTguNjM1MDcwODAwNzgxMiIgaGVpZ2h0PSIxMDYuNjUwMDAxNTI1ODc4OSIgdmlld0JveD0iMTAgMTAgNzE4LjYzNTA3MDgwMDc4MTIgMTA2LjY1MDAwMTUyNTg3ODkiPiYjeGE7CTxzdHlsZSB0eXBlPSJ0ZXh0L2NzcyI+JiN4YTsJLnN0MHtmaWxsOiMzMjZkZTU7fSYjeGE7CTwvc3R5bGU+JiN4YTsJPGcgY2xhc3M9InN0MCIgZmlsbD0iIzMyNmRlNSI+JiN4YTsJCTxwYXRoIGQ9Ik0zMC4xMTUgNjkuNGw2LjA3NS02Ljc1IDYuMjEtNi44ODUgNS41MzUtNi42MTUgNC41OS01LjRINzYuNDJMNjIuMzggNTkuNTQ1Yy00LjUgNC45NS05LjQ1IDEwLjA4LTE0Ljg1IDE1LjM5IDIuNyAyLjQzIDUuNDkgNS4zNTUgOC4zNyA4Ljc3NWExOTEuODYgMTkxLjg2IDAgMCAxIDguMzcgMTAuMzk1YzIuNyAzLjYgNS4xNzUgNy4yIDcuNDI1IDEwLjhzNC4xNCA2Ljg4NSA1LjY3IDkuODU1SDU0LjI4Yy0xLjQ0LTIuMzQtMy4xMDUtNC45MDUtNC45OTUtNy42OTUtMS44LTIuODgtMy43MzUtNS43MTUtNS44MDUtOC41MDVhOTguMDcgOTguMDcgMCAwIDAtNi42MTUtOC4yMzVjLTIuMjUtMi42MS00LjUtNC44MTUtNi43NS02LjYxNXYzMS4wNUgxMFYxMy4yNEwzMC4xMTUgMTB2NTkuNG0xMTcuMjI5IDQyLjkzYy0zLjQyLjk5LTcuODMgMS44OS0xMy4yMyAyLjctNS40LjktMTEuMDcgMS4zNS0xNy4wMSAxLjM1LTYuMDMgMC0xMS4wNy0uODEtMTUuMTItMi40My0zLjk2LTEuNjItNy4xMS0zLjg3LTkuNDUtNi43NS0yLjM0LTIuOTctNC4wMDUtNi40OC00Ljk5NS0xMC41M3MtMS40ODUtOC41MDUtMS40ODUtMTMuMzY1VjQzLjc1aDIwLjExNXYzNy4xMjVjMCA2LjQ4Ljg1NSAxMS4xNiAyLjU2NSAxNC4wNHM0LjkwNSA0LjMyIDkuNTg1IDQuMzJhODIuOTUgODIuOTUgMCAwIDAgNC41OS0uMTM1bDQuMzItLjU0VjQzLjc1aDIwLjExNXY2OC41OG02NC41MDktMzMuNjE1YzAtMTIuOTYtNC43Ny0xOS40NC0xNC4zMS0xOS40NC0yLjA3IDAtNC4xNC4yNy02LjIxLjgxLTEuOTguNTQtMy42IDEuMjE1LTQuODYgMi4wMjV2MzYuNTg1Yy45OS4xOCAyLjI1LjM2IDMuNzguNTRhODUuNDQgODUuNDQgMCAwIDAgNC45OTUuMTM1YzUuNDkgMCA5LjYzLTEuODkgMTIuNDItNS42N3M0LjE4NS04Ljc3NSA0LjE4NS0xNC45ODVtMjAuNTIuNTRjMCA1LjY3LS44NTUgMTAuOC0yLjU2NSAxNS4zOS0xLjYyIDQuNTktNC4wMDUgOC41MDUtNy4xNTUgMTEuNzQ1cy03LjAyIDUuNzYtMTEuNjEgNy41NmMtNC41OSAxLjcxLTkuODEgMi41NjUtMTUuNjYgMi41NjUtMi40MyAwLTQuOTk1LS4xMzUtNy42OTUtLjQwNWExMTUuMzkgMTE1LjM5IDAgMCAxLTcuODMtLjgxYy0yLjUyLS4zNi00Ljk1LS43NjUtNy4yOS0xLjIxNS0yLjM0LS41NC00LjQxLTEuMDgtNi4yMS0xLjYyVjEzLjI0TDE4Ni40NzMgMTB2MzUuMzdjMi4yNS0uOTkgNC41OS0xLjc1NSA3LjAyLTIuMjk1czUuMDQtLjgxIDcuODMtLjgxYzUuMDQgMCA5LjQ5NS45IDEzLjM2NSAyLjcgMy44NyAxLjcxIDcuMTEgNC4xODUgOS43MiA3LjQyNXM0LjU5IDcuMTU1IDUuOTQgMTEuNzQ1YzEuMzUgNC41IDIuMDI1IDkuNTQgMi4wMjUgMTUuMTIiLz4mI3hhOwkJPHVzZSB4bGluazpocmVmPSIjQiIvPiYjeGE7CQk8cGF0aCBkPSJNMzY5LjQ2NSA2MS41N2wtNi4zNDUtMS4zNWMtMi40My0uNTQtNS4wNC0uODEtNy44My0uODEtMS4yNiAwLTIuNzkuMTM1LTQuNTkuNDA1LTEuNzEuMTgtMy4wMTUuNDA1LTMuOTE1LjY3NXY1NC4yN0gzMjYuNjdWNDcuNTNjMy42LTEuMjYgNy44My0yLjQzIDEyLjY5LTMuNTEgNC45NS0xLjE3IDEwLjQ0LTEuNzU1IDE2LjQ3LTEuNzU1IDEuMDggMCAyLjM4NS4wOSAzLjkxNS4yN2EzOS45IDM5LjkgMCAwIDEgNC41OS41NCA0MC45MiA0MC45MiAwIDAgMSA0LjU5LjgxYzEuNTMuMjcgMi44MzUuNjMgMy45MTUgMS4wOGwtMy4zNzUgMTYuNjA1bTE0LjE1OC0xNS4zOWMzLjQyLS45OSA3LjgzLTEuODkgMTMuMjMtMi43IDUuNC0uOSAxMS4wNy0xLjM1IDE3LjAxLTEuMzUgNi4wMyAwIDExLjAyNS44MSAxNC45ODUgMi40MyA0LjA1IDEuNTMgNy4yNDUgMy43MzUgOS41ODUgNi42MTVzNC4wMDUgNi4zIDQuOTk1IDEwLjI2IDEuNDg1IDguMzcgMS40ODUgMTMuMjN2NDAuMDk1aC0yMC4xMTVWNzcuMDk1YzAtNi40OC0uODU1LTExLjA3LTIuNTY1LTEzLjc3cy00LjkwNS00LjA1LTkuNTg1LTQuMDVhNDEuNjYgNDEuNjYgMCAwIDAtNC41OS4yNyA1MC43NyA1MC43NyAwIDAgMC00LjMyLjQwNXY1NC44MWgtMjAuMTE1VjQ2LjE4bTc2LjI1NCAzMy42MTVjMC02LjMuOTQ1LTExLjc5IDIuODM1LTE2LjQ3IDEuOTgtNC43NyA0LjU0NS04LjczIDcuNjk1LTExLjg4czYuNzUtNS41MzUgMTAuOC03LjE1NWM0LjE0LTEuNjIgOC4zNy0yLjQzIDEyLjY5LTIuNDMgMTAuMDggMCAxOC4wNDUgMy4xMDUgMjMuODk1IDkuMzE1IDUuODUgNi4xMiA4Ljc3NSAxNS4xNjUgOC43NzUgMjcuMTM1IDAgMS4xNy0uMDQ1IDIuNDc1LS4xMzUgMy45MTVsLS4yNyAzLjY0NWgtNDUuNjNjLjQ1IDQuMTQgMi4zODUgNy40MjUgNS44MDUgOS44NTVzOC4wMSAzLjY0NSAxMy43NyAzLjY0NWMzLjY5IDAgNy4yOS0uMzE1IDEwLjgtLjk0NSAzLjYtLjcyIDYuNTI1LTEuNTc1IDguNzc1LTIuNTY1bDIuNyAxNi4zMzVjLTEuMDguNTQtMi41MiAxLjA4LTQuMzIgMS42MnMtMy44MjUuOTktNi4wNzUgMS4zNWMtMi4xNi40NS00LjUuODEtNy4wMiAxLjA4cy01LjA0LjQwNS03LjU2LjQwNWMtNi4zOSAwLTExLjk3LS45NDUtMTYuNzQtMi44MzUtNC42OC0xLjg5LTguNTk1LTQuNDU1LTExLjc0NS03LjY5NS0zLjA2LTMuMzMtNS4zNTUtNy4yNDUtNi44ODUtMTEuNzQ1LTEuNDQtNC41LTIuMTYtOS4zNi0yLjE2LTE0LjU4bTQ3LjI1LTcuNjk1YTE4Ljg2IDE4Ljg2IDAgMCAwLS45NDUtNC45OTVjLS40NS0xLjYyLTEuMjE1LTMuMDYtMi4yOTUtNC4zMi0uOTktMS4yNi0yLjI5NS0yLjI5NS0zLjkxNS0zLjEwNS0xLjUzLS44MS0zLjQ2NS0xLjIxNS01LjgwNS0xLjIxNS0yLjI1IDAtNC4xODUuNDA1LTUuODA1IDEuMjE1LTEuNjIuNzItMi45NyAxLjcxLTQuMDUgMi45N3MtMS45MzUgMi43NDUtMi41NjUgNC40NTVhMzEuMTEgMzEuMTEgMCAwIDAtMS4yMTUgNC45OTVoMjYuNTk1bTM0LjI4OC00Ni4wMzVsMjAuMTE1LTMuMjRWNDMuNzVoMjQuMTY1djE2Ljc0SDU2MS41M3YyNC45NzVjMCA0LjIzLjcyIDcuNjA1IDIuMTYgMTAuMTI1IDEuNTMgMi41MiA0LjU0NSAzLjc4IDkuMDQ1IDMuNzggMi4xNiAwIDQuMzY1LS4xOCA2LjYxNS0uNTQgMi4zNC0uNDUgNC40NTUtMS4wMzUgNi4zNDUtMS43NTVsMi44MzUgMTUuNjZjLTIuNDMuOTktNS4xMyAxLjg0NS04LjEgMi41NjVzLTYuNjE1IDEuMDgtMTAuOTM1IDEuMDhjLTUuNDkgMC0xMC4wMzUtLjcyLTEzLjYzNS0yLjE2LTMuNi0xLjUzLTYuNDgtMy42LTguNjQtNi4yMS0yLjE2LTIuNy0zLjY5LTUuOTQtNC41OS05LjcyLS44MS0zLjc4LTEuMjE1LTcuOTY1LTEuMjE1LTEyLjU1NXYtNTkuNjciLz4mI3hhOwkJPHVzZSB4bGluazpocmVmPSIjQiIgeD0iMzUxLjQ3NSIvPiYjeGE7CQk8cGF0aCBkPSJNNjk4LjUzIDEwMC4zMTVjMy42OSAwIDYuMy0uMzYgNy44My0xLjA4czIuMjk1LTIuMTE1IDIuMjk1LTQuMTg1YzAtMS42Mi0uOTktMy4wMTUtMi45Ny00LjE4NS0xLjk4LTEuMjYtNC45OTUtMi42NTUtOS4wNDUtNC4xODVMNjg4IDgzLjAzNWMtMi41Mi0xLjI2LTQuNjgtMi43NDUtNi40OC00LjQ1NS0xLjgtMS44LTMuMTk1LTMuOTE1LTQuMTg1LTYuMzQ1cy0xLjQ4NS01LjM1NS0xLjQ4NS04Ljc3NWMwLTYuNjYgMi40NzUtMTEuOTI1IDcuNDI1LTE1Ljc5NXMxMS43NDUtNS44MDUgMjAuMzg1LTUuODA1YzQuMzIgMCA4LjQ2LjQwNSAxMi40MiAxLjIxNSAzLjk2LjcyIDcuMTEgMS41MyA5LjQ1IDIuNDNsLTMuNTEgMTUuNjZjLTIuMzQtLjgxLTQuOTA1LTEuNTMtNy42OTUtMi4xNi0yLjctLjYzLTUuNzYtLjk0NS05LjE4LS45NDUtNi4zIDAtOS40NSAxLjc1NS05LjQ1IDUuMjY1IDAgLjgxLjEzNSAxLjUzLjQwNSAyLjE2cy44MSAxLjI2IDEuNjIgMS44OWMuODEuNTQgMS44OSAxLjE3IDMuMjQgMS44OSAxLjQ0LjYzIDMuMjQgMS4zNSA1LjQgMi4xNiA0LjQxIDEuNjIgOC4wNTUgMy4yNCAxMC45MzUgNC44NiAyLjg4IDEuNTMgNS4xMyAzLjI0IDYuNzUgNS4xMyAxLjcxIDEuOCAyLjg4IDMuODI1IDMuNTEgNi4wNzUuNzIgMi4yNSAxLjA4IDQuODYgMS4wOCA3LjgzIDAgNy4wMi0yLjY1NSAxMi4zMy03Ljk2NSAxNS45My01LjIyIDMuNi0xMi42NDUgNS40LTIyLjI3NSA1LjQtNi4zIDAtMTEuNTY1LS41NC0xNS43OTUtMS42Mi00LjE0LTEuMDgtNy4wMi0xLjk4LTguNjQtMi43bDMuMzc1LTE2LjMzNWE3MS4yIDcxLjIgMCAwIDAgMTAuNTMgMy4yNCA1NC4yOCA1NC4yOCAwIDAgMCAxMC42NjUgMS4wOCIvPiYjeGE7CTwvZz4mI3hhOwk8ZGVmcz4mI3hhOwkJPHBhdGggaWQ9IkIiIGQ9Ik0yNDQuNDU3IDc5Ljc5NWMwLTYuMy45NDUtMTEuNzkgMi44MzUtMTYuNDcgMS45OC00Ljc3IDQuNTQ1LTguNzMgNy42OTUtMTEuODhzNi43NS01LjUzNSAxMC44LTcuMTU1YzQuMTQtMS42MiA4LjM3LTIuNDMgMTIuNjktMi40MyAxMC4wOCAwIDE4LjA0NSAzLjEwNSAyMy44OTUgOS4zMTUgNS44NSA2LjEyIDguNzc1IDE1LjE2NSA4Ljc3NSAyNy4xMzUgMCAxLjE3LS4wNDUgMi40NzUtLjEzNSAzLjkxNWwtLjI3IDMuNjQ1aC00NS42M2MuNDUgNC4xNCAyLjM4NSA3LjQyNSA1LjgwNSA5Ljg1NXM4LjAxIDMuNjQ1IDEzLjc3IDMuNjQ1YzMuNjkgMCA3LjI5LS4zMTUgMTAuOC0uOTQ1IDMuNi0uNzIgNi41MjUtMS41NzUgOC43NzUtMi41NjVsMi43IDE2LjMzNWMtMS4wOC41NC0yLjUyIDEuMDgtNC4zMiAxLjYycy0zLjgyNS45OS02LjA3NSAxLjM1Yy0yLjE2LjQ1LTQuNS44MS03LjAyIDEuMDhzLTUuMDQuNDA1LTcuNTYuNDA1Yy02LjM5IDAtMTEuOTctLjk0NS0xNi43NC0yLjgzNS00LjY4LTEuODktOC41OTUtNC40NTUtMTEuNzQ1LTcuNjk1LTMuMDYtMy4zMy01LjM1NS03LjI0NS02Ljg4NS0xMS43NDUtMS40NC00LjUtMi4xNi05LjM2LTIuMTYtMTQuNThtNDcuMjUtNy42OTVhMTguODYgMTguODYgMCAwIDAtLjk0NS00Ljk5NWMtLjQ1LTEuNjItMS4yMTUtMy4wNi0yLjI5NS00LjMyLS45OS0xLjI2LTIuMjk1LTIuMjk1LTMuOTE1LTMuMTA1LTEuNTMtLjgxLTMuNDY1LTEuMjE1LTUuODA1LTEuMjE1LTIuMjUgMC00LjE4NS40MDUtNS44MDUgMS4yMTUtMS42Mi43Mi0yLjk3IDEuNzEtNC4wNSAyLjk3cy0xLjkzNSAyLjc0NS0yLjU2NSA0LjQ1NWMtLjU0IDEuNjItLjk0NSAzLjI4NS0xLjIxNSA0Ljk5NWgyNi41OTUiLz4mI3hhOwk8L2RlZnM+JiN4YTs8L3N2Zz4=;fontColor=default;" vertex="1" parent="72AYrfa2ehSqcX3lbBJk-1">
          <mxGeometry x="773.5" y="224" width="270" height="40" as="geometry" />
        </mxCell>
        <mxCell id="72AYrfa2ehSqcX3lbBJk-5" value="Website" style="image;aspect=fixed;html=1;points=[];align=center;fontSize=16;image=img/lib/azure2/app_services/App_Service_Domains.svg;fontStyle=1" vertex="1" parent="72AYrfa2ehSqcX3lbBJk-1">
          <mxGeometry x="90" y="60" width="65" height="52" as="geometry" />
        </mxCell>
        <mxCell id="72AYrfa2ehSqcX3lbBJk-6" value="Curl" style="image;aspect=fixed;html=1;points=[];align=center;fontSize=16;image=img/lib/azure2/general/Powershell.svg;fontStyle=1" vertex="1" parent="72AYrfa2ehSqcX3lbBJk-1">
          <mxGeometry x="35" y="168" width="65" height="52" as="geometry" />
        </mxCell>
        <mxCell id="72AYrfa2ehSqcX3lbBJk-7" value="" style="image;aspect=fixed;html=1;points=[];align=center;fontSize=12;image=img/lib/azure2/general/Templates.svg;" vertex="1" parent="72AYrfa2ehSqcX3lbBJk-1">
          <mxGeometry x="400" y="710" width="56.00000000000001" height="68" as="geometry" />
        </mxCell>
        <mxCell id="72AYrfa2ehSqcX3lbBJk-8" value="src" style="image;aspect=fixed;html=1;points=[];align=center;fontSize=14;image=img/lib/azure2/general/Folder_Blank.svg;fontStyle=1" vertex="1" parent="72AYrfa2ehSqcX3lbBJk-1">
          <mxGeometry x="320" y="760" width="50" height="40.58" as="geometry" />
        </mxCell>
        <mxCell id="72AYrfa2ehSqcX3lbBJk-9" value="Code" style="image;aspect=fixed;html=1;points=[];align=center;fontSize=16;image=img/lib/azure2/general/Files.svg;fontStyle=1" vertex="1" parent="72AYrfa2ehSqcX3lbBJk-1">
          <mxGeometry x="50" y="556" width="50" height="54.69" as="geometry" />
        </mxCell>
        <mxCell id="72AYrfa2ehSqcX3lbBJk-10" value="app.py" style="image;aspect=fixed;html=1;points=[];align=center;fontSize=14;image=img/lib/azure2/general/File.svg;fontStyle=1" vertex="1" parent="72AYrfa2ehSqcX3lbBJk-1">
          <mxGeometry x="485" y="713.9999999999999" width="40.58" height="50" as="geometry" />
        </mxCell>
        <mxCell id="72AYrfa2ehSqcX3lbBJk-11" value="Users" style="image;aspect=fixed;html=1;points=[];align=center;fontSize=16;image=img/lib/azure2/identity/Users.svg;fontStyle=1" vertex="1" parent="72AYrfa2ehSqcX3lbBJk-1">
          <mxGeometry x="50" y="675.31" width="50" height="54.69" as="geometry" />
        </mxCell>
        <mxCell id="72AYrfa2ehSqcX3lbBJk-12" value="Argo CD" style="shape=image;verticalLabelPosition=bottom;labelBackgroundColor=default;verticalAlign=top;aspect=fixed;imageAspect=0;image=https://res.cloudinary.com/djproto/image/upload/v1652883033/dj/technologies/logo/tech-logo.png;fontStyle=1;fontSize=16;" vertex="1" parent="72AYrfa2ehSqcX3lbBJk-1">
          <mxGeometry x="465.58" y="346" width="60" height="60" as="geometry" />
        </mxCell>
        <mxCell id="72AYrfa2ehSqcX3lbBJk-13" value="GitHub" style="shape=image;verticalLabelPosition=bottom;labelBackgroundColor=default;verticalAlign=top;aspect=fixed;imageAspect=0;image=https://cdn-icons-png.flaticon.com/512/25/25231.png;fontStyle=1;fontSize=16;" vertex="1" parent="72AYrfa2ehSqcX3lbBJk-1">
          <mxGeometry x="50" y="439" width="50" height="50" as="geometry" />
        </mxCell>
        <mxCell id="72AYrfa2ehSqcX3lbBJk-14" value="" style="edgeStyle=orthogonalEdgeStyle;rounded=0;orthogonalLoop=1;jettySize=auto;html=1;" edge="1" parent="72AYrfa2ehSqcX3lbBJk-1" source="72AYrfa2ehSqcX3lbBJk-15" target="72AYrfa2ehSqcX3lbBJk-23">
          <mxGeometry relative="1" as="geometry" />
        </mxCell>
        <mxCell id="72AYrfa2ehSqcX3lbBJk-15" value="Service" style="sketch=0;html=1;dashed=0;whitespace=wrap;fillColor=#2875E2;strokeColor=#ffffff;points=[[0.005,0.63,0],[0.1,0.2,0],[0.9,0.2,0],[0.5,0,0],[0.995,0.63,0],[0.72,0.99,0],[0.5,1,0],[0.28,0.99,0]];verticalLabelPosition=bottom;align=center;verticalAlign=top;shape=mxgraph.kubernetes.icon;prIcon=svc;aspect=fixed;fontSize=16;labelBackgroundColor=default;fontStyle=1" vertex="1" parent="72AYrfa2ehSqcX3lbBJk-1">
          <mxGeometry x="853.5" y="420" width="50" height="48" as="geometry" />
        </mxCell>
        <mxCell id="72AYrfa2ehSqcX3lbBJk-16" value="" style="edgeStyle=orthogonalEdgeStyle;rounded=0;orthogonalLoop=1;jettySize=auto;html=1;" edge="1" parent="72AYrfa2ehSqcX3lbBJk-1" source="72AYrfa2ehSqcX3lbBJk-17" target="72AYrfa2ehSqcX3lbBJk-15">
          <mxGeometry relative="1" as="geometry" />
        </mxCell>
        <mxCell id="72AYrfa2ehSqcX3lbBJk-17" value="Ingress" style="sketch=0;html=1;dashed=0;whitespace=wrap;fillColor=#2875E2;strokeColor=#ffffff;points=[[0.005,0.63,0],[0.1,0.2,0],[0.9,0.2,0],[0.5,0,0],[0.995,0.63,0],[0.72,0.99,0],[0.5,1,0],[0.28,0.99,0]];verticalLabelPosition=bottom;align=center;verticalAlign=top;shape=mxgraph.kubernetes.icon;prIcon=ing;fontSize=16;labelBackgroundColor=default;fontStyle=1" vertex="1" parent="72AYrfa2ehSqcX3lbBJk-1">
          <mxGeometry x="853.5" y="310" width="50" height="48" as="geometry" />
        </mxCell>
        <mxCell id="72AYrfa2ehSqcX3lbBJk-18" value="Endpoint" style="sketch=0;html=1;dashed=0;whitespace=wrap;fillColor=#2875E2;strokeColor=#ffffff;points=[[0.005,0.63,0],[0.1,0.2,0],[0.9,0.2,0],[0.5,0,0],[0.995,0.63,0],[0.72,0.99,0],[0.5,1,0],[0.28,0.99,0]];verticalLabelPosition=bottom;align=center;verticalAlign=top;shape=mxgraph.kubernetes.icon;prIcon=ep;fontStyle=1;fontSize=16;" vertex="1" parent="72AYrfa2ehSqcX3lbBJk-1">
          <mxGeometry x="980" y="380" width="50" height="48" as="geometry" />
        </mxCell>
        <mxCell id="72AYrfa2ehSqcX3lbBJk-19" value="GitHub Actions" style="shape=image;verticalLabelPosition=bottom;labelBackgroundColor=default;verticalAlign=top;aspect=fixed;imageAspect=0;image=data:image/png,iVBORw0KGgoAAAANSUhEUgAAAMgAAADICAYAAACtWK6eAAAnO0lEQVR4nOyde2wb173nj1yie/4QuqPCuBnsFST21N24aMqk67QxYHl52ExSp3WbtLERX5tFlNuUcXtTOMXm2srednmIJltVm6DOxt04vO7GQug0XicbZ6+zVeoJeLjSRR3UQl3GbVysMyW1vthJ63s1CYSLg65QLUY8tGWFnHNmOEMOqfkAgRFxHoff4W/O6/eIgQ4DUbIfInwjAOAmRSMbAQBx/l8//3c1lwEAFgDgEgDgoqWTiwCA8wCANyw9d7kDXyGih+nrxE0VLbsFIrwNIqwBAG4GAPhlqBUAALV0MsUM+iozSgs+XTdijdI2A1G07CaIcBoivAMAMNiGWzIAwJSlkwIz6CvMKC224Z4RPUagBgJRMgYRvkfRyEO8p+gUJjPoYUsnzzCjZHawHRFdRiAGYhuGopE9EOHvAAA2BHEPjzBuKD+IDCVCBt8NRNGyn1M0chAAsNHva/uIxQz6uKWTJ5hRYp1uTER48c1AIEqqaoY+BQDY4dc128AFSyd7LT1X6nRDIsLJB/y4iJop3q1o5GcAgH/jx/XayHqI8ChEeP3ifKW4OF+NJvIR19BSDwJREioa+SFEeK9P7bHstzp/s1f4nsfKpdoYAGBQ0YjK90hu8HFF7JyZxzuYUXrbp+tF9ACeDYQPqf6uxdUp+8d/ytLJFN/ou+D2AoqWXQ8A2AIR1iDC21pcFLDnJrvMfOq1Fq4R0UN4MhCIkterGap7fHvbw5iTfH/iNb8nyYqWvZHvt4zaQygv7WMGfdDMp57xs10R3YlrA1EzRfttfdLDj295iZUZ9AlLz11ye1+38OHfHojwmJdehRn0ITOfejKY1kV0C64MhBvHFPeTkmWR7z081om9B74ncy9E+FH7K7g5NzKSCGkD4cOqGZc9xxlLJ/dbeu7X3prnHxAlFUUj34MIP+jmvMhI1jZSy7x8Qj7j4g1s9xr//vKJ0a8vzE6+01oT/WFxvsoWZid/CgCg3EnyQzLnxQbi2yDC5xdmJ98KvpURYUNoIPZYXs3Q0y52xk1LJ7dfPnHf8cX56p9ab6K/MKNUZQZ9rn/TaEJ2bhIbiH8eAPA/mVEKhbFHtA+hgazfefSp2ED8S5LXO2fm8daF2cnftt604Ficr/4zM+jx2ED8w7GB+GckTvkgRHgbM+ik3RO1oYkRIcFxDqJmindDhF+UvNaMmcd3dFsMhpop/juI8OOSh79YGevbGXCTIkLEumYfQJQchAgfkbxOVxqHjZlPPWFPxCUP36FminsCblJEiGg6xBo8UPmxpG+VPay6tRuNo87C7OQbEGEYG4iPiI6NDcT/LTPos/YwrT2ti+gkDYdY3GV9SuJ808zjT7nd34AoqSoa+RpEeDuf/Cv2tfiy8Iv2/KATEYDx8aWfAAB2SRx6pDLW9/U2NCmiw7yvB4EoGVu/8+j/kNjvWLR0crvbCbmaKe5TNHIyNhDfxl1VIP+o3zYWiPBX+jeN7gYA/IYZpd+5+jYtwgz6Wv+m0S8BAP5McKjds56MVrV6n/fNQRSN7JFZ0mUG/Y6l595wczM1U/whRPigxE78BkUjenx86VmIkl78qTxhDxMtnezi8eyOKBqRndhHdDHX9CDcLeO/AQA+LDjvzOUTo193s8/BV4v+g8v23dS/afQvIcK/X5id/JXLcz3BjNIfIMIsNhC/XXAoAgBMMaP0D+1oV0RnuKYHgQjfI7F5Zg+t7nczR7DnHNwXygvrIcJH4+NLRUXLtiW+3dLJkzzXliOKRsba0Z6IznFND6Jm6H8FAPwrpxOYQf/L5RP3Tbq5yfqdRw/EBuKf9dpIThwinIEIg8X5ys+D3KXn1/4Nd5l3wjbY55hRsoJqS0RnudKDKFp2k0TwE7N08pjbm/DVKj+Adk+kZuibipa9xadrNoTHqZ8SHBaDCD8QZDsiOssVA4EIp0UH1+I5PLms3+DhHCc2Kho5o2aKT0OUVHy+9hUsnRDRMTK6RXQvKw1ElI1kkRn0CY/3EaUWPcsjDV0BEd6rZuhbaqZ4t8d2OWLpuVkAwIzgsEFFy24J4v4RnWfZQPgDFoXPngwqEtDSySFLJ/bw7oyH01WI8Ivx8aW/gyjZKNl1y20THSPxconoUpYNhCc7cMTSSSHIhlh67ldmHm/lflFe3Fa223MTNVPcB1HSt6z1zKCviNrj4xwrImTUDUQTHLfADBp4pg9mlBbNfOpJM48/bvdYHi7RDxE+qGboz/migx9tYhJt2aBoWd97r4jOsw6iZL/E6tWpdqboZEbpUmWs78vMoDt4HRC33Mwn8f+Jf7+WsHQiY6zRPKQHWceL1zgOSXjeqrZj5lMvmXn8SWbQQx4m8TGI8MN82PWFVtrBDPq66BiIcCez10cEhD3EukniOFc+V37CjJJl5lPfsnQyIrO73YA4RPhUfHzpBERJV1lNVrYBAHDO6RiIsIyOEV3GOl72zAnLS8ZDv7H03Bs113o6JuNM2IAdvDfxOhQ6K/g8zNnsIzyyrkkdwJV03Djq8En8D/gkXvdwifUQ4SlFy37C7YmWTkS9l+rHfCciXHSVgdRhRqlSGeu7jRk0zRNcu6Ff0chRD0vBF0UHQIQ9DeEiwss6UWwGz7IeSsx86piZxx8DABx1eerNEOE7XZ5TlTimHbUXI9qITA8S6tLK9gS6MtZ3n6UT7Ka3UzQiE1q7EpnNy3/h8poRIadpVpMVdEUyBkvPlfgk/lHJJWFhgoaVMIPK7MdEQ6weQ8ZAugZmlJiZT33X0skNEkvCLhNZR2Wk1yI9ZSCgFr3YzwOdRMuu0Q8+QojMSo5vjn9Bo2aKX4AIH5KYVwG3q3OKlpXpcbpiOBohT4xPwp0yh4R+ZQai5CCvsHuX7DnMoG73UWT2OP7R5TUjQs46XjizKbxgZiiBKBlTM8V9aoa+5cY4ePCXbFrVOjIviig2vceIcW9Zp2whoXTjVrTsLYq2HMzk2kmwVvHKdVGfj0ocE3hpuYj2EuM7xNjhGL/jyVtiRaWovR7nRzOWTv7a/X2xaNK/YOm5UO8ZRbhnnaUTkQvFIC+13HHUTPEeezjFy6h5MY4jPAu9a2dHCW9doStKRPcRk3Qh3wIAeKUN7WkIRMm4mqFPAwCEocFNuGjpZK+l54RxHU3ub+u0WXCYF1f8iJCzTibWQyIkNxD4JPxv+CTci3EwZtBHzTz+pFfjqLUD3yLhsyZyh4/oQtbxcbOjQ6JMUge/UbTsFjVD3+QpS6GHS1BLJzeZ+dR3Ww0Xlvz+pVbuERFO6jvpoj2BDYqWvbEN7bF7jfXx8aVnFY3MeAxCuswMmq6M9aUsPedLrUSIsMix0bL0nGPEYUR3smwglk6Em2btyCCoZor38uGUKCduM+xJ+MfMfOqYX23iKU5FSbM7ErMfETzLBsIM+qoojBUiPApR0stQRwhEeGN8fGkaInxUonBPI85bOhmpjPV93e9E0opG9oqOsXQiyuEb0aVwA1muLyh6C67nxXV8ByI85tb9nGNPwsfMPP6Upef+3v92LSd5EA2vGE8uF9GDXPHmlcmcaP+QPWYtDGKHecrM44+b+dQPgnJFVzRyQGKB4GQ3FzCNcOaKgfC3oChz+wZFI/d6uA/1cE4zLjGD7qiM9d3BjFJg4cC86I/M8MqtT1dEF3GlgM7ifPVPEOH+2EDcye0ExAbin2EG/fHifNXN0uk/+zDJX2QG/c+XT4zeY+m5X7Z4LSGDBypPSfh5nTfzKdduKxHdwzUBU5ZOnpHIOaUqGvmem5tYeu41j2l66py1dLLZzKe+3Y5qToqWTcqspDGDRoU8e5xrSrAtzlcXIMLrYwNxR7cKuxexh03MKMlk+liGGfR0/6bRtGRcRR3LnoRfPjH6wMLsZFuKZUKU7F+/8+jPeO12Jy7a7QqyFFxE5+lb/Qd77M33IkQ/kEu1JAklaQ9W7lP1smS60xfNPLZ7jLa6kMfHl56V7D1GzXzKVa3GiO7jA6v/wHuRmETRzQ/1bxpNMIMel32LLs5X7R7hx7GB+D/FBuI32NdocNiMpZOMmU99f3G++p70N/EBNVP8WmwgLlOq+uylH3zkr9rQpIgO874eBNTe9FDN0F/KuHowgx4y86lvebm5omXtnuR6vpRq90Szlp7zUgOxZdRMMQkR1mXc6O35kKXnOpbQO6J9NDQQwCeqikaklmeZQR828ymv9Qs7jqJlN/HvKpwftfJCiOg+3jfEqmNPwPmE/TOii8QG4rdDhK2F2cmue6ty4zgFAPiwxOH2xHzn4nz1j21oWkQIaGogYHnOUCn2bxrdLpNkLTYQ3wYRhguzk57jLtqNPazq3zT6M0njWLR0sm1hdlJ65S6i+2k6xKoDUfKjaoaelVjVqvOCmcdfD7v7hT0hhwgflg3dZQZ90MynfhR8yyLChGMPAmorT/MQ4XOxgfguyUyMN/RvGv0SAOB/MaP0B3+a6R8QJfsHD1Se4atVUpklmUGPmPnUd4NvXUTYEBqIzcLs5NsQ4d/HBuKy5Y7/DCL8lxBhtjhf+UVYNtMULZvkm4CO7jSrmLp8YnRPWL5DRHuRMhBQM5JZeyJuzzUkT4nZk/f+TaNfAQD8xs2uu99AlFQHD1SegggfdDFUtJkx8/jOdlb4jQgXwjnIamqF+pd/aG45aenkUUvPzXo41xO2YSgaOcC9ct0Ge83wFEGhnktFBItrAwGtGQngO+WHmEFfCerNzLMu7uXBTl6iIKfMPN4ZGUeEJwMBNSO5m4fIei1cucB7lZPMoK+34qULUTIGEb4FIryNJ1gQxZA3xZ6QWzr5RlQPJAK0YiCg9qa+UdHISZ/y957jbu3neZZCe86ywAx6qf5j5SUI+nki6Y9ChDfyjIebWzDUOovMoA9FS7kRK2nJQADPlatm6N8CAHb406SOcNHSya4g5kfcqLdAhDfz/L4beGKK1ckpLvGIzovMoOeZQc8wg76xloZ5YdSqZQOpo2aKe/i8JBR5fGVhBj1k6eQRP8VVtKzds9l63NVi8m/G52wvMIO+1I5gsXYTdq18MxDAk76pGfp9AMD9fl43IOzh3IN+euUqWvZORSMPe8zQIsL+ARQsnRz0ULohdHSLVr4aSB0+N3kcANCRnL4CLtby9foX7KRo2c8pGhmXDATzA/vh5yw913UZ5btNq0AMpA5fbh0DAGwPQa1De6z6uKWTY36tUPHSb0/z79dulhNzWzoJLO2Rn3SrVoEaSB1Fy8Yhwg/wzCbtrHnI+FLykVayuzdCzRTv4c6Obnbmg+Ccmcc7mFF6u8PtaEo3a9UWA1mJomW3QIR3QIS3t7Jf4YA9OZuydHKKb0b6urIBUTKmaOSHvIhPWFhgBt1l5lOvdrohK+kFrdpuICuxexYAwBY+WfMyJl3geybneX2OUpBZ1iFK9qsZeqKFQj5BssgjO5/sdENAD2nVUQOpI5NJhBmUMIOe56WW7V7iUjtrAvIH/tMWV11s471g6eTCqpos/RDhQb72v1kmQK0ZfLOzo0bSS1p1jYHwEmrPtK9VV6lVuqKnXbrJ29gTQt3SSYEZ9DXZFEl8b+BuPmdzXSOlk0bSa1p1jYHYk+3KWN+X29Ska4iPLz0HAHCTOnWRLy8+1upSrKJlb1U08h2XPzh7CHFXJ+YkvaaVVERdSNgGUbLtqyBqprjP5QOnlk5uqIz13efHPoWl516vjPWl7Imliyz5MYjwCxAlZWq7+0YvatVNBgI9Zpb3jKJlb4QIy+bfXXZ29LP020rMfOq4mcefAgDIFuux5wEveixX4Zpe1aqbDKRenySQKlfvv9fyEuVRyQ3OBWZQLehxvz0ur4z1fZEZ9FHJU25SNPI3QbYJ9LhWXWUgPLN8W1J+Khp5QHLp2bJ0MmLmU22rclur3EsfkjnWfqkoWjaI/aYr9LJW3WYg9pf4DkTJQHfj7bkOLz8tgjGDbrf03K+CbE8j7Dew5NsRui1X4YZe16rrDMR+YakZ+myQY2tFI/tk3CKYQfea+ZTvtRFl4amIZMbZuxQt+4kg2tDrWnWjgdhoikayQVzYnuPIlF4DABTCUP7AzOP7ZFZsFI1IDTPcsBa06lYDWR5q8WVFv697p8TurGXm8bf9vrcX7MkoM+jDEoem/V4mXwtada2BgNoDOui3kSgaEQZ71dxe5AsHuaW2G13cFx9f+ml8fOmt+PjSCUXLbml2vJlPHZcolGq/7e/2s51rQauuNhBw1Uj+1o85CUTJ9RK7sCav5RgI3I/pNA9f3sbdJ3YoGqFqpvhAs/MsnQgnoYpGRDXf3bRzTWjV9QYCakZyv5qhv1C07I0tXudW0Vo+M+iRoPJ5rXDya/TDi9k/BEXLNlzB4/EuFwS3GLHv4U9b14ZWPWEgnJsUjZxVM8WnIUp68vBUNCL04WEGDWSyKekBCwEATYdJzKAF0W0gwrd4b+VV1opWvWQggL859qoZ+rv4+NJzvJyzGxyr+9biTvyPA3fpHt50os0M+pL4Xlj0HWVZE1p1Ok48KOy3R1rRiP3fZe5GfYZ3q29zD9JGOKadYQZtpdZ744a6j51oOjSw9NwFRSOm08oST7TnB2tCq24xEMoMeg4i7GUtf31t86f1CSozlgsJOaJo2Rv4Pc+LAro8PPBLzKCvCI6xXwR3OXy+Iz6+tCR5P8/0iFbxbjEQYOZT31YzRQsiTDrYjKaepzyDy5GVb1ZFI02rbXl44AuWTnaIJr3MoBcgchurFAi9oJXaVXMQM5/KMYNu5yG3naDhW07RshsUjegNhh277Ae7euXIywNnBt0mk+SOGVQ2DiJoekGrwa4yEFAzklfNPP6kC19/37D0XKXR37mbdLPl05GVD97rA3fhxxSKXL69olXXGQiouQxc4r7+biLHgkS0orP84BUtqwb8wLuBrtKqKw2kDo8c+xj39w/cUBQt2ywxt0y2vhFFI7/r9ANvF72iVVcbCKj1JszMp5408/gj9sQMAHBS8iF4odlDn5E8XzYaspUH7ketFj/oBa2srjeQOswoLVp67qXKWN+XzTwesPTlZd3DPL+SXwbTMLDfzOPHeL0KP2jpbahoxHXqm4DoBa3MrlnmdQMzSgvMKB239NxxcLVE2wa+KfTnzXyIeFx1U2qbbLn3pYex50RmHmM1Q2kricx8GiqIHvpZSyeHWrj+MmtEq4vdkheLVsb6Um1ox+8E3a5eGeu7rdmHECWvb+HBt/zAeX2WPzgdwwz6uJlP/bXXe9RZK1r1zBDLJ0R5fR29YZlR+q39dvQwhPBlkgkR/pzoGGbQM63cYwVrQqvIQFZg6aTloCMPD963FRhFIzJJ23xZ6VkrWkUGci2viQ5QNCJM5e/iwfv4wJfT1Ygqep239JxfE+Q1oVVkICuw9NwFXk7BiZtl3OglHrxp5vHNfq3d8x1qUQDTST/uBdaQVpGBrIIZ1HF1BtQElkqxueLBr/ZsvWD/3f7cc0OvaU/2epmcuMygx/y434rr9bxW0SrWKhQtO8h3cUVvmAfNfOpHLq57M98beNvSc0JXcDfEx5eKEvHhM5Wxvq1+3nctaBUZSOP2yKTwX7B0srnTJZnVTHEfT1rgiKWTuyw9J4qPcE2vaxUNsRpg6cvDAtHue7+ikRf9SoLgBTVTTEpmVD8XhHGANaBVZCAN4PljRUH9NhsbxTC0A0XLfgIifEomo7qlL5fiDoRe1yoykCaYefyIZGDWSLsfvJopblE0MuMQV7GSU5aeEy7JtkIvaxUZSBOYUTJl0+bzB/+LoBJEr0TNFO+FCOuSNcctM4+/EXSbelmryEAc4AmXZfcONioaOaNmioHUL4Eoud6eEEOEj8q6gjOD7mVGqS0BZb2qVWQgAsw8/qpEFr46/RDhQ/HxpV94yMnVEIiSUM0U96kZ+r/d1P9jBj3E89C2jV7UKlrmlaAFz9Nl13Jm0JcaZetwQtGyGyDC9hDhfg/3nTLz+IvMKAUVONaUXtMqMhBJeKoaXXKytxoGAJhhBl3O78WT112u54LiOWTtB3s9RPhmiLAmSszmwIyZx3e4/ZH5SS9pFRmIC/iDP9lioE+QdNw46vSKVtEcxAWWnnuD+wvJjrPbScHM41QYjAP0kFaRgbiEO9V92sWKTdDUa45/tRNzDid6QavIQDxgv3kqY31fZgYd7WCWR1BziyA3B11zvBW6XavIQFrAzKcmzTz+OADgaICphhph1Txk8ac7UVbZC92qVWQgLcKMklkZ67vPfjtxn6QgH/5lZlBi5vFHzHzqR2EbUonoRq2iVSyfUbTsIF+Tt7/PBh8uaT9YaunkKN8jCKSkWSfoBq0iAwkQRctuBAB8jpcru0ky66H9kM8DAM5YOqHMoK8HWSU2LIRVq8hA2ghEyX6IcJyn5bxuhZ+QPXl9FwBQaZYVfa0RFq16MrNiWOEZH893uh3dQFi0iibpEREORAYSEeFAZCAREQ5EBhIR4UBkIBERDkQGEhHhQLTM20bCsrbfDQwlkv1DCWetZgrRPkhX42V3WNHImtxJH0nXtNqaltdqa/qqVtMFQufK9PW5crSTHmoC9C86wgz6Si/5Yo2ks4NDCXzvcMJfraYL5Mhcmb4yV+4dX6ynAABOtSQuVsb6PtbGJrlG0bI3Khp5GACwK8Ce2WQGPWzp5ElmlDoZW9ESI+nsjVvTwWtVLdPDMwXy5FzZu1Yf8LdNnknw4PtmfIgZ9PuL89U/tbFNUkCUVAcPVJ6CCB/iQ4MgFz76YwNx3L9pdC9EeGFxvvLLMGrSjKFEUv3mZOWp4UR7tFKui+PEbaN7hxJ44d13Kr989x33WoXCQCDC9rBkh8Mh6xbnKyeYUfp9G5slRM0U71U0cgoAsLnNK4IwNhD/fP+m0S/Z429mlN5p4709sXuieO/WdGe0Uq6Lfz5xW02rubI7rcKyzCtTHGVLG9ohBUTJ/vj40ss8c59MWsuguEnRyFk1U9zXwTY4MpRI9j8ytfTycKLzWm1Nk7O7J9xpFQoDYQY9z/MhNYWvBHUcnhjtFwCAuzrdFk4MInywlmozGapVyaFE8vo9E+HSajiBDz4ytfTcUEJOq5AYyHI4pKg88XaIklJ5VoNC0bK38KyBogL0nSCtZujpTtbgWMlIOnvLnonwarVngp62ezfRgaFYxQK18XwWIkycjrF0ssPScy+1r1VXCThbYH1DrCcyK9rGsTXdmlbVMqVz5atazRRqWo2kr2o1lMA3Dyda0+rYfnzHXDnkmRXB1R+gqBfpyH5Ir+WbDRI+rPKk1XSBHJor05ecfrCNGElnN/D9FE9aHduPvzhXDnFu3jrx8aX/AwAYdDrG0slN7Ux1Yw9Z+JzDzVDBNoyHLT1X8uH+UNHIA7x3lZ7k8ozl32r1/m6whyx8zuFKq+kCeXim0LpWQ4kkHEmTB4YT7rSqlumh5/c31ipUBqJmit+DCH9HcJheGeu7rU1Nso32ZReTzAVm0DE3FV1lgSi5Xs3QH7pM67+rnSUQHplyp1W1TMee3++/VkOJ5Po9E+60qpbpruf3v1+rUEzS6zCD/lgiV5KmZopfaEd71EzxXhcP/IKlk81BGAeoLWRcrqXMXM5QKOVCARE+DFHSsUf2i90T7rSaLpDNQRiHzVy5dPn72/q+Wi3LazWcwIeHEu/XKlQ9CJB/Y18y8/iTQbpbQJRU1Qx9S7KrbuvEWM0Ut/CilDJtO1UZ6/tikO0ZSiTVPRPyWokmxn6ye6K4ZTghr9X3t12rVSh20ldxASK8V3DMh/o3jcaDXNEaPFB5iu/6imj7qtHC7KQ9V5uCCNtDiA8KDv/XfLf97aDa881Jea3aaRw2b56uaTWckNdqrnxVq1ANscDVssIy2cB3BbWDrGjZGyXHrxc6taRq68QMul0mfaeikfGg2jGSlteq3cZRZ6aQ+1W1LKfV1vS1WoWxB7GZhQhnRJ6esYG4BhH+zcLs5Ft+3lzN0Me5M50TC5ZObl+YnfwHP+/thoXZySpE+L3YQHyb4FAVAHCOGSUZlx5X7JmQ02q6QG5/83TntHrz9GR1KIHfU66T02quXNMqdD0IqL0dLzKDyrz1YhDhF9RM8W6/7s1LfO0SHccMOmbpuV/7dV+v8HT+VHQcd8X3lZG0nFbVMh2bKXReq+f3y2nFXfGXCaWBgNp+x2O2JUscWjeSr/lxX4jwvRIxCmeDWq3ygqWTvRLDhxEe4egbQwk5rYJarfLCdEFOKx7hGF4DYUZp0dKJPbaVGbPaRnJEzRSfatVfi0cCOmLp/r+NW8HSc7/l5QQcgQjv8fO+PBLQkelCuLSaKchpNZSoaRVaAwG1B/9rZlDRitYVIMIPqhn6c0XLbvJyP/6GFYV+nvVjh9xveI/r+GaECPvmVcvfsEKt/Ngh95vpglir4URNq1AbCKiNsY8xgz7q4pSbFI2cUTPFpyFKuvXL+ZzoAEsnh1xesy3Y8zYAgC447AZFy/pVdVao1XQhnFrNFOS0Gkln1dAbCKgZyXeZQY+4OMUecu1VM/R3aqb4Q9mxt0TMCWMG7Yg3sQyWToRDB78Cz3j2ESfYXDm8Wk0X5LTqCgMBtYf/DQDACy5PgxDhhxSNvBUfX5pWM8V9AmMRLVfOhKXMciOYQV8THQMRltnQk0GoVSf2PGSZK4u1GkrgzaGKQHPCnrRXxvr+Qs0UTftH7+ESIxBh+z+7p7hc212mF5lBTbuT4sc45mJiBhUuEQLuVTqUwEm+pm7OlWnJbQqaoURS5deAAIDZmUJOWCuD58865/TjhQi7WskaSWfXc11Wxnb8uUirallOq07B82c5ajWcwBu7xkDqmPnUt9VM8QLPIuK1/etrEYrY/sFIn8SDnRzhwUIvrnLbvzRdIDtmCrk3ZO6ze6J4gLtsX1mR25omp47tx38h8Va+IHi7S+Wf4v5VzwIARBtrDeHBTmFHqFXXDLFWYuZTz1j68hi43Wk6Hf2Z7B/V1jSZahDTMmj/3f5cdIPdE8U9wwk8vtI4ONv3TNCfiM63dHJBcIiwDTyuo+jVODiB+X75xXRBrFVXGgiordr8vZnHn+J1t9uFY1rLkTT5KwevUYV/7gjvOZqxfSSdFYWXil4aQq9W3s5WNxW7IV2qUKuuNRBQG3NbvO72iOSue0vUY8ibMZxwngCLPueZNkRDIE97PG4YTuCRVq9RjyHvdrraQOrw3uTTPJjoYgebIpofOH7O46JFbhA9k5u3G+gJAwF8lcvMpyYrY30fs3RyFwBgSsa92Q08+0hTqmU61crnHKfVHzZXpqKd6ZbT/lTLdKbVa/DsI2FHqFXPGMhKLD33SmWs7w5LJx9hBn2I75r68eZd7/ThTIH82P6n2cf8c0e471LDnqZapmSuXDKdzocIi0JsL4naMFMgP+IrPK3gqFUYGEqItepJA6lj6blLZj71ZGWs7zYzjwcsnWDuaHiU/5ArLg3neqcP7SHSsf34jmqZHlzxI1+w/58HCwl7tJlC7lfTheU5lb6iB7xYLdP08/tTPxCdL7HP4Whg/HssHNuPU7wX9oqjVmFgOCHWKnQx6Z0kPr70/5z2VphBD5r51Lfb2yp3xMeX/q9gKffFyljfTtnr8Y1CZeVwda5MrT0T9A9OWtkvhef3h1urR6bEWnXdRmHAnBfsQjuVaOg43I3GcZ9DZrNzJXw1qtGKlKNWPONhaOHeyI5aVcv0XE8PsTwgyux4g6Jl/aiEFAgQYWFkJTOo6DvKItRqJB1erYYSYq3myvRMZCArsHQi9B/iEYehhGc5cYIxg0q5u4iYLoi14hGHoYRnOXGCzZXpG5GBrIAZ9HWJoKP7O51lvhGKlr1VYvfbN2/kubJYq+EEvn8oET6tRtJyWs2VSwuRgayAe8OK3oyqopEH2tQkaRSNiFK22j2k23CBpnBvWKFWI+nwabU1LdZqulDTKjKQVVg6Efp2QYQJRMnQrPOrmeI9AIC2B3tNF8RaDScwGUqER6vdE3Ja1YO9IgNZBf8RifYKFJ5IuuPYhgoRflzi0ILfqVr5j0ioFU8k3XFsQx1OyGlVr4wbGcgqmFGy37SHJQ5N8+TWHUXNLMdsCBNUWzo56Pe958olVi3LacWTW3cUHt8i1Gq6cFWryEAaYOnkSfsf0XEQ4cNqptix4qJqpvg9AMB2iUNfCCrJ3UxBTqvhBD68e6JzWu2ekNdqZZK7sKYe7SiL81UGEV6IDcQ/Lzg0FhuIfwUAMNXuUsxqprgPIvwfJQ5llk52MqP0T0G04913qmwogReU68RaKdfVtHJbirlVdk8U9w0n5LSaLpCdc+WrWkU9SBMsnTwjGWOiKBqZUTPFZBuatQwvNCQ1ZGIGHecpgQJjpiCv1dY0mdk90T6t7J5jOCGnVbVMx3lKoCtEPUgTFuerfwIAnOE1AkUvkg/GBuJpiPB7C7OTvmzENcKekA8eqByPDcTvlzzl3OUTo1/l3yUw3n2nphWvESjUSrkunh5K4PfePB2cVvaE/JuTlePKdfJavfrE6Ff5d7lCZCAO2MMmyezpNuvs43hurTPMKP2jn21RM8V7FI38dwDAzZKnLJh5/Fm/29EMe9gkmT3dZp19HM+tdWau7G8bd08U79madqfVsf34s43aEXnzShAfX3rOTb07vsNcsHTyWKvDG0XL3so3AeXTrwCwyAx6l5lPvdrKvb3wyJQ3raYL5LHVwxu3jKSzt/JNQFdaVcv0ruf3N9YqMhAJIErG1Aw97VJ4wB++bumkwAz6Gt+pF6Jo2Y0Q4bu5b5Xr5AnMoA/xsghtZyiRjO2Z8K7VdIEU5sr0Nb5TL2Qknd04lMB3c98q11pVy/QhXhahIZGBSMLLQf/UfiYtXOYcL/Z5YVVGjX6I8CAPdtrsodb3FTppHHV42iBftOKpea7RaiiBB3mwU0taiYwDRAbiDm4kJ1rMFxUU9rDq4U4bRx1uJKHVqlqmD4uMA0STdHcszlf/yAx6PDYQ/3BsIP6ZTrdnBQvMoDvMfOq5TjekzrvvVP84V6bH/+V18Q8r14VLq2qZ7nh+v5xWUQ/iETVTvAcifFiyvHCQnDPzeEeQVWxbZfdE8Z7hRDi0OrYf71hZxVZEZCAtAFFyUM3QpyVdGPyG1TYByWPMECeD6DRDieTgnonOaVXbBCSPySTOWEk0xGqBxfnqe5ae+wnfULyhlQmjS16wdLLz8on7Xg56E9Av3n2n+t5MoabVcKK9Wk0XyM5Xn7jv5dWbgDJEPYiPKFr2Tl5NtuXUnQ1gfG/lYBiq67bKSDp7J68mG5hW0wVysNXqupGBBADfx9jDawKKkk07YT/oGUsnLzCDvuR3PEcY4PsYe3hNwJa1mi6QF+bK9KV6PEerRAYSMLwm4BaI8Ga+z7GBDy9WT1gv8eCjCjPoOWbQM8ygb4S5opXfjKRrWg0l8Ga+zyHUqlqm5+bK9Mxcmb4RREWr/x8AAP//mC6b1mgHT/IAAAAASUVORK5CYII=;fontStyle=1;fontSize=16;fontColor=#999999;" vertex="1" parent="72AYrfa2ehSqcX3lbBJk-1">
          <mxGeometry x="50" y="320" width="50" height="50" as="geometry" />
        </mxCell>
        <mxCell id="72AYrfa2ehSqcX3lbBJk-20" value="" style="shape=image;verticalLabelPosition=bottom;labelBackgroundColor=default;verticalAlign=top;aspect=fixed;imageAspect=0;image=data:image/png,iVBORw0KGgoAAAANSUhEUgAAAOEAAADhCAMAAAAJbSJIAAABCFBMVEX///////5CKHTkMiwAn9YAndU/JHI8H3B+a57kLyr///xUtN9UPYAAmdTkMCpAJnM6HG/kKiXjJyItAGg4GW7jHhjb7fbH5/R9wuTjIx1ouuHjGhE0E2z3xLv/+/YxDGqMfqn50sr+8OvzpZr739niDgD+8evY0uHt6fHtgnjnSTjoTkL85eDmOyunm7y4r8jxpaDqcW7vjYLpYV3pXFLtfW/2urDwl47mQDHqYVT3wbbxnZLra1z2xsSXi69tWJHMxtdgS4i0qMbs9/vl4Ouw2u9xXpRPNX3qbWj52NXueGPpWEHrY0zwinfnVEj1s6bymYX0uLWAcZ3PytqPy+ef0+zN6PWXh7EvqYhLAAAUa0lEQVR4nO1cCXfaSBJuSAyWggUSyBNFICxAmEMYL2sum/iKY+cY4x3n+v//ZKsvqSWOoAQ7u+/1997MmMPd/XVVV31VLQ9CEhISEhISEhISEhISEhISEhISEhISEhISEhISEhISEhISEhISEhISEhISEhISEhISEhsg9fsgY9DBHHd0PB60/0UxbA/Ojk8bKp9oG5MFkz4nQ8KgWam3pz3LNE3LCGGRNzofBg+uup3JOJ6PIR7DH7XnmmkauqK9WAJF0Q3TmnwYV5ztsXwmhmAX1R1PddsQuSlAiQB+EN7VLXsyfPC3RPJZGMJvu+OubemMh6Yblml7dq8z/zfGSbdneja2LaevGaYxO94KySdnqMIU/vGJZynB2u3eyfDsofLRbzo0tiCn6Tcg9AxmHdu0GE1FN60hdtf/bYYqUHDbpqnzRZvd9rHbjI0avnQ+jsbTns23w7C7dR/BKOr/KkM4fZWZZyjUePbkw/FHlY61asn40+Zo0DUZScU0x/5vmfEJGYJ/qpWpTc2nm73hCNtO4IbYj4h+m/wbWwt/ywWSBuVoeQP/N3z16Rhi/5x6hJ9i2NP6QgJQU9SL6X9iVoW3K0ODGdLyxrVfpvhkDCG+DBk/y2o3iPHU8EMOB0NdNgm86dS7Ns0ulvfwqzHnSRhiT3PqHvEyzeyNnVCKqeyo+ZVR/dPnHpEypmVN/r4/Hrm+wyZikQVenM6pmyt2x4VT/Qsh5ykYwjKQ2zHx5mtW70wVfhdbzT+9n5g2TguKojEoJEPaxue6W4t9353bxFcVr91EvxBTn8SGSG3TnTdMsF/gnNh2lZlmm4a2VLRhkWPZ9uTsY3hm8UGt0N16YVmVX/DU7TOENTV6FvWsYZM7HU78zYeubeoryIXQLNsauiwE0TU+WHxAB6kJST6BDVHdU8gBxCeH0wZvO4nSA0lKPBMDPFbXRGlq2BZOEYH1nTYd05o0koe8LTNE6tQkCdCuqyiIGM6ZzhIjJQDMevPZfb3y9q3rvn378J9PJx14zwpZgkCYV/i0sEGNDjWj95DQU7fLEHzR75EQas55lob3mm3L4taDk2Z2//PWF1IEherU3PrcsM2g+oD4OQrmReoZ2SPNHqJEAWfLNkQuCXyKVw9yOOZnMNvopt2pf2wuHY7O4jTIYeUcTZHjR2pG66SZKOxtkyFCdVsjIdTl0hO23uD2s+zPI59oMlVdJkxVli1rpyc2/x3F7AanGU6jTSL0JInC2S7DMSFozugmi5EezqV55sfG4Vp0cUl+3eLnVrE/NdmBhqBKAo5iNTZP/ltkiNAAb7HmjXlAR7UPNFsDv79xqSesas0MxJJO5cRjHA2jHkQclxxzxXY3PovbY4gQ8SHF4ycHodHEovy8Gc5vhJ/KJ226/9QHbdxta7cHUBCzTpsaJEHVnTGOij31uVfUTizivJW4Vn96hiolaPJjAxHGVNj63FSgUfCM/j/jD13NtMNuGyRGa3LSrtNEz3OMWjmxqY8bvRGLoMgZknnsyoZW3BZD5qJ6r8EWghpdkyqUySiQIQh7H25IgSaNKzesTSHU0hYUrxzVUY/GHMUeOMS+EI7G5DDgaLZZ+NsGQ7DMGZ7W6Pg0UIKH6sTDdGvMww4uhyINKbxwTQH5/SIkC2LA+vDgM8mGc+mAhRxzykUOzKXRcLMBwW0xRGceJjh3uDO2PbJq84QtC/Or1Q3boMvVaLvNtnq9yaSn458s3kTVdBPObaDYkT+n4VgHx2Tb+UAoehu1N7bDEI04QXZWmHKzIAiqiAYX/56JMg3sZHam7fqpX8PlL/zTrLkP40/zns0bbbrdOWVVJWzNmB1oCGIBRfy6t0le3AZDiOF4T40uJoiLQ2dOxcfkY2DA2tA2mIHMbvu0FtdsBI5/NnvBmsaKPTklwhbHJpojIBGdIaoVqBWNmfNMNqxhVaZ3HNZyaXaoNP3ETAqUB7ZBC2J7Xq+tHgyzbLR79MsgS9kOwbtTGnDsAR+SqCfzfpM0/dsMIYaceYo+adKTg5wJOWuw33yKiknWp9s9Qk9VF3RMMBa5vXE/UYdWvKHDEiSEakrxnjsqCW1QaTwDQzyIa1n42BMX7dES4JQ7qDMji9O9qbt+GGFNTr1H1JBhw9EjyQaNqDwKrXgPZ93wfnoUt8IQ67OPdG+R2tFJjGkQiwLjimVQWeNHVFts9oVlqacTvDGaPWPZFLk03th1bsWZZc9+XmZsiaHKQ0pqTvj0fLr1CN3jrVfsvxvREeiYEERrfq1W48UiHStFs6c6Ir0Lo9dg57vBvGPEU1Knrv5c2GyJYTBc22IEVRp0SNowcQspWAoV1n69Pe32LNrE0Dvz2fg03hJHzhkWpgqjpCKfnHCiZsgXNmqhbpchRDhCkLb98JIMHC/EhhspAM9mkPqM4NoQZI2ugwCANKJGCxB/ahPFRtUqo6gYzdDaz8sQ+bh8w4mY5jEXKzer5/KKAQcioDcPEntcmRqmMcTNGb50lVWE9pAeRuT38J7onT9VAadSFVtXLFbpoAqkSdIA5J/ijtvQYD0KLWy14WYba3Rohtk9ayKW2IMWlDmjyRY1SBqxhglaf9tlCCLS49VFxcIEH1JhTxBVZibN/FBFmLNB/Z+3LkHlYdzueKZFG/jmZNwUOsKkdxFQdMGmilffmODWu4lQPtA0QSyoaxUUXjI1PpCGqWLYveHIjQs3x6+cTT2TxpJJ3QkpklrCxMkfB6mKZ3XdP+elKVbqqugjnBh90uAGBFOMLWw/EDaDSm3JiPgdtXE8JZJNsU9CFlCKQXVht9mrevvP9dqEYX1I/EbX50UqHMAuTti6PR01V46lEsk20PFZ08mVBx+uArLPHrP6/092hINRHUj8mCCv1SGN6HjVs0pq2Uhi2Ic6a9wDjpo5bwgUweeJgkvE7gkZQkzVOyFBZwjKRjFPKtF2tTB49O3awIBEqhsVkSIkk807bL/IcHP+4JRacAZRDQd8wxA1Fv4d1fHxpcXbt26j6UQGgag0A6fWvOPwaufU0syZ+JXVC9icVGwIdLS7BAfnR/3DVvwuAdW4i4GygSygkTYL+ww31PzK+G87RGcwwu1EXlbhVI8bHljN8OudujdshuO3biOrEKdHB8IHF4kY3paziyiUStVi8fYyZsewX9YAD9Xss2CpIGxqD589KAHFuzbL9Iy6IM9hY3CnwB4G3W3korCuRJdFcRHFI2F2lCsJnyRjmE2vQraaiXIMOrs+ENQtV8j7jaFnMgWj4V6botG7Q8XyPrvhBShScWfUHAY7Iz46hK7L4vT5u/CqUm3d5cMPsokYXq1mmE5nirfYTFFLqqmahfMiq1OxMPU/eTjjYRFq653ufHoy704sJlV1e+IGcQc8FXbHPlsW5NB5KTJ7+TrMvDfCMjO5RAzvMmsYptOFu9ZCNG9CNaBPHE4QOQPyiAY4Zad96vPHv9Rmo/5hYhuklJzWwsWeetryTgU6KET39y6oSdChYN5sgnMI25/J59PrUMjFozlqeLo+UYOWKb3hN+zuA5E1KdaioOHPH+i4XNbJNS8zY8XTNG+JSEOPUYbpaj9orF8WBYa7iWxYXk8QfOUxRhFq4HlPRdxDyQ2/4Q2XPlaJJ3G7JCzNnCCCVjzdGy2mQXQROzHYiEsYFg4S2BChYvonyBdvYiuHKihUkUNQ0Dp9QGNZ5ibFv9uBKGT0gnY2GtFyM87wKn5iqpc8GfWrwp5fJ2F4WE0vImrW7O3i4oMgN7OoFEOsGk4F1UVwTQp2Tj2AwNOxfGEVooqWNB8XYwI/iSo6Es4h8N4Y0b1J58tVQLmciVKstpbrKjiEUwsKuzMebMk1W+vw+ugcFEMLCc0LckWIFVpsh6IM0/ETky8essJUDLPwZgKGkRRU6l8C+tdX1ao4F+zZcopoaJG0yE2MUP8xV66WS6VSuVpMX5y3gqIXqQNbU7R1V0sqyi7EhMwV3aUow5vNGYL1xRRUbrH3W/2M4DBwspcyxNeLrNggdWzrR7paCO2fyZaqF33+aB5Cxx7kmNVXS2qqFU2H3F6EvBhmi621pGI2FPcmn28FTfsb4UxA/lnO0O/a81qQNc5LpQUbZKtXl0GWePAUb00zBt0siQkwN/lMlF4JRBuKpiDQCuF0gvuCq6xwK2fMYyK6zC3PO9nqQaDOjz2hAl7EMoZpGskjYbaUiKG4NyIT9CVMI5mFpB98C/Fu/FE1XEI+kxF0RL6cu+FmXHvDuzyuF3CJoaJcODwE2CQMxSTLPIKa5zLCcM3CyLcP+Lfz2XIxm7u6uqsWS3xR2cyXoMZaxzAqvEMj4jMgHBowxOZQI9YHNcSXHDmgmRXnMFzbY5Xbq7R7jQtL1Lq5PM8V2fZlyl9+skdkm86XRBrwSRznWkIigfycxIY50b/PuZgGLZ8WIs3uOoawGz+YBQuF8xs2LkH/okhHyZRuftqOUePCm3tFsQUOLJAvPCZgiCJJtnQUhNLDnOC9YRWzbGEqumYEq7s3ojTF+b+fpuNkc4slygLDXWHOfJh1YOPRpeDA+PXmNoykoHKfvts6PC8Lpl0UpqlU+JwemLtAFpMvH4VKLVh164rOUD742VlWxZiQvwrpghHRpShL+0lM2BLDV/bgCHB+US5GDkS+REWm8Gskx3OGtwVKsI+E5QY/ogs6WPEyDGPxvhL9vnhisreHYaSDrRPFZRLRBok9UloUylhwxYv+AglAr1+JePP1O8/jfToE1HKBdmPrZq5KHR5HQE761QK+Ydbi0X8ULJqvRoV3IoaXy1JQFPkqdlL0am8ngr3X7GF2Go3L57wKQP5p/X587NLHFuELLXqkioGN38WGgsG+4SnEaHKARCP2BXGZryYQbWhFCoqa8JaIipc7L6PY+0o8l/pPIBZQY4qv1fBTew/sDhW2MU+/onKGL+NjvcPfE+Q+jiaCEXOPwhGtJiEYFd7LTVgiURDFF4WXhdMKiQj58iGVj1Dx86edNZM1yFUmnIq8RGEMBRu+xCYUYwIcPdGIoh7Ml1GS9vDyJCuOx5zr3Q6x4c4eBmP4HrywRSoeIq2g6ENtW+iX6iatJEBS56ldqIT9TgbYefUmwFcUE964QxOJreFHmXQihvHezyJBliPh7BBS+4D3lO3eezAPcdI87Tao9NE0gSJp5/A8wD0Z/UUZhqugzizYjLQvIm8IDHOJGK7pB2OUgm4X9ay9fXLNRJcIDFkDEEtzbMOmF7vKpzfXKjvuRebK76kTCAQXGJYOUTRBhsBNlQQMF3o/gvky1epBUDAyz9onT3ftU4aQMGhDuUDTObo34g8qmOQJDjhi2M3YdnGG+yFo2gm9NJ8n8fumuKQgg0SShKEoS9OZAgduQlRz160gSYf7jpP9qx0SKPD7pEqqXpNw65hKnKFFm9t0njL1ePR1LzzS9FyTWCZEPVLNqIvtxTTbzgQMxe5W5uqA4/yaXD0JD8x8JaRefvv27esbkjh2wIQppvroMUQNO07whX4ilOhM2aM3NGgFQXnnFXlbEN7kyKrLjYj3KQFDMUjhCC0iJQC9DkLpDokzO6++k7NDGhclcsDQ20WG2oQ+aklyChQFVNLEUuvOG+LKQkzglSraXYyEJAhtjJY4gCgs42AMhVW9J6s6JK2LAmX4zxKGLygpErNZ/YlYNgy99CvxUsEls49sKa3FcIrrgAQMRdG2smkYehZN08TB9vZVbsP8WhumFmzIDPf9L453ceEdVKqLRiQicnOGovDGv7qaIfcsUMkvaaB4id9m55CU8Mhdcg7n1EuJBxZ+MIZkh76FEp3+cZRwRcQrVVAU1fhJLLWSMPwi2rC4poJjDHe+4wW9ppFmH38/E6YB5NgLT7ZZA0rqSoil75heCJdBq2VBIpevg8okbsR8HsWLr3UQhTfovVUUVS68SdDj2f894q7F9Bia6TGCmk2kKVs9y4fvmGh7HeIb/o4QN7nQwJVJrEmJRVsChtF+8Dob0gzxij6QyNwM8RDCygbkezGGBn3QAvUFTcP0gii8996A44lBpRh2ruJGJKlyc4YHK/rBK2wIDPEr6rI7RC6T0hRCDZWW91bUhFZTSIf5O/Lbqf2F4mnnNYrmvuphuJZWtMAjiWRzhpGO98UaG9KzAyshREhg3XmTChPiAWt0nIgUFfoHMfhCguSUA/rq+2J5+C2qs/PZoDOkxsMpSSSbMxSFd/Z2jQ33aXT4Sk3ymrssV8f5QovZemYHys0w2Z+isY0sRmVpnKHQbsjcCS2fmBHJPm3OUHwQI8iyyyju7wXNBsyQqklEri7JwmgvB7ffRwb+AxlFt7wZezqBFX542cQDvi02Mf6KMbwSGUZLPJIqN2eYy2YCrOn3QTVBG0bvaRPtPY2A70iYpNI2aEQh5A7nk+4UP7aQojf97Bus66q+X2xEvSMnOlhKIXJgIAaFq8wQlZ/AhrkQd0drbMjGZC9YY5GWddSI+TI/OvhDNfwynCMSsPPplhoZSwDh8eMuXEr0whIdhB/l0oepJAwX5llpRP5foVOairQ5M0F0UFPiI0boR5XIeziFtBm35I+HmPWFhcf6ypFlLrRbf5HUpghuqTKFy/jzFfhpql16vAqr49gv4HkZquickshUfyw86XeTo5pirehNjmdliOfbZfG8fNdHYa8bSpfHKgvWxQ2u15LM+MwMUy12NwFmzJ1fsrFb/d0yyfT5oCW5NTw3QxW1LnhWzpTK6avdg8fbXLbMky0muEUXTf0BhhDsDkJVmclmC9lseP9XKF3+ytPq6/DsXornvC4vby5nihdLrh9/d7bnZ4jvxXeLS55pKqevk/2vZzbCn7AhnvVyt1wWSOYzhWruqLV1A6b+FEMsPQ6PLjL4sTbSUy7nHvsrnsn8XfwhG9KL8Nbl0TnGUf/LtrdQmEtCQkJCQkJCQkJCQkJCQkJCQkJCQkJCQkJCQkJCQkJCQkJCQkJCQkJCQkJCQkJCQkJCQkJCQkJCQkJC4v8B/wWH9y3C0vJHRAAAAABJRU5ErkJggg==;clipPath=inset(8.67% 7.78% 7.78% 8.67%);fontStyle=1;fontSize=16;" vertex="1" parent="72AYrfa2ehSqcX3lbBJk-1">
          <mxGeometry x="1050" width="100" height="100" as="geometry" />
        </mxCell>
        <mxCell id="72AYrfa2ehSqcX3lbBJk-21" value="" style="shadow=1;strokeWidth=1;rounded=1;absoluteArcSize=1;arcSize=2;" vertex="1" parent="72AYrfa2ehSqcX3lbBJk-1">
          <mxGeometry x="660" y="526" width="438.25" height="214" as="geometry" />
        </mxCell>
        <mxCell id="72AYrfa2ehSqcX3lbBJk-22" value="Deployment" style="sketch=0;html=1;dashed=0;whitespace=wrap;fillColor=#2875E2;strokeColor=#ffffff;points=[[0.005,0.63,0],[0.1,0.2,0],[0.9,0.2,0],[0.5,0,0],[0.995,0.63,0],[0.72,0.99,0],[0.5,1,0],[0.28,0.99,0]];verticalLabelPosition=middle;align=left;verticalAlign=middle;shape=mxgraph.kubernetes.icon;prIcon=deploy;aspect=fixed;fontSize=16;labelPosition=right;fontStyle=1" vertex="1" parent="72AYrfa2ehSqcX3lbBJk-1">
          <mxGeometry x="630" y="490" width="50" height="48" as="geometry" />
        </mxCell>
        <mxCell id="72AYrfa2ehSqcX3lbBJk-23" value="" style="shadow=1;strokeWidth=1;rounded=1;absoluteArcSize=1;arcSize=2;" vertex="1" parent="72AYrfa2ehSqcX3lbBJk-1">
          <mxGeometry x="690.87" y="578" width="376.5" height="132" as="geometry" />
        </mxCell>
        <mxCell id="72AYrfa2ehSqcX3lbBJk-24" value="ReplicaSet" style="sketch=0;html=1;dashed=0;whitespace=wrap;fillColor=#2875E2;strokeColor=#ffffff;points=[[0.005,0.63,0],[0.1,0.2,0],[0.9,0.2,0],[0.5,0,0],[0.995,0.63,0],[0.72,0.99,0],[0.5,1,0],[0.28,0.99,0]];verticalLabelPosition=middle;align=left;verticalAlign=middle;shape=mxgraph.kubernetes.icon;prIcon=rs;aspect=fixed;labelPosition=right;fontSize=16;fontStyle=1" vertex="1" parent="72AYrfa2ehSqcX3lbBJk-1">
          <mxGeometry x="670" y="542" width="50" height="48" as="geometry" />
        </mxCell>
        <mxCell id="72AYrfa2ehSqcX3lbBJk-25" value="&lt;font style=&quot;font-size: 16px;&quot;&gt;myapp&lt;/font&gt;" style="sketch=0;html=1;dashed=0;whitespace=wrap;fillColor=#2875E2;strokeColor=#ffffff;points=[[0.005,0.63,0],[0.1,0.2,0],[0.9,0.2,0],[0.5,0,0],[0.995,0.63,0],[0.72,0.99,0],[0.5,1,0],[0.28,0.99,0]];verticalLabelPosition=bottom;align=center;verticalAlign=top;shape=mxgraph.kubernetes.icon;prIcon=pod;aspect=fixed;fontSize=16;fontStyle=1" vertex="1" parent="72AYrfa2ehSqcX3lbBJk-1">
          <mxGeometry x="943.5" y="610" width="50" height="48" as="geometry" />
        </mxCell>
        <mxCell id="72AYrfa2ehSqcX3lbBJk-26" value="&lt;font style=&quot;font-size: 16px;&quot;&gt;myapp&lt;/font&gt;" style="sketch=0;html=1;dashed=0;whitespace=wrap;fillColor=#2875E2;strokeColor=#ffffff;points=[[0.005,0.63,0],[0.1,0.2,0],[0.9,0.2,0],[0.5,0,0],[0.995,0.63,0],[0.72,0.99,0],[0.5,1,0],[0.28,0.99,0]];verticalLabelPosition=bottom;align=center;verticalAlign=top;shape=mxgraph.kubernetes.icon;prIcon=pod;aspect=fixed;fontSize=16;fontStyle=1" vertex="1" parent="72AYrfa2ehSqcX3lbBJk-1">
          <mxGeometry x="763.5" y="610" width="50" height="48" as="geometry" />
        </mxCell>
        <mxCell id="72AYrfa2ehSqcX3lbBJk-27" value="&lt;font style=&quot;font-size: 16px;&quot;&gt;myapp&lt;/font&gt;" style="sketch=0;html=1;dashed=0;whitespace=wrap;fillColor=#2875E2;strokeColor=#ffffff;points=[[0.005,0.63,0],[0.1,0.2,0],[0.9,0.2,0],[0.5,0,0],[0.995,0.63,0],[0.72,0.99,0],[0.5,1,0],[0.28,0.99,0]];verticalLabelPosition=bottom;align=center;verticalAlign=top;shape=mxgraph.kubernetes.icon;prIcon=pod;aspect=fixed;fontSize=16;fontStyle=1" vertex="1" parent="72AYrfa2ehSqcX3lbBJk-1">
          <mxGeometry x="853.5" y="610" width="50" height="48" as="geometry" />
        </mxCell>
        <mxCell id="72AYrfa2ehSqcX3lbBJk-28" value="&lt;font style=&quot;font-size: 36px;&quot;&gt;Deployment Architecture&lt;/font&gt;" style="text;html=1;align=center;verticalAlign=middle;whiteSpace=wrap;rounded=0;fontSize=36;labelBorderColor=none;strokeColor=default;fontStyle=1" vertex="1" parent="72AYrfa2ehSqcX3lbBJk-1">
          <mxGeometry x="346" y="40" width="478" height="100" as="geometry" />
        </mxCell>
        <mxCell id="72AYrfa2ehSqcX3lbBJk-29" value="requirements.txt" style="image;aspect=fixed;html=1;points=[];align=center;fontSize=14;image=img/lib/azure2/general/File.svg;fontStyle=1" vertex="1" parent="72AYrfa2ehSqcX3lbBJk-1">
          <mxGeometry x="475.29" y="488" width="40.58" height="50" as="geometry" />
        </mxCell>
        <mxCell id="72AYrfa2ehSqcX3lbBJk-30" value="&lt;b style=&quot;border-color: var(--border-color);&quot;&gt;&lt;font style=&quot;border-color: var(--border-color); font-size: 16px;&quot;&gt;GitHub Server&lt;/font&gt;&lt;/b&gt;" style="image;aspect=fixed;html=1;points=[];align=center;fontSize=12;image=img/lib/azure2/other/Fiji.svg;" vertex="1" parent="72AYrfa2ehSqcX3lbBJk-1">
          <mxGeometry x="220" y="168" width="50" height="62.96" as="geometry" />
        </mxCell>
        <mxCell id="72AYrfa2ehSqcX3lbBJk-31" value="" style="dashed=0;outlineConnect=0;html=1;align=center;labelPosition=center;verticalLabelPosition=bottom;verticalAlign=top;shape=mxgraph.weblogos.github;aspect=fixed;" vertex="1" parent="72AYrfa2ehSqcX3lbBJk-1">
          <mxGeometry x="260" y="199.46" width="35" height="35.47" as="geometry" />
        </mxCell>
        <mxCell id="72AYrfa2ehSqcX3lbBJk-32" value="Git" style="shape=image;verticalLabelPosition=middle;labelBackgroundColor=default;verticalAlign=middle;aspect=fixed;imageAspect=0;image=https://git-scm.com/images/logos/downloads/Git-Icon-1788C.png;fontSize=14;fontStyle=1;labelPosition=right;align=left;" vertex="1" parent="72AYrfa2ehSqcX3lbBJk-1">
          <mxGeometry x="80" y="700" width="35" height="35" as="geometry" />
        </mxCell>
        <mxCell id="72AYrfa2ehSqcX3lbBJk-33" value="Build &amp;amp; Push&lt;br&gt;Docker Image" style="rounded=0;whiteSpace=wrap;html=1;fontSize=16;fontStyle=1" vertex="1" parent="72AYrfa2ehSqcX3lbBJk-1">
          <mxGeometry x="181" y="582" width="128" height="52" as="geometry" />
        </mxCell>
        <mxCell id="72AYrfa2ehSqcX3lbBJk-34" value="Check Out &lt;br&gt;Code" style="rounded=0;whiteSpace=wrap;html=1;fontSize=16;fontStyle=1" vertex="1" parent="72AYrfa2ehSqcX3lbBJk-1">
          <mxGeometry x="181" y="294" width="128" height="52" as="geometry" />
        </mxCell>
        <mxCell id="72AYrfa2ehSqcX3lbBJk-35" value="Unit Test" style="rounded=0;whiteSpace=wrap;html=1;fontSize=16;fontStyle=1" vertex="1" parent="72AYrfa2ehSqcX3lbBJk-1">
          <mxGeometry x="181" y="510" width="128" height="52" as="geometry" />
        </mxCell>
        <mxCell id="72AYrfa2ehSqcX3lbBJk-36" value="Docker Hub" style="shape=image;verticalLabelPosition=bottom;labelBackgroundColor=default;verticalAlign=top;aspect=fixed;imageAspect=0;image=data:image/png,iVBORw0KGgoAAAANSUhEUgAAAOEAAADhCAMAAAAJbSJIAAAAbFBMVEX///8kl+0AjuwVk+yIwPQlmO0AkezL4fl8uvP4/f/l8fwble0LkuxutPKRxPSu0vfN5fqhzPZir/Hr9v0Aies2nu6/3Pnk8PzD3/lIpO/b7PtfrfFUqfC11/hxtvKbx/Xy+f7V5/oAheqnz/aG6m7HAAAGE0lEQVR4nO2dfX+qIBSAE5S0Q7YyWy9W7vb9v+NV2+5aHpyYBHTP8+eYL88P5cABaTIhCIIgCIIgCIIgCIIgCIIgCIIgCMIdstUcJbF9Y6PxzjjK6xjOWIBChv5Ahv5Dhv5Dhv5Dhv5Dhv5Dhv5Dhv5Dhv7z+obva4HBXscwmb6h2L4vgvCT7RRjWzcZe7Rouq+KEvywqW0bhARvFNdZVRYztL0MJ8q2VDjYliZ4YGO1YcixIp5OvIqHZEiGZNiD7chKd9g3nK4PRmveumESAOcm46h1w1N1EWhirCFsG26vJxKFsSfVsmH1jH6eNcoM2DWXsGv4fQmAvQG9iW3DH6cRHyYELRuebq8AwkgtWjXMxI+DQc5ezTC9uwBEBlpUq4Yc7s9dvJbhRrSOF+OHfpuGc+T8bPQG1aJhgp4+Gt1wja4xbAxjgRWJ2nCMtYlv7Ye0QqZjG55ijFNZlS3QovhYFWX4YbGO4Rmtw+vj8xoU9y3pFYht39ho4IJVe/oqlThDX8Pgsyl7BbYqQwj0T7bkEQKcqqJEYEVR86SEgBVdowV62DVarAKsTC7ubmohFYaB0J+kW0rAmNeGDC36jIdY0Wc8xIoCaAzRw8S94X2n9OYx1e/YLPHQ3dThqBH/aog2Ia06jJWGQf4ahvi/fV/df8OD2lBoZxd9M6z+t9xPj4vl+XxeXjYfvw+MfTOEPKinLqWsu7pSCMby+Nip6Zth0C6qRPNU/Xo6aYiNDrvhbKXKVTlp2BEtlHBVDsBJQ/ymfoMHGw3DuVVDJEvTBxAF0uY4afg+zBBPyDlpOIGOxrQLrGPupmFHt60TrNfqpqF6+NSJOHpjmCkykt3g42M3DTt7NUrkxSNDZR6jA8BTso4aTvJ+VreIJSborOGAoK9I+p/XDGG9qg3/YEXsT5PVxw9rVl/ihzUr2Qv8MOz90X4TmeEFVKOj2zdtutIesdhpRkTQT1FZZBoK3YgPwsQ8vwmy6fkQCO3BE7DvBFXoLvEhF0zwAb3uW8G9YvrSAaC1OKG3IL+Z/z4O69I6DY9u30H1jIC3sJ/TpkNyPE4j8rtB79ChpZuAyFsjwt3LGAKXbIVMYuT+G0ItJ1g0P5ZYRI1s398jgJRCyigvwsv2XdVnsH2TjwDVgOf3RTm27/IR+k0d+vyU9lvW5rEhnmdqMSD94QiKPFMLf+Nh3+VQhe0bHUzfRRhzX+uQ912W6G3PWyhD/B2pp3XIVz0FJxdP65D1rcKh88e2aXLw/fjw07D3W9j6nMgTdNZ3J8iaIvfRWt69s323A9D7zsLDgAigIzi5+JcwRdcfqMG/t3EZ2GkJqiZ2HYbpfiDr2wixd5f7H6Ff4QL0dyrwrN82YHa+9MoQ+ndIv/EpkQG8HGA4bAGuHYatINn7Ey/029Er/uRMh64g8WYeWDvWf7H3pDUV/ZLcGH50a/onn9osfRhfQP7AVh8+BH2QD322vXK/rWGP7crr/iCR6Y1627jec3t8pxbHBxhySH/7DqcDxijbCblcibqJGQXuViJ/JBDesHV1hDGW4MDvbswznqByOye7jChYDaIc7J3KcTdlc28kLA6jCk4+XHtOxejbQIVuPafMwBZJTq2n1Zxi6sdMOqPIAzP7zG5ceRXNbYecOtE/BROv4Bf624iMDxdGP47cWVcURWlScJJYblDhgbRoT8rIpqLYPeHTSIuKoPjCfHTF3M67CKx41l6WiZXmRkbonkCGWD09LnJ2fqJfRfrc3g2IuHyuYJ24eV57A+xg6NcOOsmKJz2p3I5fzfkZ1cjZ3JZfxftOGHaUMrS82fGCG4wbXEQX+79rlYSmqlGyuSO/1JnF+vtS/AoXu0tp2+ybTH9vkS5Asjy12LqglMt8nIoELmRxcXNnlbeTeFSSSxbEm9K2SQebOR8qWdUdy0/d2986QTJNc6G5ZUwlJ/gh3fizyX+5TQtggv/iCVDvXMxEvjpv3K+6NrPtMi4i/rULM/zbNYdLKeu/8mg3Dy/Tvf2I/hDlbL89XpZpveXR/HSK4zA8XxbH7ccs89yMIAiCIAiCIAiCIAiCIAiCIAiCIP5D/gKorpkSaxqInQAAAABJRU5ErkJggg==;fontSize=16;fontStyle=1;fontColor=#4b95e6;" vertex="1" parent="72AYrfa2ehSqcX3lbBJk-1">
          <mxGeometry x="215" y="670" width="60" height="60" as="geometry" />
        </mxCell>
        <mxCell id="72AYrfa2ehSqcX3lbBJk-37" value="Set up Python" style="rounded=0;whiteSpace=wrap;html=1;fontSize=16;fontStyle=1" vertex="1" parent="72AYrfa2ehSqcX3lbBJk-1">
          <mxGeometry x="181" y="366" width="128" height="52" as="geometry" />
        </mxCell>
        <mxCell id="72AYrfa2ehSqcX3lbBJk-38" value="Install &lt;br&gt;Dependencies" style="rounded=0;whiteSpace=wrap;html=1;fontSize=16;fontStyle=1" vertex="1" parent="72AYrfa2ehSqcX3lbBJk-1">
          <mxGeometry x="181" y="438" width="128" height="52" as="geometry" />
        </mxCell>
      </root>
    </mxGraphModel>
  </diagram>
</mxfile>
